<?xml version="1.0" encoding="utf-8" standalone="no"?>
<!DOCTYPE svg PUBLIC "-//W3C//DTD SVG 1.1//EN"
  "http://www.w3.org/Graphics/SVG/1.1/DTD/svg11.dtd">
<!-- Created with matplotlib (http://matplotlib.org/) -->
<svg height="341pt" version="1.1" viewBox="0 0 532 341" width="532pt" xmlns="http://www.w3.org/2000/svg" xmlns:xlink="http://www.w3.org/1999/xlink">
 <defs>
  <style type="text/css">
*{stroke-linecap:butt;stroke-linejoin:round;}
  </style>
 </defs>
 <g id="figure_1">
  <g id="patch_1">
   <path d="M 0 341.87 
L 532.78 341.87 
L 532.78 0 
L 0 0 
z
" style="fill:#ffffff;"/>
  </g>
  <g id="axes_1">
   <g id="patch_2">
    <path d="M 66.62 287.25 
L 513.02 287.25 
L 513.02 15.45 
L 66.62 15.45 
z
" style="fill:#eaeaf2;"/>
   </g>
   <g id="matplotlib.axis_1">
    <g id="xtick_1">
     <g id="line2d_1"/>
     <g id="text_1">
      <!-- $\mathdefault{10^{-6}}$ -->
      <defs>
       <path d="M 37.25 0 
L 28.46875 0 
L 28.46875 56 
Q 25.296875 52.984375 20.140625 49.953125 
Q 14.984375 46.921875 10.890625 45.40625 
L 10.890625 53.90625 
Q 18.265625 57.375 23.78125 62.296875 
Q 29.296875 67.234375 31.59375 71.875 
L 37.25 71.875 
z
" id="ArialMT-31"/>
       <path d="M 4.15625 35.296875 
Q 4.15625 48 6.765625 55.734375 
Q 9.375 63.484375 14.515625 67.671875 
Q 19.671875 71.875 27.484375 71.875 
Q 33.25 71.875 37.59375 69.546875 
Q 41.9375 67.234375 44.765625 62.859375 
Q 47.609375 58.5 49.21875 52.21875 
Q 50.828125 45.953125 50.828125 35.296875 
Q 50.828125 22.703125 48.234375 14.96875 
Q 45.65625 7.234375 40.5 3 
Q 35.359375 -1.21875 27.484375 -1.21875 
Q 17.140625 -1.21875 11.234375 6.203125 
Q 4.15625 15.140625 4.15625 35.296875 
z
M 13.1875 35.296875 
Q 13.1875 17.671875 17.3125 11.828125 
Q 21.4375 6 27.484375 6 
Q 33.546875 6 37.671875 11.859375 
Q 41.796875 17.71875 41.796875 35.296875 
Q 41.796875 52.984375 37.671875 58.78125 
Q 33.546875 64.59375 27.390625 64.59375 
Q 21.34375 64.59375 17.71875 59.46875 
Q 13.1875 52.9375 13.1875 35.296875 
z
" id="ArialMT-30"/>
       <path d="M 52.828125 31.203125 
L 5.5625 31.203125 
L 5.5625 39.40625 
L 52.828125 39.40625 
z
" id="ArialMT-2212"/>
       <path d="M 49.75 54.046875 
L 41.015625 53.375 
Q 39.84375 58.546875 37.703125 60.890625 
Q 34.125 64.65625 28.90625 64.65625 
Q 24.703125 64.65625 21.53125 62.3125 
Q 17.390625 59.28125 14.984375 53.46875 
Q 12.59375 47.65625 12.5 36.921875 
Q 15.671875 41.75 20.265625 44.09375 
Q 24.859375 46.4375 29.890625 46.4375 
Q 38.671875 46.4375 44.84375 39.96875 
Q 51.03125 33.5 51.03125 23.25 
Q 51.03125 16.5 48.125 10.71875 
Q 45.21875 4.9375 40.140625 1.859375 
Q 35.0625 -1.21875 28.609375 -1.21875 
Q 17.625 -1.21875 10.6875 6.859375 
Q 3.765625 14.9375 3.765625 33.5 
Q 3.765625 54.25 11.421875 63.671875 
Q 18.109375 71.875 29.4375 71.875 
Q 37.890625 71.875 43.28125 67.140625 
Q 48.6875 62.40625 49.75 54.046875 
z
M 13.875 23.1875 
Q 13.875 18.65625 15.796875 14.5 
Q 17.71875 10.359375 21.1875 8.171875 
Q 24.65625 6 28.46875 6 
Q 34.03125 6 38.03125 10.484375 
Q 42.046875 14.984375 42.046875 22.703125 
Q 42.046875 30.125 38.078125 34.390625 
Q 34.125 38.671875 28.125 38.671875 
Q 22.171875 38.671875 18.015625 34.390625 
Q 13.875 30.125 13.875 23.1875 
z
" id="ArialMT-36"/>
      </defs>
      <g style="fill:#262626;" transform="translate(50.78 310.75)scale(0.16 -0.16)">
       <use transform="translate(0 0.99375)" xlink:href="#ArialMT-31"/>
       <use transform="translate(55.615234 0.99375)" xlink:href="#ArialMT-30"/>
       <use transform="translate(112.972813 70.6875)scale(0.7)" xlink:href="#ArialMT-2212"/>
       <use transform="translate(153.851719 70.6875)scale(0.7)" xlink:href="#ArialMT-36"/>
      </g>
     </g>
    </g>
    <g id="xtick_2">
     <g id="line2d_2"/>
     <g id="text_2">
      <!-- $\mathdefault{10^{-3}}$ -->
      <defs>
       <path d="M 4.203125 18.890625 
L 12.984375 20.0625 
Q 14.5 12.59375 18.140625 9.296875 
Q 21.78125 6 27 6 
Q 33.203125 6 37.46875 10.296875 
Q 41.75 14.59375 41.75 20.953125 
Q 41.75 27 37.796875 30.921875 
Q 33.84375 34.859375 27.734375 34.859375 
Q 25.25 34.859375 21.53125 33.890625 
L 22.515625 41.609375 
Q 23.390625 41.5 23.921875 41.5 
Q 29.546875 41.5 34.03125 44.421875 
Q 38.53125 47.359375 38.53125 53.46875 
Q 38.53125 58.296875 35.25 61.46875 
Q 31.984375 64.65625 26.8125 64.65625 
Q 21.6875 64.65625 18.265625 61.421875 
Q 14.84375 58.203125 13.875 51.765625 
L 5.078125 53.328125 
Q 6.6875 62.15625 12.390625 67.015625 
Q 18.109375 71.875 26.609375 71.875 
Q 32.46875 71.875 37.390625 69.359375 
Q 42.328125 66.84375 44.9375 62.5 
Q 47.5625 58.15625 47.5625 53.265625 
Q 47.5625 48.640625 45.0625 44.828125 
Q 42.578125 41.015625 37.703125 38.765625 
Q 44.046875 37.3125 47.5625 32.6875 
Q 51.078125 28.078125 51.078125 21.140625 
Q 51.078125 11.765625 44.234375 5.25 
Q 37.40625 -1.265625 26.953125 -1.265625 
Q 17.53125 -1.265625 11.296875 4.34375 
Q 5.078125 9.96875 4.203125 18.890625 
z
" id="ArialMT-33"/>
      </defs>
      <g style="fill:#262626;" transform="translate(273.98 310.75)scale(0.16 -0.16)">
       <use transform="translate(0 0.99375)" xlink:href="#ArialMT-31"/>
       <use transform="translate(55.615234 0.99375)" xlink:href="#ArialMT-30"/>
       <use transform="translate(112.972813 70.6875)scale(0.7)" xlink:href="#ArialMT-2212"/>
       <use transform="translate(153.851719 70.6875)scale(0.7)" xlink:href="#ArialMT-33"/>
      </g>
     </g>
    </g>
    <g id="xtick_3">
     <g id="line2d_3"/>
     <g id="text_3">
      <!-- $\mathdefault{10^{0}}$ -->
      <g style="fill:#262626;" transform="translate(500.46 310.75)scale(0.16 -0.16)">
       <use transform="translate(0 0.99375)" xlink:href="#ArialMT-31"/>
       <use transform="translate(55.615234 0.99375)" xlink:href="#ArialMT-30"/>
       <use transform="translate(112.972813 70.6875)scale(0.7)" xlink:href="#ArialMT-30"/>
      </g>
     </g>
    </g>
    <g id="xtick_4">
     <g id="line2d_4"/>
    </g>
    <g id="xtick_5">
     <g id="line2d_5"/>
    </g>
    <g id="xtick_6">
     <g id="line2d_6"/>
    </g>
    <g id="xtick_7">
     <g id="line2d_7"/>
    </g>
    <g id="xtick_8">
     <g id="line2d_8"/>
    </g>
    <g id="xtick_9">
     <g id="line2d_9"/>
    </g>
    <g id="xtick_10">
     <g id="line2d_10"/>
    </g>
    <g id="xtick_11">
     <g id="line2d_11"/>
    </g>
    <g id="xtick_12">
     <g id="line2d_12"/>
    </g>
    <g id="xtick_13">
     <g id="line2d_13"/>
    </g>
    <g id="xtick_14">
     <g id="line2d_14"/>
    </g>
    <g id="xtick_15">
     <g id="line2d_15"/>
    </g>
    <g id="xtick_16">
     <g id="line2d_16"/>
    </g>
    <g id="xtick_17">
     <g id="line2d_17"/>
    </g>
    <g id="xtick_18">
     <g id="line2d_18"/>
    </g>
    <g id="xtick_19">
     <g id="line2d_19"/>
    </g>
    <g id="xtick_20">
     <g id="line2d_20"/>
    </g>
    <g id="xtick_21">
     <g id="line2d_21"/>
    </g>
    <g id="xtick_22">
     <g id="line2d_22"/>
    </g>
    <g id="xtick_23">
     <g id="line2d_23"/>
    </g>
    <g id="xtick_24">
     <g id="line2d_24"/>
    </g>
    <g id="xtick_25">
     <g id="line2d_25"/>
    </g>
    <g id="xtick_26">
     <g id="line2d_26"/>
    </g>
    <g id="xtick_27">
     <g id="line2d_27"/>
    </g>
    <g id="xtick_28">
     <g id="line2d_28"/>
    </g>
    <g id="xtick_29">
     <g id="line2d_29"/>
    </g>
    <g id="xtick_30">
     <g id="line2d_30"/>
    </g>
    <g id="xtick_31">
     <g id="line2d_31"/>
    </g>
    <g id="xtick_32">
     <g id="line2d_32"/>
    </g>
    <g id="xtick_33">
     <g id="line2d_33"/>
    </g>
    <g id="xtick_34">
     <g id="line2d_34"/>
    </g>
    <g id="xtick_35">
     <g id="line2d_35"/>
    </g>
    <g id="xtick_36">
     <g id="line2d_36"/>
    </g>
    <g id="xtick_37">
     <g id="line2d_37"/>
    </g>
    <g id="xtick_38">
     <g id="line2d_38"/>
    </g>
    <g id="xtick_39">
     <g id="line2d_39"/>
    </g>
    <g id="xtick_40">
     <g id="line2d_40"/>
    </g>
    <g id="xtick_41">
     <g id="line2d_41"/>
    </g>
    <g id="xtick_42">
     <g id="line2d_42"/>
    </g>
    <g id="xtick_43">
     <g id="line2d_43"/>
    </g>
    <g id="xtick_44">
     <g id="line2d_44"/>
    </g>
    <g id="xtick_45">
     <g id="line2d_45"/>
    </g>
    <g id="xtick_46">
     <g id="line2d_46"/>
    </g>
    <g id="xtick_47">
     <g id="line2d_47"/>
    </g>
    <g id="xtick_48">
     <g id="line2d_48"/>
    </g>
    <g id="xtick_49">
     <g id="line2d_49"/>
    </g>
    <g id="xtick_50">
     <g id="line2d_50"/>
    </g>
    <g id="xtick_51">
     <g id="line2d_51"/>
    </g>
    <g id="text_4">
     <!-- $p$-value, bootstrapped -->
     <defs>
      <path d="M 49.609375 33.6875 
Q 49.609375 40.875 46.484375 44.671875 
Q 43.359375 48.484375 37.5 48.484375 
Q 33.5 48.484375 29.859375 46.4375 
Q 26.21875 44.390625 23.390625 40.484375 
Q 20.609375 36.625 18.9375 31.15625 
Q 17.28125 25.6875 17.28125 20.3125 
Q 17.28125 13.484375 20.40625 9.796875 
Q 23.53125 6.109375 29.296875 6.109375 
Q 33.546875 6.109375 37.1875 8.109375 
Q 40.828125 10.109375 43.40625 13.921875 
Q 46.1875 17.921875 47.890625 23.34375 
Q 49.609375 28.765625 49.609375 33.6875 
z
M 21.78125 46.390625 
Q 25.390625 51.125 30.296875 53.5625 
Q 35.203125 56 41.21875 56 
Q 49.609375 56 54.25 50.5 
Q 58.890625 45.015625 58.890625 35.109375 
Q 58.890625 27 56 19.65625 
Q 53.125 12.3125 47.703125 6.5 
Q 44.09375 2.640625 39.546875 0.609375 
Q 35.015625 -1.421875 29.984375 -1.421875 
Q 24.171875 -1.421875 20.21875 1 
Q 16.265625 3.421875 14.3125 8.203125 
L 8.6875 -20.796875 
L -0.296875 -20.796875 
L 14.40625 54.6875 
L 23.390625 54.6875 
z
" id="DejaVuSans-Oblique-70"/>
      <path d="M 3.171875 21.484375 
L 3.171875 30.328125 
L 30.171875 30.328125 
L 30.171875 21.484375 
z
" id="ArialMT-2d"/>
      <path d="M 21 0 
L 1.265625 51.859375 
L 10.546875 51.859375 
L 21.6875 20.796875 
Q 23.484375 15.765625 25 10.359375 
Q 26.171875 14.453125 28.265625 20.21875 
L 39.796875 51.859375 
L 48.828125 51.859375 
L 29.203125 0 
z
" id="ArialMT-76"/>
      <path d="M 40.4375 6.390625 
Q 35.546875 2.25 31.03125 0.53125 
Q 26.515625 -1.171875 21.34375 -1.171875 
Q 12.796875 -1.171875 8.203125 3 
Q 3.609375 7.171875 3.609375 13.671875 
Q 3.609375 17.484375 5.34375 20.625 
Q 7.078125 23.78125 9.890625 25.6875 
Q 12.703125 27.59375 16.21875 28.5625 
Q 18.796875 29.25 24.03125 29.890625 
Q 34.671875 31.15625 39.703125 32.90625 
Q 39.75 34.71875 39.75 35.203125 
Q 39.75 40.578125 37.25 42.78125 
Q 33.890625 45.75 27.25 45.75 
Q 21.046875 45.75 18.09375 43.578125 
Q 15.140625 41.40625 13.71875 35.890625 
L 5.125 37.0625 
Q 6.296875 42.578125 8.984375 45.96875 
Q 11.671875 49.359375 16.75 51.1875 
Q 21.828125 53.03125 28.515625 53.03125 
Q 35.15625 53.03125 39.296875 51.46875 
Q 43.453125 49.90625 45.40625 47.53125 
Q 47.359375 45.171875 48.140625 41.546875 
Q 48.578125 39.3125 48.578125 33.453125 
L 48.578125 21.734375 
Q 48.578125 9.46875 49.140625 6.21875 
Q 49.703125 2.984375 51.375 0 
L 42.1875 0 
Q 40.828125 2.734375 40.4375 6.390625 
z
M 39.703125 26.03125 
Q 34.90625 24.078125 25.34375 22.703125 
Q 19.921875 21.921875 17.671875 20.9375 
Q 15.4375 19.96875 14.203125 18.09375 
Q 12.984375 16.21875 12.984375 13.921875 
Q 12.984375 10.40625 15.640625 8.0625 
Q 18.3125 5.71875 23.4375 5.71875 
Q 28.515625 5.71875 32.46875 7.9375 
Q 36.421875 10.15625 38.28125 14.015625 
Q 39.703125 17 39.703125 22.796875 
z
" id="ArialMT-61"/>
      <path d="M 6.390625 0 
L 6.390625 71.578125 
L 15.1875 71.578125 
L 15.1875 0 
z
" id="ArialMT-6c"/>
      <path d="M 40.578125 0 
L 40.578125 7.625 
Q 34.515625 -1.171875 24.125 -1.171875 
Q 19.53125 -1.171875 15.546875 0.578125 
Q 11.578125 2.34375 9.640625 5 
Q 7.71875 7.671875 6.9375 11.53125 
Q 6.390625 14.109375 6.390625 19.734375 
L 6.390625 51.859375 
L 15.1875 51.859375 
L 15.1875 23.09375 
Q 15.1875 16.21875 15.71875 13.8125 
Q 16.546875 10.359375 19.234375 8.375 
Q 21.921875 6.390625 25.875 6.390625 
Q 29.828125 6.390625 33.296875 8.421875 
Q 36.765625 10.453125 38.203125 13.9375 
Q 39.65625 17.4375 39.65625 24.078125 
L 39.65625 51.859375 
L 48.4375 51.859375 
L 48.4375 0 
z
" id="ArialMT-75"/>
      <path d="M 42.09375 16.703125 
L 51.171875 15.578125 
Q 49.03125 7.625 43.21875 3.21875 
Q 37.40625 -1.171875 28.375 -1.171875 
Q 17 -1.171875 10.328125 5.828125 
Q 3.65625 12.84375 3.65625 25.484375 
Q 3.65625 38.578125 10.390625 45.796875 
Q 17.140625 53.03125 27.875 53.03125 
Q 38.28125 53.03125 44.875 45.953125 
Q 51.46875 38.875 51.46875 26.03125 
Q 51.46875 25.25 51.421875 23.6875 
L 12.75 23.6875 
Q 13.234375 15.140625 17.578125 10.59375 
Q 21.921875 6.0625 28.421875 6.0625 
Q 33.25 6.0625 36.671875 8.59375 
Q 40.09375 11.140625 42.09375 16.703125 
z
M 13.234375 30.90625 
L 42.1875 30.90625 
Q 41.609375 37.453125 38.875 40.71875 
Q 34.671875 45.796875 27.984375 45.796875 
Q 21.921875 45.796875 17.796875 41.75 
Q 13.671875 37.703125 13.234375 30.90625 
z
" id="ArialMT-65"/>
      <path d="M 8.890625 0 
L 8.890625 10.015625 
L 18.890625 10.015625 
L 18.890625 0 
Q 18.890625 -5.515625 16.9375 -8.90625 
Q 14.984375 -12.3125 10.75 -14.15625 
L 8.296875 -10.40625 
Q 11.078125 -9.1875 12.390625 -6.8125 
Q 13.71875 -4.4375 13.875 0 
z
" id="ArialMT-2c"/>
      <path id="ArialMT-20"/>
      <path d="M 14.703125 0 
L 6.546875 0 
L 6.546875 71.578125 
L 15.328125 71.578125 
L 15.328125 46.046875 
Q 20.90625 53.03125 29.546875 53.03125 
Q 34.328125 53.03125 38.59375 51.09375 
Q 42.875 49.171875 45.625 45.671875 
Q 48.390625 42.1875 49.953125 37.25 
Q 51.515625 32.328125 51.515625 26.703125 
Q 51.515625 13.375 44.921875 6.09375 
Q 38.328125 -1.171875 29.109375 -1.171875 
Q 19.921875 -1.171875 14.703125 6.5 
z
M 14.59375 26.3125 
Q 14.59375 17 17.140625 12.84375 
Q 21.296875 6.0625 28.375 6.0625 
Q 34.125 6.0625 38.328125 11.0625 
Q 42.53125 16.0625 42.53125 25.984375 
Q 42.53125 36.140625 38.5 40.96875 
Q 34.46875 45.796875 28.765625 45.796875 
Q 23 45.796875 18.796875 40.796875 
Q 14.59375 35.796875 14.59375 26.3125 
z
" id="ArialMT-62"/>
      <path d="M 3.328125 25.921875 
Q 3.328125 40.328125 11.328125 47.265625 
Q 18.015625 53.03125 27.640625 53.03125 
Q 38.328125 53.03125 45.109375 46.015625 
Q 51.90625 39.015625 51.90625 26.65625 
Q 51.90625 16.65625 48.90625 10.90625 
Q 45.90625 5.171875 40.15625 2 
Q 34.421875 -1.171875 27.640625 -1.171875 
Q 16.75 -1.171875 10.03125 5.8125 
Q 3.328125 12.796875 3.328125 25.921875 
z
M 12.359375 25.921875 
Q 12.359375 15.96875 16.703125 11.015625 
Q 21.046875 6.0625 27.640625 6.0625 
Q 34.1875 6.0625 38.53125 11.03125 
Q 42.875 16.015625 42.875 26.21875 
Q 42.875 35.84375 38.5 40.796875 
Q 34.125 45.75 27.640625 45.75 
Q 21.046875 45.75 16.703125 40.8125 
Q 12.359375 35.890625 12.359375 25.921875 
z
" id="ArialMT-6f"/>
      <path d="M 25.78125 7.859375 
L 27.046875 0.09375 
Q 23.34375 -0.6875 20.40625 -0.6875 
Q 15.625 -0.6875 12.984375 0.828125 
Q 10.359375 2.34375 9.28125 4.8125 
Q 8.203125 7.28125 8.203125 15.1875 
L 8.203125 45.015625 
L 1.765625 45.015625 
L 1.765625 51.859375 
L 8.203125 51.859375 
L 8.203125 64.703125 
L 16.9375 69.96875 
L 16.9375 51.859375 
L 25.78125 51.859375 
L 25.78125 45.015625 
L 16.9375 45.015625 
L 16.9375 14.703125 
Q 16.9375 10.9375 17.40625 9.859375 
Q 17.875 8.796875 18.921875 8.15625 
Q 19.96875 7.515625 21.921875 7.515625 
Q 23.390625 7.515625 25.78125 7.859375 
z
" id="ArialMT-74"/>
      <path d="M 3.078125 15.484375 
L 11.765625 16.84375 
Q 12.5 11.625 15.84375 8.84375 
Q 19.1875 6.0625 25.203125 6.0625 
Q 31.25 6.0625 34.171875 8.515625 
Q 37.109375 10.984375 37.109375 14.3125 
Q 37.109375 17.28125 34.515625 19 
Q 32.71875 20.171875 25.53125 21.96875 
Q 15.875 24.421875 12.140625 26.203125 
Q 8.40625 27.984375 6.46875 31.125 
Q 4.546875 34.28125 4.546875 38.09375 
Q 4.546875 41.546875 6.125 44.5 
Q 7.71875 47.46875 10.453125 49.421875 
Q 12.5 50.921875 16.03125 51.96875 
Q 19.578125 53.03125 23.640625 53.03125 
Q 29.734375 53.03125 34.34375 51.265625 
Q 38.96875 49.515625 41.15625 46.5 
Q 43.359375 43.5 44.1875 38.484375 
L 35.59375 37.3125 
Q 35.015625 41.3125 32.203125 43.546875 
Q 29.390625 45.796875 24.265625 45.796875 
Q 18.21875 45.796875 15.625 43.796875 
Q 13.03125 41.796875 13.03125 39.109375 
Q 13.03125 37.40625 14.109375 36.03125 
Q 15.1875 34.625 17.484375 33.6875 
Q 18.796875 33.203125 25.25 31.453125 
Q 34.578125 28.953125 38.25 27.359375 
Q 41.9375 25.78125 44.03125 22.75 
Q 46.140625 19.734375 46.140625 15.234375 
Q 46.140625 10.84375 43.578125 6.953125 
Q 41.015625 3.078125 36.171875 0.953125 
Q 31.34375 -1.171875 25.25 -1.171875 
Q 15.140625 -1.171875 9.84375 3.03125 
Q 4.546875 7.234375 3.078125 15.484375 
z
" id="ArialMT-73"/>
      <path d="M 6.5 0 
L 6.5 51.859375 
L 14.40625 51.859375 
L 14.40625 44 
Q 17.4375 49.515625 20 51.265625 
Q 22.5625 53.03125 25.640625 53.03125 
Q 30.078125 53.03125 34.671875 50.203125 
L 31.640625 42.046875 
Q 28.421875 43.953125 25.203125 43.953125 
Q 22.3125 43.953125 20.015625 42.21875 
Q 17.71875 40.484375 16.75 37.40625 
Q 15.28125 32.71875 15.28125 27.15625 
L 15.28125 0 
z
" id="ArialMT-72"/>
      <path d="M 6.59375 -19.875 
L 6.59375 51.859375 
L 14.59375 51.859375 
L 14.59375 45.125 
Q 17.4375 49.078125 21 51.046875 
Q 24.5625 53.03125 29.640625 53.03125 
Q 36.28125 53.03125 41.359375 49.609375 
Q 46.4375 46.1875 49.015625 39.953125 
Q 51.609375 33.734375 51.609375 26.3125 
Q 51.609375 18.359375 48.75 11.984375 
Q 45.90625 5.609375 40.453125 2.21875 
Q 35.015625 -1.171875 29 -1.171875 
Q 24.609375 -1.171875 21.109375 0.6875 
Q 17.625 2.546875 15.375 5.375 
L 15.375 -19.875 
z
M 14.546875 25.640625 
Q 14.546875 15.625 18.59375 10.84375 
Q 22.65625 6.0625 28.421875 6.0625 
Q 34.28125 6.0625 38.453125 11.015625 
Q 42.625 15.96875 42.625 26.375 
Q 42.625 36.28125 38.546875 41.203125 
Q 34.46875 46.140625 28.8125 46.140625 
Q 23.1875 46.140625 18.859375 40.890625 
Q 14.546875 35.640625 14.546875 25.640625 
z
" id="ArialMT-70"/>
      <path d="M 40.234375 0 
L 40.234375 6.546875 
Q 35.296875 -1.171875 25.734375 -1.171875 
Q 19.53125 -1.171875 14.328125 2.25 
Q 9.125 5.671875 6.265625 11.796875 
Q 3.421875 17.921875 3.421875 25.875 
Q 3.421875 33.640625 6 39.96875 
Q 8.59375 46.296875 13.765625 49.65625 
Q 18.953125 53.03125 25.34375 53.03125 
Q 30.03125 53.03125 33.6875 51.046875 
Q 37.359375 49.078125 39.65625 45.90625 
L 39.65625 71.578125 
L 48.390625 71.578125 
L 48.390625 0 
z
M 12.453125 25.875 
Q 12.453125 15.921875 16.640625 10.984375 
Q 20.84375 6.0625 26.5625 6.0625 
Q 32.328125 6.0625 36.34375 10.765625 
Q 40.375 15.484375 40.375 25.140625 
Q 40.375 35.796875 36.265625 40.765625 
Q 32.171875 45.75 26.171875 45.75 
Q 20.3125 45.75 16.375 40.96875 
Q 12.453125 36.1875 12.453125 25.875 
z
" id="ArialMT-64"/>
     </defs>
     <g style="fill:#262626;" transform="translate(201.98 330.89)scale(0.18 -0.18)">
      <use transform="translate(0 0.421875)" xlink:href="#DejaVuSans-Oblique-70"/>
      <use transform="translate(63.476562 0.421875)" xlink:href="#ArialMT-2d"/>
      <use transform="translate(96.777344 0.421875)" xlink:href="#ArialMT-76"/>
      <use transform="translate(146.777344 0.421875)" xlink:href="#ArialMT-61"/>
      <use transform="translate(202.392578 0.421875)" xlink:href="#ArialMT-6c"/>
      <use transform="translate(224.609375 0.421875)" xlink:href="#ArialMT-75"/>
      <use transform="translate(280.224609 0.421875)" xlink:href="#ArialMT-65"/>
      <use transform="translate(335.839844 0.421875)" xlink:href="#ArialMT-2c"/>
      <use transform="translate(363.623047 0.421875)" xlink:href="#ArialMT-20"/>
      <use transform="translate(391.40625 0.421875)" xlink:href="#ArialMT-62"/>
      <use transform="translate(447.021484 0.421875)" xlink:href="#ArialMT-6f"/>
      <use transform="translate(502.636719 0.421875)" xlink:href="#ArialMT-6f"/>
      <use transform="translate(558.251953 0.421875)" xlink:href="#ArialMT-74"/>
      <use transform="translate(586.035156 0.421875)" xlink:href="#ArialMT-73"/>
      <use transform="translate(636.035156 0.421875)" xlink:href="#ArialMT-74"/>
      <use transform="translate(663.818359 0.421875)" xlink:href="#ArialMT-72"/>
      <use transform="translate(697.119141 0.421875)" xlink:href="#ArialMT-61"/>
      <use transform="translate(752.734375 0.421875)" xlink:href="#ArialMT-70"/>
      <use transform="translate(808.349609 0.421875)" xlink:href="#ArialMT-70"/>
      <use transform="translate(863.964844 0.421875)" xlink:href="#ArialMT-65"/>
      <use transform="translate(919.580078 0.421875)" xlink:href="#ArialMT-64"/>
     </g>
    </g>
   </g>
   <g id="matplotlib.axis_2">
    <g id="ytick_1">
     <g id="line2d_52"/>
     <g id="text_5">
      <!-- $\mathdefault{10^{-6}}$ -->
      <g style="fill:#262626;" transform="translate(27.94 295.5)scale(0.16 -0.16)">
       <use transform="translate(0 0.99375)" xlink:href="#ArialMT-31"/>
       <use transform="translate(55.615234 0.99375)" xlink:href="#ArialMT-30"/>
       <use transform="translate(112.972813 70.6875)scale(0.7)" xlink:href="#ArialMT-2212"/>
       <use transform="translate(153.851719 70.6875)scale(0.7)" xlink:href="#ArialMT-36"/>
      </g>
     </g>
    </g>
    <g id="ytick_2">
     <g id="line2d_53"/>
     <g id="text_6">
      <!-- $\mathdefault{10^{-3}}$ -->
      <g style="fill:#262626;" transform="translate(27.94 159.6)scale(0.16 -0.16)">
       <use transform="translate(0 0.99375)" xlink:href="#ArialMT-31"/>
       <use transform="translate(55.615234 0.99375)" xlink:href="#ArialMT-30"/>
       <use transform="translate(112.972813 70.6875)scale(0.7)" xlink:href="#ArialMT-2212"/>
       <use transform="translate(153.851719 70.6875)scale(0.7)" xlink:href="#ArialMT-33"/>
      </g>
     </g>
    </g>
    <g id="ytick_3">
     <g id="line2d_54"/>
     <g id="text_7">
      <!-- $\mathdefault{10^{0}}$ -->
      <g style="fill:#262626;" transform="translate(34.5 23.7)scale(0.16 -0.16)">
       <use transform="translate(0 0.99375)" xlink:href="#ArialMT-31"/>
       <use transform="translate(55.615234 0.99375)" xlink:href="#ArialMT-30"/>
       <use transform="translate(112.972813 70.6875)scale(0.7)" xlink:href="#ArialMT-30"/>
      </g>
     </g>
    </g>
    <g id="ytick_4">
     <g id="line2d_55"/>
    </g>
    <g id="ytick_5">
     <g id="line2d_56"/>
    </g>
    <g id="ytick_6">
     <g id="line2d_57"/>
    </g>
    <g id="ytick_7">
     <g id="line2d_58"/>
    </g>
    <g id="ytick_8">
     <g id="line2d_59"/>
    </g>
    <g id="ytick_9">
     <g id="line2d_60"/>
    </g>
    <g id="ytick_10">
     <g id="line2d_61"/>
    </g>
    <g id="ytick_11">
     <g id="line2d_62"/>
    </g>
    <g id="ytick_12">
     <g id="line2d_63"/>
    </g>
    <g id="ytick_13">
     <g id="line2d_64"/>
    </g>
    <g id="ytick_14">
     <g id="line2d_65"/>
    </g>
    <g id="ytick_15">
     <g id="line2d_66"/>
    </g>
    <g id="ytick_16">
     <g id="line2d_67"/>
    </g>
    <g id="ytick_17">
     <g id="line2d_68"/>
    </g>
    <g id="ytick_18">
     <g id="line2d_69"/>
    </g>
    <g id="ytick_19">
     <g id="line2d_70"/>
    </g>
    <g id="ytick_20">
     <g id="line2d_71"/>
    </g>
    <g id="ytick_21">
     <g id="line2d_72"/>
    </g>
    <g id="ytick_22">
     <g id="line2d_73"/>
    </g>
    <g id="ytick_23">
     <g id="line2d_74"/>
    </g>
    <g id="ytick_24">
     <g id="line2d_75"/>
    </g>
    <g id="ytick_25">
     <g id="line2d_76"/>
    </g>
    <g id="ytick_26">
     <g id="line2d_77"/>
    </g>
    <g id="ytick_27">
     <g id="line2d_78"/>
    </g>
    <g id="ytick_28">
     <g id="line2d_79"/>
    </g>
    <g id="ytick_29">
     <g id="line2d_80"/>
    </g>
    <g id="ytick_30">
     <g id="line2d_81"/>
    </g>
    <g id="ytick_31">
     <g id="line2d_82"/>
    </g>
    <g id="ytick_32">
     <g id="line2d_83"/>
    </g>
    <g id="ytick_33">
     <g id="line2d_84"/>
    </g>
    <g id="ytick_34">
     <g id="line2d_85"/>
    </g>
    <g id="ytick_35">
     <g id="line2d_86"/>
    </g>
    <g id="ytick_36">
     <g id="line2d_87"/>
    </g>
    <g id="ytick_37">
     <g id="line2d_88"/>
    </g>
    <g id="ytick_38">
     <g id="line2d_89"/>
    </g>
    <g id="ytick_39">
     <g id="line2d_90"/>
    </g>
    <g id="ytick_40">
     <g id="line2d_91"/>
    </g>
    <g id="ytick_41">
     <g id="line2d_92"/>
    </g>
    <g id="ytick_42">
     <g id="line2d_93"/>
    </g>
    <g id="ytick_43">
     <g id="line2d_94"/>
    </g>
    <g id="ytick_44">
     <g id="line2d_95"/>
    </g>
    <g id="ytick_45">
     <g id="line2d_96"/>
    </g>
    <g id="ytick_46">
     <g id="line2d_97"/>
    </g>
    <g id="ytick_47">
     <g id="line2d_98"/>
    </g>
    <g id="ytick_48">
     <g id="line2d_99"/>
    </g>
    <g id="ytick_49">
     <g id="line2d_100"/>
    </g>
    <g id="ytick_50">
     <g id="line2d_101"/>
    </g>
    <g id="ytick_51">
     <g id="line2d_102"/>
    </g>
    <g id="text_8">
     <!-- $p$-value, t-test -->
     <g style="fill:#262626;" transform="translate(20.16 206.61)rotate(-90)scale(0.18 -0.18)">
      <use transform="translate(0 0.421875)" xlink:href="#DejaVuSans-Oblique-70"/>
      <use transform="translate(63.476562 0.421875)" xlink:href="#ArialMT-2d"/>
      <use transform="translate(96.777344 0.421875)" xlink:href="#ArialMT-76"/>
      <use transform="translate(146.777344 0.421875)" xlink:href="#ArialMT-61"/>
      <use transform="translate(202.392578 0.421875)" xlink:href="#ArialMT-6c"/>
      <use transform="translate(224.609375 0.421875)" xlink:href="#ArialMT-75"/>
      <use transform="translate(280.224609 0.421875)" xlink:href="#ArialMT-65"/>
      <use transform="translate(335.839844 0.421875)" xlink:href="#ArialMT-2c"/>
      <use transform="translate(363.623047 0.421875)" xlink:href="#ArialMT-20"/>
      <use transform="translate(391.40625 0.421875)" xlink:href="#ArialMT-74"/>
      <use transform="translate(419.189453 0.421875)" xlink:href="#ArialMT-2d"/>
      <use transform="translate(452.490234 0.421875)" xlink:href="#ArialMT-74"/>
      <use transform="translate(480.273438 0.421875)" xlink:href="#ArialMT-65"/>
      <use transform="translate(535.888672 0.421875)" xlink:href="#ArialMT-73"/>
      <use transform="translate(585.888672 0.421875)" xlink:href="#ArialMT-74"/>
     </g>
    </g>
   </g>
   <g id="PathCollection_1">
    <defs>
     <path d="M 0 2.236068 
C 0.593012 2.236068 1.161816 2.000462 1.581139 1.581139 
C 2.000462 1.161816 2.236068 0.593012 2.236068 0 
C 2.236068 -0.593012 2.000462 -1.161816 1.581139 -1.581139 
C 1.161816 -2.000462 0.593012 -2.236068 0 -2.236068 
C -0.593012 -2.236068 -1.161816 -2.000462 -1.581139 -1.581139 
C -2.000462 -1.161816 -2.236068 -0.593012 -2.236068 0 
C -2.236068 0.593012 -2.000462 1.161816 -1.581139 1.581139 
C -1.161816 2.000462 -0.593012 2.236068 0 2.236068 
z
" id="m91b4c6bddf"/>
    </defs>
    <g clip-path="url(#pc0a4fb2bce)">
     <use style="fill:#1f77b4;" x="485.816861" xlink:href="#m91b4c6bddf" y="32.010018"/>
     <use style="fill:#1f77b4;" x="447.20904" xlink:href="#m91b4c6bddf" y="55.416432"/>
     <use style="fill:#1f77b4;" x="450.547692" xlink:href="#m91b4c6bddf" y="53.16676"/>
     <use style="fill:#1f77b4;" x="334.451301" xlink:href="#m91b4c6bddf" y="123.713443"/>
     <use style="fill:#1f77b4;" x="478.130655" xlink:href="#m91b4c6bddf" y="36.741021"/>
     <use style="fill:#1f77b4;" x="490.073294" xlink:href="#m91b4c6bddf" y="29.444162"/>
     <use style="fill:#1f77b4;" x="487.079411" xlink:href="#m91b4c6bddf" y="31.168412"/>
     <use style="fill:#1f77b4;" x="467.311766" xlink:href="#m91b4c6bddf" y="43.157808"/>
     <use style="fill:#1f77b4;" x="401.201854" xlink:href="#m91b4c6bddf" y="84.197621"/>
     <use style="fill:#1f77b4;" x="488.674228" xlink:href="#m91b4c6bddf" y="30.32181"/>
     <use style="fill:#1f77b4;" x="470.405641" xlink:href="#m91b4c6bddf" y="41.274558"/>
     <use style="fill:#1f77b4;" x="441.371907" xlink:href="#m91b4c6bddf" y="58.876255"/>
     <use style="fill:#1f77b4;" x="409.771691" xlink:href="#m91b4c6bddf" y="78.258416"/>
     <use style="fill:#1f77b4;" x="453.697291" xlink:href="#m91b4c6bddf" y="51.382799"/>
     <use style="fill:#1f77b4;" x="479.042299" xlink:href="#m91b4c6bddf" y="36.074302"/>
     <use style="fill:#1f77b4;" x="402.333934" xlink:href="#m91b4c6bddf" y="82.838642"/>
     <use style="fill:#1f77b4;" x="435.774439" xlink:href="#m91b4c6bddf" y="62.156284"/>
     <use style="fill:#1f77b4;" x="479.679631" xlink:href="#m91b4c6bddf" y="35.729748"/>
     <use style="fill:#1f77b4;" x="360.272579" xlink:href="#m91b4c6bddf" y="108.891162"/>
     <use style="fill:#1f77b4;" x="343.338248" xlink:href="#m91b4c6bddf" y="120.723204"/>
     <use style="fill:#1f77b4;" x="465.265938" xlink:href="#m91b4c6bddf" y="44.369152"/>
     <use style="fill:#1f77b4;" x="450.31679" xlink:href="#m91b4c6bddf" y="53.055302"/>
     <use style="fill:#1f77b4;" x="441.41935" xlink:href="#m91b4c6bddf" y="58.635448"/>
     <use style="fill:#1f77b4;" x="377.17005" xlink:href="#m91b4c6bddf" y="98.265559"/>
     <use style="fill:#1f77b4;" x="488.181071" xlink:href="#m91b4c6bddf" y="30.555881"/>
     <use style="fill:#1f77b4;" x="403.894806" xlink:href="#m91b4c6bddf" y="81.940373"/>
     <use style="fill:#1f77b4;" x="390.579962" xlink:href="#m91b4c6bddf" y="89.050488"/>
     <use style="fill:#1f77b4;" x="374.976321" xlink:href="#m91b4c6bddf" y="99.364971"/>
     <use style="fill:#1f77b4;" x="486.645265" xlink:href="#m91b4c6bddf" y="31.477929"/>
     <use style="fill:#1f77b4;" x="449.685216" xlink:href="#m91b4c6bddf" y="53.759729"/>
     <use style="fill:#1f77b4;" x="390.90699" xlink:href="#m91b4c6bddf" y="89.093407"/>
     <use style="fill:#1f77b4;" x="484.091107" xlink:href="#m91b4c6bddf" y="33.139994"/>
     <use style="fill:#1f77b4;" x="387.976984" xlink:href="#m91b4c6bddf" y="90.710585"/>
     <use style="fill:#1f77b4;" x="479.388165" xlink:href="#m91b4c6bddf" y="35.800383"/>
     <use style="fill:#1f77b4;" x="444.080096" xlink:href="#m91b4c6bddf" y="56.928909"/>
     <use style="fill:#1f77b4;" x="331.028897" xlink:href="#m91b4c6bddf" y="126.286708"/>
     <use style="fill:#1f77b4;" x="242.332551" xlink:href="#m91b4c6bddf" y="177.79494"/>
     <use style="fill:#1f77b4;" x="370.856358" xlink:href="#m91b4c6bddf" y="101.783216"/>
     <use style="fill:#1f77b4;" x="385.815141" xlink:href="#m91b4c6bddf" y="92.119997"/>
     <use style="fill:#1f77b4;" x="446.360801" xlink:href="#m91b4c6bddf" y="55.687846"/>
     <use style="fill:#1f77b4;" x="450.634692" xlink:href="#m91b4c6bddf" y="53.279494"/>
     <use style="fill:#1f77b4;" x="342.841138" xlink:href="#m91b4c6bddf" y="119.21767"/>
     <use style="fill:#1f77b4;" x="416.621567" xlink:href="#m91b4c6bddf" y="73.85738"/>
     <use style="fill:#1f77b4;" x="412.88357" xlink:href="#m91b4c6bddf" y="76.108412"/>
     <use style="fill:#1f77b4;" x="327.200578" xlink:href="#m91b4c6bddf" y="130.754494"/>
     <use style="fill:#1f77b4;" x="393.226667" xlink:href="#m91b4c6bddf" y="88.264449"/>
     <use style="fill:#1f77b4;" x="386.938142" xlink:href="#m91b4c6bddf" y="91.710342"/>
     <use style="fill:#1f77b4;" x="439.455662" xlink:href="#m91b4c6bddf" y="59.73018"/>
     <use style="fill:#1f77b4;" x="341.302204" xlink:href="#m91b4c6bddf" y="120.952196"/>
     <use style="fill:#1f77b4;" x="412.151574" xlink:href="#m91b4c6bddf" y="76.024446"/>
     <use style="fill:#1f77b4;" x="234.412274" xlink:href="#m91b4c6bddf" y="189.947228"/>
     <use style="fill:#1f77b4;" x="258.5559" xlink:href="#m91b4c6bddf" y="173.655095"/>
     <use style="fill:#1f77b4;" x="343.706125" xlink:href="#m91b4c6bddf" y="120.338568"/>
     <use style="fill:#1f77b4;" x="439.868634" xlink:href="#m91b4c6bddf" y="59.619011"/>
     <use style="fill:#1f77b4;" x="369.099131" xlink:href="#m91b4c6bddf" y="103.572899"/>
     <use style="fill:#1f77b4;" x="434.74916" xlink:href="#m91b4c6bddf" y="63.040802"/>
     <use style="fill:#1f77b4;" x="203.895294" xlink:href="#m91b4c6bddf" y="209.857489"/>
     <use style="fill:#1f77b4;" x="226.291926" xlink:href="#m91b4c6bddf" y="199.089453"/>
     <use style="fill:#1f77b4;" x="426.125384" xlink:href="#m91b4c6bddf" y="67.907664"/>
     <use style="fill:#1f77b4;" x="401.853606" xlink:href="#m91b4c6bddf" y="82.660682"/>
     <use style="fill:#1f77b4;" x="163.416632" xlink:href="#m91b4c6bddf" y="245.657895"/>
     <use style="fill:#1f77b4;" x="193.023368" xlink:href="#m91b4c6bddf" y="204.204789"/>
     <use style="fill:#1f77b4;" x="390.191788" xlink:href="#m91b4c6bddf" y="90.24055"/>
     <use style="fill:#1f77b4;" x="141.02" xlink:href="#m91b4c6bddf" y="226.555645"/>
     <use style="fill:#1f77b4;" x="380.361616" xlink:href="#m91b4c6bddf" y="95.965353"/>
     <use style="fill:#1f77b4;" x="163.416632" xlink:href="#m91b4c6bddf" y="260.491922"/>
     <use style="fill:#1f77b4;" x="223.897385" xlink:href="#m91b4c6bddf" y="194.219589"/>
     <use style="fill:#1f77b4;" x="176.517821" xlink:href="#m91b4c6bddf" y="231.810491"/>
     <use style="fill:#1f77b4;" x="377.450178" xlink:href="#m91b4c6bddf" y="98.263932"/>
     <use style="fill:#1f77b4;" x="218.499616" xlink:href="#m91b4c6bddf" y="198.479166"/>
     <use style="fill:#1f77b4;" x="407.347395" xlink:href="#m91b4c6bddf" y="78.968098"/>
     <use style="fill:#1f77b4;" x="141.02" xlink:href="#m91b4c6bddf" y="286.586734"/>
     <use style="fill:#1f77b4;" x="309.346361" xlink:href="#m91b4c6bddf" y="145.075059"/>
     <use style="fill:#1f77b4;" x="450.455977" xlink:href="#m91b4c6bddf" y="53.104618"/>
     <use style="fill:#1f77b4;" x="268.063221" xlink:href="#m91b4c6bddf" y="166.146073"/>
     <use style="fill:#1f77b4;" x="287.125814" xlink:href="#m91b4c6bddf" y="156.365882"/>
     <use style="fill:#1f77b4;" x="141.02" xlink:href="#m91b4c6bddf" y="251.155165"/>
     <use style="fill:#1f77b4;" x="176.517821" xlink:href="#m91b4c6bddf" y="230.260563"/>
     <use style="fill:#1f77b4;" x="387.382948" xlink:href="#m91b4c6bddf" y="91.813672"/>
     <use style="fill:#1f77b4;" x="141.02" xlink:href="#m91b4c6bddf" y="245.078664"/>
     <use style="fill:#1f77b4;" x="274.373942" xlink:href="#m91b4c6bddf" y="170.792753"/>
     <use style="fill:#1f77b4;" x="141.02" xlink:href="#m91b4c6bddf" y="417.673116"/>
     <use style="fill:#1f77b4;" x="141.02" xlink:href="#m91b4c6bddf" y="299.137534"/>
     <use style="fill:#1f77b4;" x="141.02" xlink:href="#m91b4c6bddf" y="333.583484"/>
     <use style="fill:#1f77b4;" x="250.917821" xlink:href="#m91b4c6bddf" y="181.131914"/>
     <use style="fill:#1f77b4;" x="141.02" xlink:href="#m91b4c6bddf" y="268.257129"/>
     <use style="fill:#1f77b4;" x="141.02" xlink:href="#m91b4c6bddf" y="281.775554"/>
     <use style="fill:#1f77b4;" x="141.02" xlink:href="#m91b4c6bddf" y="282.887988"/>
     <use style="fill:#1f77b4;" x="317.701277" xlink:href="#m91b4c6bddf" y="134.384747"/>
     <use style="fill:#1f77b4;" x="141.02" xlink:href="#m91b4c6bddf" y="268.502618"/>
     <use style="fill:#1f77b4;" x="141.02" xlink:href="#m91b4c6bddf" y="321.948381"/>
     <use style="fill:#1f77b4;" x="308.451248" xlink:href="#m91b4c6bddf" y="141.488315"/>
     <use style="fill:#1f77b4;" x="250.917821" xlink:href="#m91b4c6bddf" y="180.150065"/>
     <use style="fill:#1f77b4;" x="257.694208" xlink:href="#m91b4c6bddf" y="174.959994"/>
     <use style="fill:#1f77b4;" x="203.895294" xlink:href="#m91b4c6bddf" y="199.094559"/>
     <use style="fill:#1f77b4;" x="185.813263" xlink:href="#m91b4c6bddf" y="241.644616"/>
     <use style="fill:#1f77b4;" x="141.02" xlink:href="#m91b4c6bddf" y="262.874528"/>
     <use style="fill:#1f77b4;" x="292.306727" xlink:href="#m91b4c6bddf" y="149.766191"/>
     <use style="fill:#1f77b4;" x="141.02" xlink:href="#m91b4c6bddf" y="293.005027"/>
     <use style="fill:#1f77b4;" x="141.02" xlink:href="#m91b4c6bddf" y="303.74815"/>
     <use style="fill:#1f77b4;" x="141.02" xlink:href="#m91b4c6bddf" y="298.330122"/>
     <use style="fill:#1f77b4;" x="141.02" xlink:href="#m91b4c6bddf" y="249.080779"/>
     <use style="fill:#1f77b4;" x="141.02" xlink:href="#m91b4c6bddf" y="277.385546"/>
     <use style="fill:#1f77b4;" x="141.02" xlink:href="#m91b4c6bddf" y="337.547186"/>
     <use style="fill:#1f77b4;" x="141.02" xlink:href="#m91b4c6bddf" y="343.140924"/>
     <use style="fill:#1f77b4;" x="203.895294" xlink:href="#m91b4c6bddf" y="217.934739"/>
     <use style="fill:#1f77b4;" x="141.02" xlink:href="#m91b4c6bddf" y="285.126936"/>
     <use style="fill:#1f77b4;" x="141.02" xlink:href="#m91b4c6bddf" y="317.204679"/>
     <use style="fill:#1f77b4;" x="141.02" xlink:href="#m91b4c6bddf" y="446.530926"/>
     <use style="fill:#1f77b4;" x="141.02" xlink:href="#m91b4c6bddf" y="301.628378"/>
     <use style="fill:#1f77b4;" x="141.02" xlink:href="#m91b4c6bddf" y="315.302373"/>
     <use style="fill:#1f77b4;" x="141.02" xlink:href="#m91b4c6bddf" y="327.543178"/>
     <use style="fill:#1f77b4;" x="141.02" xlink:href="#m91b4c6bddf" y="349.285584"/>
     <use style="fill:#1f77b4;" x="141.02" xlink:href="#m91b4c6bddf" y="354.068479"/>
     <use style="fill:#1f77b4;" x="141.02" xlink:href="#m91b4c6bddf" y="327.302796"/>
     <use style="fill:#1f77b4;" x="141.02" xlink:href="#m91b4c6bddf" y="562.357037"/>
     <use style="fill:#1f77b4;" x="141.02" xlink:href="#m91b4c6bddf" y="369.626094"/>
     <use style="fill:#1f77b4;" x="141.02" xlink:href="#m91b4c6bddf" y="581.696052"/>
     <use style="fill:#1f77b4;" x="141.02" xlink:href="#m91b4c6bddf" y="326.020239"/>
     <use style="fill:#1f77b4;" x="141.02" xlink:href="#m91b4c6bddf" y="363.14311"/>
     <use style="fill:#1f77b4;" x="141.02" xlink:href="#m91b4c6bddf" y="279.560465"/>
     <use style="fill:#1f77b4;" x="141.02" xlink:href="#m91b4c6bddf" y="330.171203"/>
     <use style="fill:#1f77b4;" x="163.416632" xlink:href="#m91b4c6bddf" y="229.095813"/>
     <use style="fill:#1f77b4;" x="141.02" xlink:href="#m91b4c6bddf" y="500.896114"/>
     <use style="fill:#1f77b4;" x="141.02" xlink:href="#m91b4c6bddf" y="512.762896"/>
     <use style="fill:#1f77b4;" x="141.02" xlink:href="#m91b4c6bddf" y="270.514008"/>
     <use style="fill:#1f77b4;" x="141.02" xlink:href="#m91b4c6bddf" y="450.978521"/>
     <use style="fill:#1f77b4;" x="141.02" xlink:href="#m91b4c6bddf" y="419.098299"/>
     <use style="fill:#1f77b4;" x="141.02" xlink:href="#m91b4c6bddf" y="399.331926"/>
     <use style="fill:#1f77b4;" x="141.02" xlink:href="#m91b4c6bddf" y="352.476141"/>
     <use style="fill:#1f77b4;" x="141.02" xlink:href="#m91b4c6bddf" y="379.358791"/>
     <use style="fill:#1f77b4;" x="141.02" xlink:href="#m91b4c6bddf" y="518.394331"/>
     <use style="fill:#1f77b4;" x="141.02" xlink:href="#m91b4c6bddf" y="485.090231"/>
     <use style="fill:#1f77b4;" x="141.02" xlink:href="#m91b4c6bddf" y="373.225272"/>
     <use style="fill:#1f77b4;" x="141.02" xlink:href="#m91b4c6bddf" y="401.612461"/>
     <use style="fill:#1f77b4;" x="141.02" xlink:href="#m91b4c6bddf" y="472.878742"/>
     <use style="fill:#1f77b4;" x="141.02" xlink:href="#m91b4c6bddf" y="370.023235"/>
     <use style="fill:#1f77b4;" x="141.02" xlink:href="#m91b4c6bddf" y="525.820886"/>
     <use style="fill:#1f77b4;" x="141.02" xlink:href="#m91b4c6bddf" y="613.317354"/>
     <use style="fill:#1f77b4;" x="141.02" xlink:href="#m91b4c6bddf" y="668.997817"/>
     <use style="fill:#1f77b4;" x="141.02" xlink:href="#m91b4c6bddf" y="334.788564"/>
     <use style="fill:#1f77b4;" x="141.02" xlink:href="#m91b4c6bddf" y="625.103504"/>
     <use style="fill:#1f77b4;" x="141.02" xlink:href="#m91b4c6bddf" y="513.700535"/>
     <use style="fill:#1f77b4;" x="141.02" xlink:href="#m91b4c6bddf" y="383.381373"/>
     <use style="fill:#1f77b4;" x="141.02" xlink:href="#m91b4c6bddf" y="447.923242"/>
     <use style="fill:#1f77b4;" x="141.02" xlink:href="#m91b4c6bddf" y="354.594941"/>
     <use style="fill:#1f77b4;" x="141.02" xlink:href="#m91b4c6bddf" y="469.36741"/>
     <use style="fill:#1f77b4;" x="141.02" xlink:href="#m91b4c6bddf" y="464.408418"/>
     <use style="fill:#1f77b4;" x="141.02" xlink:href="#m91b4c6bddf" y="554.194857"/>
     <use style="fill:#1f77b4;" x="141.02" xlink:href="#m91b4c6bddf" y="460.354124"/>
     <use style="fill:#1f77b4;" x="141.02" xlink:href="#m91b4c6bddf" y="523.558864"/>
     <use style="fill:#1f77b4;" x="141.02" xlink:href="#m91b4c6bddf" y="716.690253"/>
     <use style="fill:#1f77b4;" x="141.02" xlink:href="#m91b4c6bddf" y="541.138398"/>
     <use style="fill:#1f77b4;" x="141.02" xlink:href="#m91b4c6bddf" y="454.402297"/>
     <use style="fill:#1f77b4;" x="141.02" xlink:href="#m91b4c6bddf" y="253.701059"/>
     <use style="fill:#1f77b4;" x="141.02" xlink:href="#m91b4c6bddf" y="552.322313"/>
     <use style="fill:#1f77b4;" x="141.02" xlink:href="#m91b4c6bddf" y="508.158838"/>
     <use style="fill:#1f77b4;" x="141.02" xlink:href="#m91b4c6bddf" y="503.152556"/>
     <use style="fill:#1f77b4;" x="141.02" xlink:href="#m91b4c6bddf" y="450.484401"/>
     <use style="fill:#1f77b4;" x="141.02" xlink:href="#m91b4c6bddf" y="690.668349"/>
     <use style="fill:#1f77b4;" x="141.02" xlink:href="#m91b4c6bddf" y="510.095098"/>
     <use style="fill:#1f77b4;" x="141.02" xlink:href="#m91b4c6bddf" y="561.940065"/>
     <use style="fill:#1f77b4;" x="141.02" xlink:href="#m91b4c6bddf" y="460.748964"/>
     <use style="fill:#1f77b4;" x="141.02" xlink:href="#m91b4c6bddf" y="516.113699"/>
     <use style="fill:#1f77b4;" x="141.02" xlink:href="#m91b4c6bddf" y="717.461633"/>
     <use style="fill:#1f77b4;" x="141.02" xlink:href="#m91b4c6bddf" y="447.602127"/>
     <use style="fill:#1f77b4;" x="141.02" xlink:href="#m91b4c6bddf" y="496.353866"/>
     <use style="fill:#1f77b4;" x="141.02" xlink:href="#m91b4c6bddf" y="702.94792"/>
     <use style="fill:#1f77b4;" x="141.02" xlink:href="#m91b4c6bddf" y="643.479918"/>
     <use style="fill:#1f77b4;" x="141.02" xlink:href="#m91b4c6bddf" y="589.213855"/>
     <use style="fill:#1f77b4;" x="141.02" xlink:href="#m91b4c6bddf" y="483.349504"/>
     <use style="fill:#1f77b4;" x="141.02" xlink:href="#m91b4c6bddf" y="519.246107"/>
     <use style="fill:#1f77b4;" x="141.02" xlink:href="#m91b4c6bddf" y="511.941385"/>
     <use style="fill:#1f77b4;" x="141.02" xlink:href="#m91b4c6bddf" y="447.600571"/>
     <use style="fill:#1f77b4;" x="141.02" xlink:href="#m91b4c6bddf" y="566.120557"/>
     <use style="fill:#1f77b4;" x="141.02" xlink:href="#m91b4c6bddf" y="597.113006"/>
     <use style="fill:#1f77b4;" x="141.02" xlink:href="#m91b4c6bddf" y="648.651469"/>
     <use style="fill:#1f77b4;" x="141.02" xlink:href="#m91b4c6bddf" y="700.972047"/>
     <use style="fill:#1f77b4;" x="141.02" xlink:href="#m91b4c6bddf" y="527.107764"/>
     <use style="fill:#1f77b4;" x="141.02" xlink:href="#m91b4c6bddf" y="649.408752"/>
     <use style="fill:#1f77b4;" x="141.02" xlink:href="#m91b4c6bddf" y="781.491461"/>
     <use style="fill:#1f77b4;" x="141.02" xlink:href="#m91b4c6bddf" y="784.658694"/>
     <use style="fill:#1f77b4;" x="141.02" xlink:href="#m91b4c6bddf" y="803.410989"/>
     <use style="fill:#1f77b4;" x="141.02" xlink:href="#m91b4c6bddf" y="729.822788"/>
     <use style="fill:#1f77b4;" x="141.02" xlink:href="#m91b4c6bddf" y="606.202705"/>
     <use style="fill:#1f77b4;" x="141.02" xlink:href="#m91b4c6bddf" y="649.180181"/>
     <use style="fill:#1f77b4;" x="141.02" xlink:href="#m91b4c6bddf" y="688.674317"/>
     <use style="fill:#1f77b4;" x="141.02" xlink:href="#m91b4c6bddf" y="865.410282"/>
     <use style="fill:#1f77b4;" x="141.02" xlink:href="#m91b4c6bddf" y="700.286059"/>
     <use style="fill:#1f77b4;" x="141.02" xlink:href="#m91b4c6bddf" y="670.443607"/>
     <use style="fill:#1f77b4;" x="141.02" xlink:href="#m91b4c6bddf" y="851.959425"/>
     <use style="fill:#1f77b4;" x="141.02" xlink:href="#m91b4c6bddf" y="718.8753"/>
     <use style="fill:#1f77b4;" x="141.02" xlink:href="#m91b4c6bddf" y="537.447157"/>
     <use style="fill:#1f77b4;" x="141.02" xlink:href="#m91b4c6bddf" y="577.822113"/>
     <use style="fill:#1f77b4;" x="141.02" xlink:href="#m91b4c6bddf" y="831.795513"/>
     <use style="fill:#1f77b4;" x="141.02" xlink:href="#m91b4c6bddf" y="673.425021"/>
     <use style="fill:#1f77b4;" x="141.02" xlink:href="#m91b4c6bddf" y="746.823568"/>
     <use style="fill:#1f77b4;" x="141.02" xlink:href="#m91b4c6bddf" y="651.697479"/>
     <use style="fill:#1f77b4;" x="141.02" xlink:href="#m91b4c6bddf" y="730.20627"/>
     <use style="fill:#1f77b4;" x="141.02" xlink:href="#m91b4c6bddf" y="695.605188"/>
     <use style="fill:#1f77b4;" x="141.02" xlink:href="#m91b4c6bddf" y="615.077539"/>
     <use style="fill:#1f77b4;" x="141.02" xlink:href="#m91b4c6bddf" y="724.651164"/>
     <use style="fill:#1f77b4;" x="141.02" xlink:href="#m91b4c6bddf" y="716.93899"/>
     <use style="fill:#1f77b4;" x="141.02" xlink:href="#m91b4c6bddf" y="750.817406"/>
     <use style="fill:#1f77b4;" x="141.02" xlink:href="#m91b4c6bddf" y="600.624343"/>
     <use style="fill:#1f77b4;" x="141.02" xlink:href="#m91b4c6bddf" y="551.425458"/>
     <use style="fill:#1f77b4;" x="141.02" xlink:href="#m91b4c6bddf" y="597.350583"/>
     <use style="fill:#1f77b4;" x="141.02" xlink:href="#m91b4c6bddf" y="936.452533"/>
     <use style="fill:#1f77b4;" x="141.02" xlink:href="#m91b4c6bddf" y="745.430047"/>
     <use style="fill:#1f77b4;" x="141.02" xlink:href="#m91b4c6bddf" y="496.138441"/>
     <use style="fill:#1f77b4;" x="141.02" xlink:href="#m91b4c6bddf" y="851.419224"/>
     <use style="fill:#1f77b4;" x="141.02" xlink:href="#m91b4c6bddf" y="704.756536"/>
     <use style="fill:#1f77b4;" x="141.02" xlink:href="#m91b4c6bddf" y="781.490213"/>
     <use style="fill:#1f77b4;" x="141.02" xlink:href="#m91b4c6bddf" y="970.894227"/>
     <use style="fill:#1f77b4;" x="141.02" xlink:href="#m91b4c6bddf" y="795.219995"/>
     <use style="fill:#1f77b4;" x="141.02" xlink:href="#m91b4c6bddf" y="990.384203"/>
     <use style="fill:#1f77b4;" x="141.02" xlink:href="#m91b4c6bddf" y="718.768525"/>
     <use style="fill:#1f77b4;" x="141.02" xlink:href="#m91b4c6bddf" y="774.694923"/>
     <use style="fill:#1f77b4;" x="141.02" xlink:href="#m91b4c6bddf" y="794.757738"/>
     <use style="fill:#1f77b4;" x="141.02" xlink:href="#m91b4c6bddf" y="715.46793"/>
     <use style="fill:#1f77b4;" x="141.02" xlink:href="#m91b4c6bddf" y="1022.050738"/>
     <use style="fill:#1f77b4;" x="141.02" xlink:href="#m91b4c6bddf" y="686.576064"/>
     <use style="fill:#1f77b4;" x="141.02" xlink:href="#m91b4c6bddf" y="951.806491"/>
     <use style="fill:#1f77b4;" x="141.02" xlink:href="#m91b4c6bddf" y="835.759267"/>
     <use style="fill:#1f77b4;" x="141.02" xlink:href="#m91b4c6bddf" y="861.160305"/>
     <use style="fill:#1f77b4;" x="141.02" xlink:href="#m91b4c6bddf" y="905.729382"/>
     <use style="fill:#1f77b4;" x="141.02" xlink:href="#m91b4c6bddf" y="818.716902"/>
     <use style="fill:#1f77b4;" x="141.02" xlink:href="#m91b4c6bddf" y="956.792754"/>
     <use style="fill:#1f77b4;" x="141.02" xlink:href="#m91b4c6bddf" y="1054.782417"/>
     <use style="fill:#1f77b4;" x="141.02" xlink:href="#m91b4c6bddf" y="927.584707"/>
     <use style="fill:#1f77b4;" x="141.02" xlink:href="#m91b4c6bddf" y="731.633953"/>
     <use style="fill:#1f77b4;" x="141.02" xlink:href="#m91b4c6bddf" y="918.024775"/>
     <use style="fill:#1f77b4;" x="141.02" xlink:href="#m91b4c6bddf" y="913.794753"/>
     <use style="fill:#1f77b4;" x="141.02" xlink:href="#m91b4c6bddf" y="827.926766"/>
     <use style="fill:#1f77b4;" x="141.02" xlink:href="#m91b4c6bddf" y="779.295989"/>
     <use style="fill:#1f77b4;" x="141.02" xlink:href="#m91b4c6bddf" y="721.806187"/>
     <use style="fill:#1f77b4;" x="141.02" xlink:href="#m91b4c6bddf" y="809.946744"/>
     <use style="fill:#1f77b4;" x="141.02" xlink:href="#m91b4c6bddf" y="892.728023"/>
     <use style="fill:#1f77b4;" x="141.02" xlink:href="#m91b4c6bddf" y="782.788263"/>
     <use style="fill:#1f77b4;" x="141.02" xlink:href="#m91b4c6bddf" y="846.107002"/>
     <use style="fill:#1f77b4;" x="141.02" xlink:href="#m91b4c6bddf" y="785.364943"/>
     <use style="fill:#1f77b4;" x="141.02" xlink:href="#m91b4c6bddf" y="927.992062"/>
     <use style="fill:#1f77b4;" x="141.02" xlink:href="#m91b4c6bddf" y="1093.845865"/>
     <use style="fill:#1f77b4;" x="141.02" xlink:href="#m91b4c6bddf" y="1039.802939"/>
     <use style="fill:#1f77b4;" x="141.02" xlink:href="#m91b4c6bddf" y="872.395933"/>
     <use style="fill:#1f77b4;" x="141.02" xlink:href="#m91b4c6bddf" y="1060.768418"/>
     <use style="fill:#1f77b4;" x="141.02" xlink:href="#m91b4c6bddf" y="943.21352"/>
     <use style="fill:#1f77b4;" x="141.02" xlink:href="#m91b4c6bddf" y="1120.669111"/>
     <use style="fill:#1f77b4;" x="141.02" xlink:href="#m91b4c6bddf" y="793.670101"/>
     <use style="fill:#1f77b4;" x="141.02" xlink:href="#m91b4c6bddf" y="1085.53776"/>
     <use style="fill:#1f77b4;" x="141.02" xlink:href="#m91b4c6bddf" y="1036.464496"/>
     <use style="fill:#1f77b4;" x="141.02" xlink:href="#m91b4c6bddf" y="946.16185"/>
     <use style="fill:#1f77b4;" x="141.02" xlink:href="#m91b4c6bddf" y="848.957325"/>
     <use style="fill:#1f77b4;" x="141.02" xlink:href="#m91b4c6bddf" y="960.701273"/>
     <use style="fill:#1f77b4;" x="141.02" xlink:href="#m91b4c6bddf" y="847.473512"/>
     <use style="fill:#1f77b4;" x="141.02" xlink:href="#m91b4c6bddf" y="934.316347"/>
     <use style="fill:#1f77b4;" x="141.02" xlink:href="#m91b4c6bddf" y="1136.700615"/>
     <use style="fill:#1f77b4;" x="141.02" xlink:href="#m91b4c6bddf" y="1396.372827"/>
     <use style="fill:#1f77b4;" x="141.02" xlink:href="#m91b4c6bddf" y="993.62855"/>
     <use style="fill:#1f77b4;" x="141.02" xlink:href="#m91b4c6bddf" y="1119.187386"/>
     <use style="fill:#1f77b4;" x="141.02" xlink:href="#m91b4c6bddf" y="974.284265"/>
     <use style="fill:#1f77b4;" x="141.02" xlink:href="#m91b4c6bddf" y="1068.569623"/>
     <use style="fill:#1f77b4;" x="141.02" xlink:href="#m91b4c6bddf" y="1053.218002"/>
     <use style="fill:#1f77b4;" x="141.02" xlink:href="#m91b4c6bddf" y="865.974187"/>
     <use style="fill:#1f77b4;" x="141.02" xlink:href="#m91b4c6bddf" y="1115.907514"/>
     <use style="fill:#1f77b4;" x="141.02" xlink:href="#m91b4c6bddf" y="934.885118"/>
     <use style="fill:#1f77b4;" x="141.02" xlink:href="#m91b4c6bddf" y="1046.446245"/>
     <use style="fill:#1f77b4;" x="141.02" xlink:href="#m91b4c6bddf" y="1129.615864"/>
     <use style="fill:#1f77b4;" x="141.02" xlink:href="#m91b4c6bddf" y="1184.302184"/>
     <use style="fill:#1f77b4;" x="141.02" xlink:href="#m91b4c6bddf" y="970.115353"/>
     <use style="fill:#1f77b4;" x="141.02" xlink:href="#m91b4c6bddf" y="909.11575"/>
     <use style="fill:#1f77b4;" x="141.02" xlink:href="#m91b4c6bddf" y="1164.292771"/>
     <use style="fill:#1f77b4;" x="141.02" xlink:href="#m91b4c6bddf" y="851.148613"/>
     <use style="fill:#1f77b4;" x="141.02" xlink:href="#m91b4c6bddf" y="1155.447909"/>
     <use style="fill:#1f77b4;" x="141.02" xlink:href="#m91b4c6bddf" y="1193.778373"/>
     <use style="fill:#1f77b4;" x="141.02" xlink:href="#m91b4c6bddf" y="1014.480623"/>
     <use style="fill:#1f77b4;" x="141.02" xlink:href="#m91b4c6bddf" y="1041.955525"/>
     <use style="fill:#1f77b4;" x="141.02" xlink:href="#m91b4c6bddf" y="1250.695102"/>
     <use style="fill:#1f77b4;" x="141.02" xlink:href="#m91b4c6bddf" y="1114.008624"/>
     <use style="fill:#1f77b4;" x="141.02" xlink:href="#m91b4c6bddf" y="1118.215227"/>
     <use style="fill:#1f77b4;" x="141.02" xlink:href="#m91b4c6bddf" y="958.37698"/>
     <use style="fill:#1f77b4;" x="141.02" xlink:href="#m91b4c6bddf" y="1122.288668"/>
     <use style="fill:#1f77b4;" x="141.02" xlink:href="#m91b4c6bddf" y="1001.609258"/>
     <use style="fill:#1f77b4;" x="141.02" xlink:href="#m91b4c6bddf" y="1197.064327"/>
     <use style="fill:#1f77b4;" x="141.02" xlink:href="#m91b4c6bddf" y="1018.376388"/>
     <use style="fill:#1f77b4;" x="141.02" xlink:href="#m91b4c6bddf" y="1128.414266"/>
     <use style="fill:#1f77b4;" x="141.02" xlink:href="#m91b4c6bddf" y="1208.98714"/>
     <use style="fill:#1f77b4;" x="141.02" xlink:href="#m91b4c6bddf" y="1208.21495"/>
     <use style="fill:#1f77b4;" x="141.02" xlink:href="#m91b4c6bddf" y="1026.542564"/>
     <use style="fill:#1f77b4;" x="141.02" xlink:href="#m91b4c6bddf" y="1193.674457"/>
     <use style="fill:#1f77b4;" x="141.02" xlink:href="#m91b4c6bddf" y="1077.397945"/>
     <use style="fill:#1f77b4;" x="141.02" xlink:href="#m91b4c6bddf" y="1422.74085"/>
     <use style="fill:#1f77b4;" x="141.02" xlink:href="#m91b4c6bddf" y="963.89645"/>
     <use style="fill:#1f77b4;" x="141.02" xlink:href="#m91b4c6bddf" y="1161.39947"/>
     <use style="fill:#1f77b4;" x="141.02" xlink:href="#m91b4c6bddf" y="1216.133133"/>
     <use style="fill:#1f77b4;" x="141.02" xlink:href="#m91b4c6bddf" y="1264.989371"/>
     <use style="fill:#1f77b4;" x="141.02" xlink:href="#m91b4c6bddf" y="1378.493207"/>
     <use style="fill:#1f77b4;" x="141.02" xlink:href="#m91b4c6bddf" y="1114.486896"/>
     <use style="fill:#1f77b4;" x="141.02" xlink:href="#m91b4c6bddf" y="1277.700807"/>
     <use style="fill:#1f77b4;" x="141.02" xlink:href="#m91b4c6bddf" y="1529.190476"/>
     <use style="fill:#1f77b4;" x="141.02" xlink:href="#m91b4c6bddf" y="1208.593846"/>
     <use style="fill:#1f77b4;" x="141.02" xlink:href="#m91b4c6bddf" y="1438.601478"/>
     <use style="fill:#1f77b4;" x="141.02" xlink:href="#m91b4c6bddf" y="1265.296056"/>
     <use style="fill:#1f77b4;" x="141.02" xlink:href="#m91b4c6bddf" y="1228.318656"/>
     <use style="fill:#1f77b4;" x="141.02" xlink:href="#m91b4c6bddf" y="1085.222814"/>
     <use style="fill:#1f77b4;" x="141.02" xlink:href="#m91b4c6bddf" y="1497.099812"/>
     <use style="fill:#1f77b4;" x="141.02" xlink:href="#m91b4c6bddf" y="1175.476898"/>
     <use style="fill:#1f77b4;" x="141.02" xlink:href="#m91b4c6bddf" y="1222.598459"/>
     <use style="fill:#1f77b4;" x="141.02" xlink:href="#m91b4c6bddf" y="1193.232627"/>
     <use style="fill:#1f77b4;" x="141.02" xlink:href="#m91b4c6bddf" y="1316.131706"/>
     <use style="fill:#1f77b4;" x="141.02" xlink:href="#m91b4c6bddf" y="1430.309051"/>
     <use style="fill:#1f77b4;" x="141.02" xlink:href="#m91b4c6bddf" y="1295.253304"/>
     <use style="fill:#1f77b4;" x="141.02" xlink:href="#m91b4c6bddf" y="1407.735533"/>
     <use style="fill:#1f77b4;" x="141.02" xlink:href="#m91b4c6bddf" y="1286.522081"/>
     <use style="fill:#1f77b4;" x="141.02" xlink:href="#m91b4c6bddf" y="1194.764275"/>
     <use style="fill:#1f77b4;" x="141.02" xlink:href="#m91b4c6bddf" y="1252.702189"/>
     <use style="fill:#1f77b4;" x="141.02" xlink:href="#m91b4c6bddf" y="1011.070987"/>
     <use style="fill:#1f77b4;" x="141.02" xlink:href="#m91b4c6bddf" y="1316.552665"/>
     <use style="fill:#1f77b4;" x="141.02" xlink:href="#m91b4c6bddf" y="1304.857147"/>
     <use style="fill:#1f77b4;" x="141.02" xlink:href="#m91b4c6bddf" y="1016.746743"/>
     <use style="fill:#1f77b4;" x="141.02" xlink:href="#m91b4c6bddf" y="1541.154916"/>
     <use style="fill:#1f77b4;" x="141.02" xlink:href="#m91b4c6bddf" y="1039.349418"/>
     <use style="fill:#1f77b4;" x="141.02" xlink:href="#m91b4c6bddf" y="1496.24732"/>
     <use style="fill:#1f77b4;" x="141.02" xlink:href="#m91b4c6bddf" y="1344.584632"/>
     <use style="fill:#1f77b4;" x="141.02" xlink:href="#m91b4c6bddf" y="1322.518242"/>
     <use style="fill:#1f77b4;" x="141.02" xlink:href="#m91b4c6bddf" y="1344.549774"/>
     <use style="fill:#1f77b4;" x="141.02" xlink:href="#m91b4c6bddf" y="1430.143042"/>
     <use style="fill:#1f77b4;" x="141.02" xlink:href="#m91b4c6bddf" y="1358.697649"/>
     <use style="fill:#1f77b4;" x="141.02" xlink:href="#m91b4c6bddf" y="1365.389802"/>
     <use style="fill:#1f77b4;" x="141.02" xlink:href="#m91b4c6bddf" y="1252.948213"/>
     <use style="fill:#1f77b4;" x="141.02" xlink:href="#m91b4c6bddf" y="1164.393254"/>
     <use style="fill:#1f77b4;" x="141.02" xlink:href="#m91b4c6bddf" y="1478.184925"/>
     <use style="fill:#1f77b4;" x="141.02" xlink:href="#m91b4c6bddf" y="1395.793167"/>
     <use style="fill:#1f77b4;" x="141.02" xlink:href="#m91b4c6bddf" y="1316.659588"/>
     <use style="fill:#1f77b4;" x="141.02" xlink:href="#m91b4c6bddf" y="1607.782025"/>
     <use style="fill:#1f77b4;" x="141.02" xlink:href="#m91b4c6bddf" y="1423.946293"/>
     <use style="fill:#1f77b4;" x="141.02" xlink:href="#m91b4c6bddf" y="1279.899756"/>
     <use style="fill:#1f77b4;" x="141.02" xlink:href="#m91b4c6bddf" y="1591.706492"/>
     <use style="fill:#1f77b4;" x="141.02" xlink:href="#m91b4c6bddf" y="1443.226081"/>
     <use style="fill:#1f77b4;" x="141.02" xlink:href="#m91b4c6bddf" y="1398.982036"/>
     <use style="fill:#1f77b4;" x="141.02" xlink:href="#m91b4c6bddf" y="1394.888028"/>
     <use style="fill:#1f77b4;" x="141.02" xlink:href="#m91b4c6bddf" y="1539.507857"/>
     <use style="fill:#1f77b4;" x="141.02" xlink:href="#m91b4c6bddf" y="1278.5316"/>
     <use style="fill:#1f77b4;" x="141.02" xlink:href="#m91b4c6bddf" y="1831.340693"/>
     <use style="fill:#1f77b4;" x="141.02" xlink:href="#m91b4c6bddf" y="1498.218243"/>
     <use style="fill:#1f77b4;" x="141.02" xlink:href="#m91b4c6bddf" y="1355.816324"/>
     <use style="fill:#1f77b4;" x="141.02" xlink:href="#m91b4c6bddf" y="1399.858031"/>
     <use style="fill:#1f77b4;" x="141.02" xlink:href="#m91b4c6bddf" y="1454.565267"/>
     <use style="fill:#1f77b4;" x="141.02" xlink:href="#m91b4c6bddf" y="1272.717442"/>
     <use style="fill:#1f77b4;" x="141.02" xlink:href="#m91b4c6bddf" y="1430.994942"/>
     <use style="fill:#1f77b4;" x="141.02" xlink:href="#m91b4c6bddf" y="1463.084413"/>
     <use style="fill:#1f77b4;" x="141.02" xlink:href="#m91b4c6bddf" y="1498.811978"/>
     <use style="fill:#1f77b4;" x="141.02" xlink:href="#m91b4c6bddf" y="1318.964312"/>
     <use style="fill:#1f77b4;" x="141.02" xlink:href="#m91b4c6bddf" y="1374.176237"/>
     <use style="fill:#1f77b4;" x="141.02" xlink:href="#m91b4c6bddf" y="1577.910828"/>
     <use style="fill:#1f77b4;" x="141.02" xlink:href="#m91b4c6bddf" y="1318.591115"/>
     <use style="fill:#1f77b4;" x="141.02" xlink:href="#m91b4c6bddf" y="1909.469794"/>
     <use style="fill:#1f77b4;" x="141.02" xlink:href="#m91b4c6bddf" y="1929.664343"/>
     <use style="fill:#1f77b4;" x="141.02" xlink:href="#m91b4c6bddf" y="1425.320532"/>
     <use style="fill:#1f77b4;" x="141.02" xlink:href="#m91b4c6bddf" y="1612.55483"/>
     <use style="fill:#1f77b4;" x="141.02" xlink:href="#m91b4c6bddf" y="1429.623018"/>
     <use style="fill:#1f77b4;" x="141.02" xlink:href="#m91b4c6bddf" y="1585.411963"/>
     <use style="fill:#1f77b4;" x="141.02" xlink:href="#m91b4c6bddf" y="1357.49221"/>
     <use style="fill:#1f77b4;" x="141.02" xlink:href="#m91b4c6bddf" y="1302.614597"/>
     <use style="fill:#1f77b4;" x="141.02" xlink:href="#m91b4c6bddf" y="1058.321368"/>
     <use style="fill:#1f77b4;" x="141.02" xlink:href="#m91b4c6bddf" y="1653.342339"/>
     <use style="fill:#1f77b4;" x="141.02" xlink:href="#m91b4c6bddf" y="1260.160766"/>
     <use style="fill:#1f77b4;" x="141.02" xlink:href="#m91b4c6bddf" y="1389.250383"/>
     <use style="fill:#1f77b4;" x="141.02" xlink:href="#m91b4c6bddf" y="1430.531121"/>
     <use style="fill:#1f77b4;" x="141.02" xlink:href="#m91b4c6bddf" y="1583.213696"/>
     <use style="fill:#1f77b4;" x="141.02" xlink:href="#m91b4c6bddf" y="1538.855667"/>
     <use style="fill:#1f77b4;" x="141.02" xlink:href="#m91b4c6bddf" y="1268.765668"/>
     <use style="fill:#1f77b4;" x="141.02" xlink:href="#m91b4c6bddf" y="1663.916313"/>
     <use style="fill:#1f77b4;" x="141.02" xlink:href="#m91b4c6bddf" y="1491.123991"/>
     <use style="fill:#1f77b4;" x="141.02" xlink:href="#m91b4c6bddf" y="1469.261369"/>
     <use style="fill:#1f77b4;" x="141.02" xlink:href="#m91b4c6bddf" y="1584.156524"/>
     <use style="fill:#1f77b4;" x="141.02" xlink:href="#m91b4c6bddf" y="1677.819549"/>
     <use style="fill:#1f77b4;" x="141.02" xlink:href="#m91b4c6bddf" y="1644.79046"/>
     <use style="fill:#1f77b4;" x="141.02" xlink:href="#m91b4c6bddf" y="1365.720584"/>
     <use style="fill:#1f77b4;" x="141.02" xlink:href="#m91b4c6bddf" y="1818.661361"/>
     <use style="fill:#1f77b4;" x="141.02" xlink:href="#m91b4c6bddf" y="1635.340077"/>
     <use style="fill:#1f77b4;" x="141.02" xlink:href="#m91b4c6bddf" y="1729.494709"/>
     <use style="fill:#1f77b4;" x="141.02" xlink:href="#m91b4c6bddf" y="1430.007954"/>
     <use style="fill:#1f77b4;" x="141.02" xlink:href="#m91b4c6bddf" y="1530.551595"/>
     <use style="fill:#1f77b4;" x="141.02" xlink:href="#m91b4c6bddf" y="1322.261436"/>
     <use style="fill:#1f77b4;" x="141.02" xlink:href="#m91b4c6bddf" y="1492.372902"/>
     <use style="fill:#1f77b4;" x="141.02" xlink:href="#m91b4c6bddf" y="1773.457703"/>
     <use style="fill:#1f77b4;" x="141.02" xlink:href="#m91b4c6bddf" y="1486.78811"/>
     <use style="fill:#1f77b4;" x="141.02" xlink:href="#m91b4c6bddf" y="1501.437493"/>
     <use style="fill:#1f77b4;" x="141.02" xlink:href="#m91b4c6bddf" y="1366.836243"/>
     <use style="fill:#1f77b4;" x="141.02" xlink:href="#m91b4c6bddf" y="1449.342577"/>
     <use style="fill:#1f77b4;" x="141.02" xlink:href="#m91b4c6bddf" y="1488.466193"/>
     <use style="fill:#1f77b4;" x="141.02" xlink:href="#m91b4c6bddf" y="1731.247748"/>
     <use style="fill:#1f77b4;" x="141.02" xlink:href="#m91b4c6bddf" y="1775.1352"/>
     <use style="fill:#1f77b4;" x="141.02" xlink:href="#m91b4c6bddf" y="1612.677822"/>
     <use style="fill:#1f77b4;" x="141.02" xlink:href="#m91b4c6bddf" y="1544.268034"/>
     <use style="fill:#1f77b4;" x="141.02" xlink:href="#m91b4c6bddf" y="1712.005621"/>
     <use style="fill:#1f77b4;" x="141.02" xlink:href="#m91b4c6bddf" y="1496.766903"/>
     <use style="fill:#1f77b4;" x="141.02" xlink:href="#m91b4c6bddf" y="1862.942882"/>
     <use style="fill:#1f77b4;" x="141.02" xlink:href="#m91b4c6bddf" y="1685.506246"/>
    </g>
   </g>
   <g id="line2d_103">
    <path clip-path="url(#pc0a4fb2bce)" d="M 141.02 287.25 
L 141.02 15.45 
" style="fill:none;stroke:#000000;stroke-dasharray:6.4,1.6,1,1.6;stroke-dashoffset:0;"/>
   </g>
   <g id="line2d_104">
    <path clip-path="url(#pc0a4fb2bce)" d="M -1 328.421855 
L 461.669427 46.715873 
L 484.066051 33.079219 
L 497.167238 25.102287 
L 506.462679 19.442563 
L 513.672783 15.052539 
L 519.563867 11.465629 
L 524.544708 8.43294 
L 528.859308 5.805905 
L 532.665056 3.488696 
L 533.78 2.809839 
" style="fill:none;stroke:#ff0000;stroke-dasharray:3.7,1.6;stroke-dashoffset:0;"/>
   </g>
   <g id="patch_3">
    <path d="M 66.62 287.25 
L 66.62 15.45 
" style="fill:none;"/>
   </g>
   <g id="patch_4">
    <path d="M 513.02 287.25 
L 513.02 15.45 
" style="fill:none;"/>
   </g>
   <g id="patch_5">
    <path d="M 66.62 287.25 
L 513.02 287.25 
" style="fill:none;"/>
   </g>
   <g id="patch_6">
    <path d="M 66.62 15.45 
L 513.02 15.45 
" style="fill:none;"/>
   </g>
   <g id="legend_1">
    <g id="line2d_105">
     <path d="M 384.36 244.049062 
L 412.36 244.049062 
" style="fill:none;stroke:#000000;stroke-dasharray:6.4,1.6,1,1.6;stroke-dashoffset:0;"/>
    </g>
    <g id="line2d_106"/>
    <g id="text_9">
     <!-- $1/N_{bootstraps}$ -->
     <defs>
      <path d="M 12.40625 8.296875 
L 28.515625 8.296875 
L 28.515625 63.921875 
L 10.984375 60.40625 
L 10.984375 69.390625 
L 28.421875 72.90625 
L 38.28125 72.90625 
L 38.28125 8.296875 
L 54.390625 8.296875 
L 54.390625 0 
L 12.40625 0 
z
" id="DejaVuSans-31"/>
      <path d="M 25.390625 72.90625 
L 33.6875 72.90625 
L 8.296875 -9.28125 
L 0 -9.28125 
z
" id="DejaVuSans-2f"/>
      <path d="M 16.890625 72.90625 
L 30.171875 72.90625 
L 50.296875 10.40625 
L 62.5 72.90625 
L 72.125 72.90625 
L 57.90625 0 
L 44.578125 0 
L 24.515625 62.890625 
L 12.3125 0 
L 2.6875 0 
z
" id="DejaVuSans-Oblique-4e"/>
      <path d="M 49.515625 33.40625 
Q 49.515625 40.484375 46.265625 44.484375 
Q 43.015625 48.484375 37.3125 48.484375 
Q 33.15625 48.484375 29.515625 46.453125 
Q 25.875 44.4375 23.1875 40.578125 
Q 20.359375 36.53125 18.71875 31.171875 
Q 17.09375 25.828125 17.09375 20.515625 
Q 17.09375 13.765625 20.28125 9.9375 
Q 23.484375 6.109375 29.109375 6.109375 
Q 33.34375 6.109375 36.953125 8.078125 
Q 40.578125 10.0625 43.3125 13.921875 
Q 46.09375 17.921875 47.796875 23.234375 
Q 49.515625 28.5625 49.515625 33.40625 
z
M 21.578125 46.390625 
Q 24.90625 50.875 29.90625 53.4375 
Q 34.90625 56 40.375 56 
Q 48.78125 56 53.734375 50.328125 
Q 58.6875 44.671875 58.6875 35.015625 
Q 58.6875 27.09375 55.78125 19.671875 
Q 52.875 12.25 47.515625 6.5 
Q 44 2.6875 39.40625 0.625 
Q 34.8125 -1.421875 29.78125 -1.421875 
Q 24.46875 -1.421875 20.5625 1.015625 
Q 16.65625 3.46875 14.203125 8.296875 
L 12.59375 0 
L 3.609375 0 
L 18.40625 75.984375 
L 27.390625 75.984375 
z
" id="DejaVuSans-Oblique-62"/>
      <path d="M 25.390625 -1.421875 
Q 15.765625 -1.421875 10.171875 4.515625 
Q 4.59375 10.453125 4.59375 20.703125 
Q 4.59375 26.65625 6.515625 32.828125 
Q 8.453125 39.015625 11.53125 43.21875 
Q 16.359375 49.75 22.3125 52.875 
Q 28.265625 56 35.796875 56 
Q 45.125 56 50.859375 50.1875 
Q 56.59375 44.390625 56.59375 35.015625 
Q 56.59375 28.515625 54.6875 22.0625 
Q 52.78125 15.625 49.703125 11.375 
Q 44.921875 4.828125 38.96875 1.703125 
Q 33.015625 -1.421875 25.390625 -1.421875 
z
M 13.921875 21 
Q 13.921875 13.578125 17.015625 9.890625 
Q 20.125 6.203125 26.421875 6.203125 
Q 35.453125 6.203125 41.375 14.078125 
Q 47.3125 21.96875 47.3125 34.078125 
Q 47.3125 41.15625 44.140625 44.765625 
Q 40.96875 48.390625 34.8125 48.390625 
Q 29.734375 48.390625 25.78125 46.015625 
Q 21.828125 43.65625 18.703125 38.8125 
Q 16.40625 35.203125 15.15625 30.5625 
Q 13.921875 25.921875 13.921875 21 
z
" id="DejaVuSans-Oblique-6f"/>
      <path d="M 42.28125 54.6875 
L 40.921875 47.703125 
L 23 47.703125 
L 17.1875 18.015625 
Q 16.890625 16.359375 16.75 15.234375 
Q 16.609375 14.109375 16.609375 13.484375 
Q 16.609375 10.359375 18.484375 8.9375 
Q 20.359375 7.515625 24.515625 7.515625 
L 33.59375 7.515625 
L 32.078125 0 
L 23.484375 0 
Q 15.484375 0 11.546875 3.125 
Q 7.625 6.25 7.625 12.59375 
Q 7.625 13.71875 7.765625 15.0625 
Q 7.90625 16.40625 8.203125 18.015625 
L 14.015625 47.703125 
L 6.390625 47.703125 
L 7.8125 54.6875 
L 15.28125 54.6875 
L 18.3125 70.21875 
L 27.296875 70.21875 
L 24.3125 54.6875 
z
" id="DejaVuSans-Oblique-74"/>
      <path d="M 50 53.078125 
L 48.296875 44.578125 
Q 44.734375 46.53125 40.765625 47.5 
Q 36.8125 48.484375 32.625 48.484375 
Q 25.53125 48.484375 21.453125 46.0625 
Q 17.390625 43.65625 17.390625 39.5 
Q 17.390625 34.671875 26.859375 32.078125 
Q 27.59375 31.890625 27.9375 31.78125 
L 30.8125 30.90625 
Q 39.796875 28.421875 42.796875 25.6875 
Q 45.796875 22.953125 45.796875 18.21875 
Q 45.796875 9.515625 38.890625 4.046875 
Q 31.984375 -1.421875 20.796875 -1.421875 
Q 16.453125 -1.421875 11.671875 -0.578125 
Q 6.890625 0.25 1.125 2 
L 2.875 11.28125 
Q 7.8125 8.734375 12.59375 7.421875 
Q 17.390625 6.109375 21.78125 6.109375 
Q 28.375 6.109375 32.5 8.9375 
Q 36.625 11.765625 36.625 16.109375 
Q 36.625 20.796875 25.78125 23.6875 
L 24.859375 23.921875 
L 21.78125 24.703125 
Q 14.9375 26.515625 11.765625 29.46875 
Q 8.59375 32.421875 8.59375 37.015625 
Q 8.59375 45.75 15.15625 50.875 
Q 21.734375 56 33.015625 56 
Q 37.453125 56 41.671875 55.265625 
Q 45.90625 54.546875 50 53.078125 
z
" id="DejaVuSans-Oblique-73"/>
      <path d="M 44.578125 46.390625 
Q 43.21875 47.125 41.453125 47.515625 
Q 39.703125 47.90625 37.703125 47.90625 
Q 30.515625 47.90625 25.140625 42.453125 
Q 19.78125 37.015625 18.015625 27.875 
L 12.5 0 
L 3.515625 0 
L 14.203125 54.6875 
L 23.1875 54.6875 
L 21.484375 46.1875 
Q 25.046875 50.921875 30 53.453125 
Q 34.96875 56 40.578125 56 
Q 42.046875 56 43.453125 55.828125 
Q 44.875 55.671875 46.296875 55.28125 
z
" id="DejaVuSans-Oblique-72"/>
      <path d="M 53.71875 31.203125 
L 47.609375 0 
L 38.625 0 
L 40.28125 8.296875 
Q 36.328125 3.421875 31.265625 1 
Q 26.21875 -1.421875 20.015625 -1.421875 
Q 13.03125 -1.421875 8.5625 2.84375 
Q 4.109375 7.125 4.109375 13.8125 
Q 4.109375 23.390625 11.75 28.953125 
Q 19.390625 34.515625 32.8125 34.515625 
L 45.3125 34.515625 
L 45.796875 36.921875 
Q 45.90625 37.3125 45.953125 37.765625 
Q 46 38.234375 46 39.203125 
Q 46 43.5625 42.453125 45.96875 
Q 38.921875 48.390625 32.515625 48.390625 
Q 28.125 48.390625 23.5 47.265625 
Q 18.890625 46.140625 14.015625 43.890625 
L 15.578125 52.203125 
Q 20.65625 54.109375 25.515625 55.046875 
Q 30.375 56 34.90625 56 
Q 44.578125 56 49.625 51.796875 
Q 54.6875 47.609375 54.6875 39.59375 
Q 54.6875 37.984375 54.4375 35.8125 
Q 54.203125 33.640625 53.71875 31.203125 
z
M 44 27.484375 
L 35.015625 27.484375 
Q 23.96875 27.484375 18.671875 24.53125 
Q 13.375 21.578125 13.375 15.375 
Q 13.375 11.078125 16.078125 8.640625 
Q 18.796875 6.203125 23.578125 6.203125 
Q 30.90625 6.203125 36.375 11.453125 
Q 41.84375 16.703125 43.609375 25.484375 
z
" id="DejaVuSans-Oblique-61"/>
     </defs>
     <g style="fill:#262626;" transform="translate(423.56 248.949062)scale(0.14 -0.14)">
      <use transform="translate(0 0.09375)" xlink:href="#DejaVuSans-31"/>
      <use transform="translate(63.623047 0.09375)" xlink:href="#DejaVuSans-2f"/>
      <use transform="translate(97.314453 0.09375)" xlink:href="#DejaVuSans-Oblique-4e"/>
      <use transform="translate(172.119141 -16.3125)scale(0.7)" xlink:href="#DejaVuSans-Oblique-62"/>
      <use transform="translate(216.552734 -16.3125)scale(0.7)" xlink:href="#DejaVuSans-Oblique-6f"/>
      <use transform="translate(259.379883 -16.3125)scale(0.7)" xlink:href="#DejaVuSans-Oblique-6f"/>
      <use transform="translate(302.207031 -16.3125)scale(0.7)" xlink:href="#DejaVuSans-Oblique-74"/>
      <use transform="translate(329.65332 -16.3125)scale(0.7)" xlink:href="#DejaVuSans-Oblique-73"/>
      <use transform="translate(366.123047 -16.3125)scale(0.7)" xlink:href="#DejaVuSans-Oblique-74"/>
      <use transform="translate(393.569336 -16.3125)scale(0.7)" xlink:href="#DejaVuSans-Oblique-72"/>
      <use transform="translate(422.348633 -16.3125)scale(0.7)" xlink:href="#DejaVuSans-Oblique-61"/>
      <use transform="translate(465.244141 -16.3125)scale(0.7)" xlink:href="#DejaVuSans-Oblique-70"/>
      <use transform="translate(509.677734 -16.3125)scale(0.7)" xlink:href="#DejaVuSans-Oblique-73"/>
     </g>
    </g>
    <g id="line2d_107">
     <path d="M 384.36 265.41 
L 412.36 265.41 
" style="fill:none;stroke:#ff0000;stroke-dasharray:3.7,1.6;stroke-dashoffset:0;"/>
    </g>
    <g id="line2d_108"/>
    <g id="text_10">
     <!-- $p_t = p_{btsrp}$ -->
     <defs>
      <path d="M 10.59375 45.40625 
L 73.1875 45.40625 
L 73.1875 37.203125 
L 10.59375 37.203125 
z
M 10.59375 25.484375 
L 73.1875 25.484375 
L 73.1875 17.1875 
L 10.59375 17.1875 
z
" id="DejaVuSans-3d"/>
     </defs>
     <g style="fill:#262626;" transform="translate(423.56 270.31)scale(0.14 -0.14)">
      <use xlink:href="#DejaVuSans-Oblique-70"/>
      <use transform="translate(63.476562 -16.40625)scale(0.7)" xlink:href="#DejaVuSans-Oblique-74"/>
      <use transform="translate(113.139648 0)" xlink:href="#DejaVuSans-3d"/>
      <use transform="translate(216.411133 0)" xlink:href="#DejaVuSans-Oblique-70"/>
      <use transform="translate(279.887695 -16.40625)scale(0.7)" xlink:href="#DejaVuSans-Oblique-62"/>
      <use transform="translate(324.321289 -16.40625)scale(0.7)" xlink:href="#DejaVuSans-Oblique-74"/>
      <use transform="translate(351.767578 -16.40625)scale(0.7)" xlink:href="#DejaVuSans-Oblique-73"/>
      <use transform="translate(388.237305 -16.40625)scale(0.7)" xlink:href="#DejaVuSans-Oblique-72"/>
      <use transform="translate(417.016602 -16.40625)scale(0.7)" xlink:href="#DejaVuSans-Oblique-70"/>
     </g>
    </g>
   </g>
  </g>
 </g>
 <defs>
  <clipPath id="pc0a4fb2bce">
   <rect height="271.8" width="446.4" x="66.62" y="15.45"/>
  </clipPath>
 </defs>
</svg>
