<?xml version="1.0" encoding="utf-8" standalone="no"?>
<!DOCTYPE svg PUBLIC "-//W3C//DTD SVG 1.1//EN"
  "http://www.w3.org/Graphics/SVG/1.1/DTD/svg11.dtd">
<!-- Created with matplotlib (http://matplotlib.org/) -->
<svg height="335pt" version="1.1" viewBox="0 0 519 335" width="519pt" xmlns="http://www.w3.org/2000/svg" xmlns:xlink="http://www.w3.org/1999/xlink">
 <defs>
  <style type="text/css">
*{stroke-linecap:butt;stroke-linejoin:round;}
  </style>
 </defs>
 <g id="figure_1">
  <g id="patch_1">
   <path d="M 0 335.19875 
L 519.6775 335.19875 
L 519.6775 0 
L 0 0 
z
" style="fill:#ffffff;"/>
  </g>
  <g id="axes_1">
   <g id="patch_2">
    <path d="M 66.0775 284.72625 
L 512.4775 284.72625 
L 512.4775 12.92625 
L 66.0775 12.92625 
z
" style="fill:#eaeaf2;"/>
   </g>
   <g id="matplotlib.axis_1">
    <g id="xtick_1">
     <g id="line2d_1"/>
     <g id="text_1">
      <!-- 2 -->
      <defs>
       <path d="M 50.34375 8.453125 
L 50.34375 0 
L 3.03125 0 
Q 2.9375 3.171875 4.046875 6.109375 
Q 5.859375 10.9375 9.828125 15.625 
Q 13.8125 20.3125 21.34375 26.46875 
Q 33.015625 36.03125 37.109375 41.625 
Q 41.21875 47.21875 41.21875 52.203125 
Q 41.21875 57.421875 37.46875 61 
Q 33.734375 64.59375 27.734375 64.59375 
Q 21.390625 64.59375 17.578125 60.78125 
Q 13.765625 56.984375 13.71875 50.25 
L 4.6875 51.171875 
Q 5.609375 61.28125 11.65625 66.578125 
Q 17.71875 71.875 27.9375 71.875 
Q 38.234375 71.875 44.234375 66.15625 
Q 50.25 60.453125 50.25 52 
Q 50.25 47.703125 48.484375 43.546875 
Q 46.734375 39.40625 42.65625 34.8125 
Q 38.578125 30.21875 29.109375 22.21875 
Q 21.1875 15.578125 18.9375 13.203125 
Q 16.703125 10.84375 15.234375 8.453125 
z
" id="ArialMT-32"/>
      </defs>
      <g style="fill:#262626;" transform="translate(117.42875 303.17875)scale(0.16 -0.16)">
       <use xlink:href="#ArialMT-32"/>
      </g>
     </g>
    </g>
    <g id="xtick_2">
     <g id="line2d_2"/>
     <g id="text_2">
      <!-- 3 -->
      <defs>
       <path d="M 4.203125 18.890625 
L 12.984375 20.0625 
Q 14.5 12.59375 18.140625 9.296875 
Q 21.78125 6 27 6 
Q 33.203125 6 37.46875 10.296875 
Q 41.75 14.59375 41.75 20.953125 
Q 41.75 27 37.796875 30.921875 
Q 33.84375 34.859375 27.734375 34.859375 
Q 25.25 34.859375 21.53125 33.890625 
L 22.515625 41.609375 
Q 23.390625 41.5 23.921875 41.5 
Q 29.546875 41.5 34.03125 44.421875 
Q 38.53125 47.359375 38.53125 53.46875 
Q 38.53125 58.296875 35.25 61.46875 
Q 31.984375 64.65625 26.8125 64.65625 
Q 21.6875 64.65625 18.265625 61.421875 
Q 14.84375 58.203125 13.875 51.765625 
L 5.078125 53.328125 
Q 6.6875 62.15625 12.390625 67.015625 
Q 18.109375 71.875 26.609375 71.875 
Q 32.46875 71.875 37.390625 69.359375 
Q 42.328125 66.84375 44.9375 62.5 
Q 47.5625 58.15625 47.5625 53.265625 
Q 47.5625 48.640625 45.0625 44.828125 
Q 42.578125 41.015625 37.703125 38.765625 
Q 44.046875 37.3125 47.5625 32.6875 
Q 51.078125 28.078125 51.078125 21.140625 
Q 51.078125 11.765625 44.234375 5.25 
Q 37.40625 -1.265625 26.953125 -1.265625 
Q 17.53125 -1.265625 11.296875 4.34375 
Q 5.078125 9.96875 4.203125 18.890625 
z
" id="ArialMT-33"/>
      </defs>
      <g style="fill:#262626;" transform="translate(229.02875 303.17875)scale(0.16 -0.16)">
       <use xlink:href="#ArialMT-33"/>
      </g>
     </g>
    </g>
    <g id="xtick_3">
     <g id="line2d_3"/>
     <g id="text_3">
      <!-- 4 -->
      <defs>
       <path d="M 32.328125 0 
L 32.328125 17.140625 
L 1.265625 17.140625 
L 1.265625 25.203125 
L 33.9375 71.578125 
L 41.109375 71.578125 
L 41.109375 25.203125 
L 50.78125 25.203125 
L 50.78125 17.140625 
L 41.109375 17.140625 
L 41.109375 0 
z
M 32.328125 25.203125 
L 32.328125 57.46875 
L 9.90625 25.203125 
z
" id="ArialMT-34"/>
      </defs>
      <g style="fill:#262626;" transform="translate(340.62875 303.17875)scale(0.16 -0.16)">
       <use xlink:href="#ArialMT-34"/>
      </g>
     </g>
    </g>
    <g id="xtick_4">
     <g id="line2d_4"/>
     <g id="text_4">
      <!-- 5 -->
      <defs>
       <path d="M 4.15625 18.75 
L 13.375 19.53125 
Q 14.40625 12.796875 18.140625 9.390625 
Q 21.875 6 27.15625 6 
Q 33.5 6 37.890625 10.78125 
Q 42.28125 15.578125 42.28125 23.484375 
Q 42.28125 31 38.0625 35.34375 
Q 33.84375 39.703125 27 39.703125 
Q 22.75 39.703125 19.328125 37.765625 
Q 15.921875 35.84375 13.96875 32.765625 
L 5.71875 33.84375 
L 12.640625 70.609375 
L 48.25 70.609375 
L 48.25 62.203125 
L 19.671875 62.203125 
L 15.828125 42.96875 
Q 22.265625 47.46875 29.34375 47.46875 
Q 38.71875 47.46875 45.15625 40.96875 
Q 51.609375 34.46875 51.609375 24.265625 
Q 51.609375 14.546875 45.953125 7.46875 
Q 39.0625 -1.21875 27.15625 -1.21875 
Q 17.390625 -1.21875 11.203125 4.25 
Q 5.03125 9.71875 4.15625 18.75 
z
" id="ArialMT-35"/>
      </defs>
      <g style="fill:#262626;" transform="translate(452.22875 303.17875)scale(0.16 -0.16)">
       <use xlink:href="#ArialMT-35"/>
      </g>
     </g>
    </g>
    <g id="text_5">
     <!-- Bootstraps, $10^n$ -->
     <defs>
      <path d="M 7.328125 0 
L 7.328125 71.578125 
L 34.1875 71.578125 
Q 42.390625 71.578125 47.34375 69.40625 
Q 52.296875 67.234375 55.09375 62.71875 
Q 57.90625 58.203125 57.90625 53.265625 
Q 57.90625 48.6875 55.421875 44.625 
Q 52.9375 40.578125 47.90625 38.09375 
Q 54.390625 36.1875 57.875 31.59375 
Q 61.375 27 61.375 20.75 
Q 61.375 15.71875 59.25 11.390625 
Q 57.125 7.078125 54 4.734375 
Q 50.875 2.390625 46.15625 1.1875 
Q 41.453125 0 34.625 0 
z
M 16.796875 41.5 
L 32.28125 41.5 
Q 38.578125 41.5 41.3125 42.328125 
Q 44.921875 43.40625 46.75 45.890625 
Q 48.578125 48.390625 48.578125 52.15625 
Q 48.578125 55.71875 46.875 58.421875 
Q 45.171875 61.140625 41.984375 62.140625 
Q 38.8125 63.140625 31.109375 63.140625 
L 16.796875 63.140625 
z
M 16.796875 8.453125 
L 34.625 8.453125 
Q 39.203125 8.453125 41.0625 8.796875 
Q 44.34375 9.375 46.53125 10.734375 
Q 48.734375 12.109375 50.140625 14.71875 
Q 51.5625 17.328125 51.5625 20.75 
Q 51.5625 24.75 49.515625 27.703125 
Q 47.46875 30.671875 43.828125 31.859375 
Q 40.1875 33.0625 33.34375 33.0625 
L 16.796875 33.0625 
z
" id="ArialMT-42"/>
      <path d="M 3.328125 25.921875 
Q 3.328125 40.328125 11.328125 47.265625 
Q 18.015625 53.03125 27.640625 53.03125 
Q 38.328125 53.03125 45.109375 46.015625 
Q 51.90625 39.015625 51.90625 26.65625 
Q 51.90625 16.65625 48.90625 10.90625 
Q 45.90625 5.171875 40.15625 2 
Q 34.421875 -1.171875 27.640625 -1.171875 
Q 16.75 -1.171875 10.03125 5.8125 
Q 3.328125 12.796875 3.328125 25.921875 
z
M 12.359375 25.921875 
Q 12.359375 15.96875 16.703125 11.015625 
Q 21.046875 6.0625 27.640625 6.0625 
Q 34.1875 6.0625 38.53125 11.03125 
Q 42.875 16.015625 42.875 26.21875 
Q 42.875 35.84375 38.5 40.796875 
Q 34.125 45.75 27.640625 45.75 
Q 21.046875 45.75 16.703125 40.8125 
Q 12.359375 35.890625 12.359375 25.921875 
z
" id="ArialMT-6f"/>
      <path d="M 25.78125 7.859375 
L 27.046875 0.09375 
Q 23.34375 -0.6875 20.40625 -0.6875 
Q 15.625 -0.6875 12.984375 0.828125 
Q 10.359375 2.34375 9.28125 4.8125 
Q 8.203125 7.28125 8.203125 15.1875 
L 8.203125 45.015625 
L 1.765625 45.015625 
L 1.765625 51.859375 
L 8.203125 51.859375 
L 8.203125 64.703125 
L 16.9375 69.96875 
L 16.9375 51.859375 
L 25.78125 51.859375 
L 25.78125 45.015625 
L 16.9375 45.015625 
L 16.9375 14.703125 
Q 16.9375 10.9375 17.40625 9.859375 
Q 17.875 8.796875 18.921875 8.15625 
Q 19.96875 7.515625 21.921875 7.515625 
Q 23.390625 7.515625 25.78125 7.859375 
z
" id="ArialMT-74"/>
      <path d="M 3.078125 15.484375 
L 11.765625 16.84375 
Q 12.5 11.625 15.84375 8.84375 
Q 19.1875 6.0625 25.203125 6.0625 
Q 31.25 6.0625 34.171875 8.515625 
Q 37.109375 10.984375 37.109375 14.3125 
Q 37.109375 17.28125 34.515625 19 
Q 32.71875 20.171875 25.53125 21.96875 
Q 15.875 24.421875 12.140625 26.203125 
Q 8.40625 27.984375 6.46875 31.125 
Q 4.546875 34.28125 4.546875 38.09375 
Q 4.546875 41.546875 6.125 44.5 
Q 7.71875 47.46875 10.453125 49.421875 
Q 12.5 50.921875 16.03125 51.96875 
Q 19.578125 53.03125 23.640625 53.03125 
Q 29.734375 53.03125 34.34375 51.265625 
Q 38.96875 49.515625 41.15625 46.5 
Q 43.359375 43.5 44.1875 38.484375 
L 35.59375 37.3125 
Q 35.015625 41.3125 32.203125 43.546875 
Q 29.390625 45.796875 24.265625 45.796875 
Q 18.21875 45.796875 15.625 43.796875 
Q 13.03125 41.796875 13.03125 39.109375 
Q 13.03125 37.40625 14.109375 36.03125 
Q 15.1875 34.625 17.484375 33.6875 
Q 18.796875 33.203125 25.25 31.453125 
Q 34.578125 28.953125 38.25 27.359375 
Q 41.9375 25.78125 44.03125 22.75 
Q 46.140625 19.734375 46.140625 15.234375 
Q 46.140625 10.84375 43.578125 6.953125 
Q 41.015625 3.078125 36.171875 0.953125 
Q 31.34375 -1.171875 25.25 -1.171875 
Q 15.140625 -1.171875 9.84375 3.03125 
Q 4.546875 7.234375 3.078125 15.484375 
z
" id="ArialMT-73"/>
      <path d="M 6.5 0 
L 6.5 51.859375 
L 14.40625 51.859375 
L 14.40625 44 
Q 17.4375 49.515625 20 51.265625 
Q 22.5625 53.03125 25.640625 53.03125 
Q 30.078125 53.03125 34.671875 50.203125 
L 31.640625 42.046875 
Q 28.421875 43.953125 25.203125 43.953125 
Q 22.3125 43.953125 20.015625 42.21875 
Q 17.71875 40.484375 16.75 37.40625 
Q 15.28125 32.71875 15.28125 27.15625 
L 15.28125 0 
z
" id="ArialMT-72"/>
      <path d="M 40.4375 6.390625 
Q 35.546875 2.25 31.03125 0.53125 
Q 26.515625 -1.171875 21.34375 -1.171875 
Q 12.796875 -1.171875 8.203125 3 
Q 3.609375 7.171875 3.609375 13.671875 
Q 3.609375 17.484375 5.34375 20.625 
Q 7.078125 23.78125 9.890625 25.6875 
Q 12.703125 27.59375 16.21875 28.5625 
Q 18.796875 29.25 24.03125 29.890625 
Q 34.671875 31.15625 39.703125 32.90625 
Q 39.75 34.71875 39.75 35.203125 
Q 39.75 40.578125 37.25 42.78125 
Q 33.890625 45.75 27.25 45.75 
Q 21.046875 45.75 18.09375 43.578125 
Q 15.140625 41.40625 13.71875 35.890625 
L 5.125 37.0625 
Q 6.296875 42.578125 8.984375 45.96875 
Q 11.671875 49.359375 16.75 51.1875 
Q 21.828125 53.03125 28.515625 53.03125 
Q 35.15625 53.03125 39.296875 51.46875 
Q 43.453125 49.90625 45.40625 47.53125 
Q 47.359375 45.171875 48.140625 41.546875 
Q 48.578125 39.3125 48.578125 33.453125 
L 48.578125 21.734375 
Q 48.578125 9.46875 49.140625 6.21875 
Q 49.703125 2.984375 51.375 0 
L 42.1875 0 
Q 40.828125 2.734375 40.4375 6.390625 
z
M 39.703125 26.03125 
Q 34.90625 24.078125 25.34375 22.703125 
Q 19.921875 21.921875 17.671875 20.9375 
Q 15.4375 19.96875 14.203125 18.09375 
Q 12.984375 16.21875 12.984375 13.921875 
Q 12.984375 10.40625 15.640625 8.0625 
Q 18.3125 5.71875 23.4375 5.71875 
Q 28.515625 5.71875 32.46875 7.9375 
Q 36.421875 10.15625 38.28125 14.015625 
Q 39.703125 17 39.703125 22.796875 
z
" id="ArialMT-61"/>
      <path d="M 6.59375 -19.875 
L 6.59375 51.859375 
L 14.59375 51.859375 
L 14.59375 45.125 
Q 17.4375 49.078125 21 51.046875 
Q 24.5625 53.03125 29.640625 53.03125 
Q 36.28125 53.03125 41.359375 49.609375 
Q 46.4375 46.1875 49.015625 39.953125 
Q 51.609375 33.734375 51.609375 26.3125 
Q 51.609375 18.359375 48.75 11.984375 
Q 45.90625 5.609375 40.453125 2.21875 
Q 35.015625 -1.171875 29 -1.171875 
Q 24.609375 -1.171875 21.109375 0.6875 
Q 17.625 2.546875 15.375 5.375 
L 15.375 -19.875 
z
M 14.546875 25.640625 
Q 14.546875 15.625 18.59375 10.84375 
Q 22.65625 6.0625 28.421875 6.0625 
Q 34.28125 6.0625 38.453125 11.015625 
Q 42.625 15.96875 42.625 26.375 
Q 42.625 36.28125 38.546875 41.203125 
Q 34.46875 46.140625 28.8125 46.140625 
Q 23.1875 46.140625 18.859375 40.890625 
Q 14.546875 35.640625 14.546875 25.640625 
z
" id="ArialMT-70"/>
      <path d="M 8.890625 0 
L 8.890625 10.015625 
L 18.890625 10.015625 
L 18.890625 0 
Q 18.890625 -5.515625 16.9375 -8.90625 
Q 14.984375 -12.3125 10.75 -14.15625 
L 8.296875 -10.40625 
Q 11.078125 -9.1875 12.390625 -6.8125 
Q 13.71875 -4.4375 13.875 0 
z
" id="ArialMT-2c"/>
      <path id="ArialMT-20"/>
      <path d="M 12.40625 8.296875 
L 28.515625 8.296875 
L 28.515625 63.921875 
L 10.984375 60.40625 
L 10.984375 69.390625 
L 28.421875 72.90625 
L 38.28125 72.90625 
L 38.28125 8.296875 
L 54.390625 8.296875 
L 54.390625 0 
L 12.40625 0 
z
" id="DejaVuSans-31"/>
      <path d="M 31.78125 66.40625 
Q 24.171875 66.40625 20.328125 58.90625 
Q 16.5 51.421875 16.5 36.375 
Q 16.5 21.390625 20.328125 13.890625 
Q 24.171875 6.390625 31.78125 6.390625 
Q 39.453125 6.390625 43.28125 13.890625 
Q 47.125 21.390625 47.125 36.375 
Q 47.125 51.421875 43.28125 58.90625 
Q 39.453125 66.40625 31.78125 66.40625 
z
M 31.78125 74.21875 
Q 44.046875 74.21875 50.515625 64.515625 
Q 56.984375 54.828125 56.984375 36.375 
Q 56.984375 17.96875 50.515625 8.265625 
Q 44.046875 -1.421875 31.78125 -1.421875 
Q 19.53125 -1.421875 13.0625 8.265625 
Q 6.59375 17.96875 6.59375 36.375 
Q 6.59375 54.828125 13.0625 64.515625 
Q 19.53125 74.21875 31.78125 74.21875 
z
" id="DejaVuSans-30"/>
      <path d="M 55.71875 33.015625 
L 49.3125 0 
L 40.28125 0 
L 46.6875 32.671875 
Q 47.125 34.96875 47.359375 36.71875 
Q 47.609375 38.484375 47.609375 39.5 
Q 47.609375 43.609375 45.015625 45.890625 
Q 42.4375 48.1875 37.796875 48.1875 
Q 30.5625 48.1875 25.34375 43.375 
Q 20.125 38.578125 18.5 30.328125 
L 12.5 0 
L 3.515625 0 
L 14.109375 54.6875 
L 23.09375 54.6875 
L 21.296875 46.09375 
Q 25.046875 50.828125 30.3125 53.40625 
Q 35.59375 56 41.40625 56 
Q 48.640625 56 52.609375 52.09375 
Q 56.59375 48.1875 56.59375 41.109375 
Q 56.59375 39.359375 56.375 37.359375 
Q 56.15625 35.359375 55.71875 33.015625 
z
" id="DejaVuSans-Oblique-6e"/>
     </defs>
     <g style="fill:#262626;" transform="translate(225.4675 324.39875)scale(0.18 -0.18)">
      <use transform="translate(0 0.51875)" xlink:href="#ArialMT-42"/>
      <use transform="translate(66.699219 0.51875)" xlink:href="#ArialMT-6f"/>
      <use transform="translate(122.314453 0.51875)" xlink:href="#ArialMT-6f"/>
      <use transform="translate(177.929688 0.51875)" xlink:href="#ArialMT-74"/>
      <use transform="translate(205.712891 0.51875)" xlink:href="#ArialMT-73"/>
      <use transform="translate(255.712891 0.51875)" xlink:href="#ArialMT-74"/>
      <use transform="translate(283.496094 0.51875)" xlink:href="#ArialMT-72"/>
      <use transform="translate(316.796875 0.51875)" xlink:href="#ArialMT-61"/>
      <use transform="translate(372.412109 0.51875)" xlink:href="#ArialMT-70"/>
      <use transform="translate(428.027344 0.51875)" xlink:href="#ArialMT-73"/>
      <use transform="translate(478.027344 0.51875)" xlink:href="#ArialMT-2c"/>
      <use transform="translate(505.810547 0.51875)" xlink:href="#ArialMT-20"/>
      <use transform="translate(533.59375 0.51875)" xlink:href="#DejaVuSans-31"/>
      <use transform="translate(597.216797 0.51875)" xlink:href="#DejaVuSans-30"/>
      <use transform="translate(661.796875 38.8)scale(0.7)" xlink:href="#DejaVuSans-Oblique-6e"/>
     </g>
    </g>
   </g>
   <g id="matplotlib.axis_2">
    <g id="ytick_1">
     <g id="line2d_5"/>
     <g id="text_6">
      <!-- 0.00 -->
      <defs>
       <path d="M 4.15625 35.296875 
Q 4.15625 48 6.765625 55.734375 
Q 9.375 63.484375 14.515625 67.671875 
Q 19.671875 71.875 27.484375 71.875 
Q 33.25 71.875 37.59375 69.546875 
Q 41.9375 67.234375 44.765625 62.859375 
Q 47.609375 58.5 49.21875 52.21875 
Q 50.828125 45.953125 50.828125 35.296875 
Q 50.828125 22.703125 48.234375 14.96875 
Q 45.65625 7.234375 40.5 3 
Q 35.359375 -1.21875 27.484375 -1.21875 
Q 17.140625 -1.21875 11.234375 6.203125 
Q 4.15625 15.140625 4.15625 35.296875 
z
M 13.1875 35.296875 
Q 13.1875 17.671875 17.3125 11.828125 
Q 21.4375 6 27.484375 6 
Q 33.546875 6 37.671875 11.859375 
Q 41.796875 17.71875 41.796875 35.296875 
Q 41.796875 52.984375 37.671875 58.78125 
Q 33.546875 64.59375 27.390625 64.59375 
Q 21.34375 64.59375 17.71875 59.46875 
Q 13.1875 52.9375 13.1875 35.296875 
z
" id="ArialMT-30"/>
       <path d="M 9.078125 0 
L 9.078125 10.015625 
L 19.09375 10.015625 
L 19.09375 0 
z
" id="ArialMT-2e"/>
      </defs>
      <g style="fill:#262626;" transform="translate(27.94 290.4525)scale(0.16 -0.16)">
       <use xlink:href="#ArialMT-30"/>
       <use x="55.615234" xlink:href="#ArialMT-2e"/>
       <use x="83.398438" xlink:href="#ArialMT-30"/>
       <use x="139.013672" xlink:href="#ArialMT-30"/>
      </g>
     </g>
    </g>
    <g id="ytick_2">
     <g id="line2d_6"/>
     <g id="text_7">
      <!-- 0.05 -->
      <g style="fill:#262626;" transform="translate(27.94 154.5525)scale(0.16 -0.16)">
       <use xlink:href="#ArialMT-30"/>
       <use x="55.615234" xlink:href="#ArialMT-2e"/>
       <use x="83.398438" xlink:href="#ArialMT-30"/>
       <use x="139.013672" xlink:href="#ArialMT-35"/>
      </g>
     </g>
    </g>
    <g id="ytick_3">
     <g id="line2d_7"/>
     <g id="text_8">
      <!-- 0.10 -->
      <defs>
       <path d="M 37.25 0 
L 28.46875 0 
L 28.46875 56 
Q 25.296875 52.984375 20.140625 49.953125 
Q 14.984375 46.921875 10.890625 45.40625 
L 10.890625 53.90625 
Q 18.265625 57.375 23.78125 62.296875 
Q 29.296875 67.234375 31.59375 71.875 
L 37.25 71.875 
z
" id="ArialMT-31"/>
      </defs>
      <g style="fill:#262626;" transform="translate(27.94 18.6525)scale(0.16 -0.16)">
       <use xlink:href="#ArialMT-30"/>
       <use x="55.615234" xlink:href="#ArialMT-2e"/>
       <use x="83.398438" xlink:href="#ArialMT-31"/>
       <use x="139.013672" xlink:href="#ArialMT-30"/>
      </g>
     </g>
    </g>
    <g id="text_9">
     <!-- $p$-value -->
     <defs>
      <path d="M 49.609375 33.6875 
Q 49.609375 40.875 46.484375 44.671875 
Q 43.359375 48.484375 37.5 48.484375 
Q 33.5 48.484375 29.859375 46.4375 
Q 26.21875 44.390625 23.390625 40.484375 
Q 20.609375 36.625 18.9375 31.15625 
Q 17.28125 25.6875 17.28125 20.3125 
Q 17.28125 13.484375 20.40625 9.796875 
Q 23.53125 6.109375 29.296875 6.109375 
Q 33.546875 6.109375 37.1875 8.109375 
Q 40.828125 10.109375 43.40625 13.921875 
Q 46.1875 17.921875 47.890625 23.34375 
Q 49.609375 28.765625 49.609375 33.6875 
z
M 21.78125 46.390625 
Q 25.390625 51.125 30.296875 53.5625 
Q 35.203125 56 41.21875 56 
Q 49.609375 56 54.25 50.5 
Q 58.890625 45.015625 58.890625 35.109375 
Q 58.890625 27 56 19.65625 
Q 53.125 12.3125 47.703125 6.5 
Q 44.09375 2.640625 39.546875 0.609375 
Q 35.015625 -1.421875 29.984375 -1.421875 
Q 24.171875 -1.421875 20.21875 1 
Q 16.265625 3.421875 14.3125 8.203125 
L 8.6875 -20.796875 
L -0.296875 -20.796875 
L 14.40625 54.6875 
L 23.390625 54.6875 
z
" id="DejaVuSans-Oblique-70"/>
      <path d="M 3.171875 21.484375 
L 3.171875 30.328125 
L 30.171875 30.328125 
L 30.171875 21.484375 
z
" id="ArialMT-2d"/>
      <path d="M 21 0 
L 1.265625 51.859375 
L 10.546875 51.859375 
L 21.6875 20.796875 
Q 23.484375 15.765625 25 10.359375 
Q 26.171875 14.453125 28.265625 20.21875 
L 39.796875 51.859375 
L 48.828125 51.859375 
L 29.203125 0 
z
" id="ArialMT-76"/>
      <path d="M 6.390625 0 
L 6.390625 71.578125 
L 15.1875 71.578125 
L 15.1875 0 
z
" id="ArialMT-6c"/>
      <path d="M 40.578125 0 
L 40.578125 7.625 
Q 34.515625 -1.171875 24.125 -1.171875 
Q 19.53125 -1.171875 15.546875 0.578125 
Q 11.578125 2.34375 9.640625 5 
Q 7.71875 7.671875 6.9375 11.53125 
Q 6.390625 14.109375 6.390625 19.734375 
L 6.390625 51.859375 
L 15.1875 51.859375 
L 15.1875 23.09375 
Q 15.1875 16.21875 15.71875 13.8125 
Q 16.546875 10.359375 19.234375 8.375 
Q 21.921875 6.390625 25.875 6.390625 
Q 29.828125 6.390625 33.296875 8.421875 
Q 36.765625 10.453125 38.203125 13.9375 
Q 39.65625 17.4375 39.65625 24.078125 
L 39.65625 51.859375 
L 48.4375 51.859375 
L 48.4375 0 
z
" id="ArialMT-75"/>
      <path d="M 42.09375 16.703125 
L 51.171875 15.578125 
Q 49.03125 7.625 43.21875 3.21875 
Q 37.40625 -1.171875 28.375 -1.171875 
Q 17 -1.171875 10.328125 5.828125 
Q 3.65625 12.84375 3.65625 25.484375 
Q 3.65625 38.578125 10.390625 45.796875 
Q 17.140625 53.03125 27.875 53.03125 
Q 38.28125 53.03125 44.875 45.953125 
Q 51.46875 38.875 51.46875 26.03125 
Q 51.46875 25.25 51.421875 23.6875 
L 12.75 23.6875 
Q 13.234375 15.140625 17.578125 10.59375 
Q 21.921875 6.0625 28.421875 6.0625 
Q 33.25 6.0625 36.671875 8.59375 
Q 40.09375 11.140625 42.09375 16.703125 
z
M 13.234375 30.90625 
L 42.1875 30.90625 
Q 41.609375 37.453125 38.875 40.71875 
Q 34.671875 45.796875 27.984375 45.796875 
Q 21.921875 45.796875 17.796875 41.75 
Q 13.671875 37.703125 13.234375 30.90625 
z
" id="ArialMT-65"/>
     </defs>
     <g style="fill:#262626;" transform="translate(20.16 179.06625)rotate(-90)scale(0.18 -0.18)">
      <use transform="translate(0 0.421875)" xlink:href="#DejaVuSans-Oblique-70"/>
      <use transform="translate(63.476562 0.421875)" xlink:href="#ArialMT-2d"/>
      <use transform="translate(96.777344 0.421875)" xlink:href="#ArialMT-76"/>
      <use transform="translate(146.777344 0.421875)" xlink:href="#ArialMT-61"/>
      <use transform="translate(202.392578 0.421875)" xlink:href="#ArialMT-6c"/>
      <use transform="translate(224.609375 0.421875)" xlink:href="#ArialMT-75"/>
      <use transform="translate(280.224609 0.421875)" xlink:href="#ArialMT-65"/>
     </g>
    </g>
   </g>
   <g id="line2d_8">
    <path clip-path="url(#pa335e103f6)" d="M 66.0775 148.82625 
L 512.4775 148.82625 
" style="fill:none;opacity:0.5;stroke:#ff0000;stroke-dasharray:3.7,1.6;stroke-dashoffset:0;"/>
   </g>
   <g id="patch_3">
    <path d="M 66.0775 284.72625 
L 66.0775 12.92625 
" style="fill:none;"/>
   </g>
   <g id="patch_4">
    <path d="M 512.4775 284.72625 
L 512.4775 12.92625 
" style="fill:none;"/>
   </g>
   <g id="patch_5">
    <path d="M 66.0775 284.72625 
L 512.4775 284.72625 
" style="fill:none;"/>
   </g>
   <g id="patch_6">
    <path d="M 66.0775 12.92625 
L 512.4775 12.92625 
" style="fill:none;"/>
   </g>
   <g id="PathCollection_1">
    <defs>
     <path d="M 0 2.5 
C 0.663008 2.5 1.29895 2.236584 1.767767 1.767767 
C 2.236584 1.29895 2.5 0.663008 2.5 0 
C 2.5 -0.663008 2.236584 -1.29895 1.767767 -1.767767 
C 1.29895 -2.236584 0.663008 -2.5 0 -2.5 
C -0.663008 -2.5 -1.29895 -2.236584 -1.767767 -1.767767 
C -2.236584 -1.29895 -2.5 -0.663008 -2.5 0 
C -2.5 0.663008 -2.236584 1.29895 -1.767767 1.767767 
C -1.29895 2.236584 -0.663008 2.5 0 2.5 
z
" id="C0_0_2540789364"/>
    </defs>
    <g clip-path="url(#pa335e103f6)">
     <use style="fill:#4c72b0;fill-opacity:0.5;" x="119.493226" xlink:href="#C0_0_2540789364" y="257.54625"/>
    </g>
    <g clip-path="url(#pa335e103f6)">
     <use style="fill:#4c72b0;fill-opacity:0.5;" x="111.403306" xlink:href="#C0_0_2540789364" y="257.54625"/>
    </g>
    <g clip-path="url(#pa335e103f6)">
     <use style="fill:#4c72b0;fill-opacity:0.5;" x="116.312112" xlink:href="#C0_0_2540789364" y="257.54625"/>
    </g>
    <g clip-path="url(#pa335e103f6)">
     <use style="fill:#4c72b0;fill-opacity:0.5;" x="121.33647" xlink:href="#C0_0_2540789364" y="257.54625"/>
    </g>
    <g clip-path="url(#pa335e103f6)">
     <use style="fill:#4c72b0;fill-opacity:0.5;" x="125.95323" xlink:href="#C0_0_2540789364" y="257.54625"/>
    </g>
    <g clip-path="url(#pa335e103f6)">
     <use style="fill:#4c72b0;fill-opacity:0.5;" x="119.75018" xlink:href="#C0_0_2540789364" y="257.54625"/>
    </g>
    <g clip-path="url(#pa335e103f6)">
     <use style="fill:#4c72b0;fill-opacity:0.5;" x="118.364042" xlink:href="#C0_0_2540789364" y="257.54625"/>
    </g>
    <g clip-path="url(#pa335e103f6)">
     <use style="fill:#4c72b0;fill-opacity:0.5;" x="118.901585" xlink:href="#C0_0_2540789364" y="257.54625"/>
    </g>
    <g clip-path="url(#pa335e103f6)">
     <use style="fill:#4c72b0;fill-opacity:0.5;" x="123.532662" xlink:href="#C0_0_2540789364" y="257.54625"/>
    </g>
    <g clip-path="url(#pa335e103f6)">
     <use style="fill:#4c72b0;fill-opacity:0.5;" x="123.896369" xlink:href="#C0_0_2540789364" y="257.54625"/>
    </g>
    <g clip-path="url(#pa335e103f6)">
     <use style="fill:#4c72b0;fill-opacity:0.5;" x="114.510578" xlink:href="#C0_0_2540789364" y="257.54625"/>
    </g>
    <g clip-path="url(#pa335e103f6)">
     <use style="fill:#4c72b0;fill-opacity:0.5;" x="115.098222" xlink:href="#C0_0_2540789364" y="257.54625"/>
    </g>
    <g clip-path="url(#pa335e103f6)">
     <use style="fill:#4c72b0;fill-opacity:0.5;" x="130.77882" xlink:href="#C0_0_2540789364" y="257.54625"/>
    </g>
    <g clip-path="url(#pa335e103f6)">
     <use style="fill:#4c72b0;fill-opacity:0.5;" x="119.791398" xlink:href="#C0_0_2540789364" y="257.54625"/>
    </g>
    <g clip-path="url(#pa335e103f6)">
     <use style="fill:#4c72b0;fill-opacity:0.5;" x="128.405356" xlink:href="#C0_0_2540789364" y="257.54625"/>
    </g>
    <g clip-path="url(#pa335e103f6)">
     <use style="fill:#4c72b0;fill-opacity:0.5;" x="119.982207" xlink:href="#C0_0_2540789364" y="257.54625"/>
    </g>
    <g clip-path="url(#pa335e103f6)">
     <use style="fill:#4c72b0;fill-opacity:0.5;" x="127.217913" xlink:href="#C0_0_2540789364" y="257.54625"/>
    </g>
    <g clip-path="url(#pa335e103f6)">
     <use style="fill:#4c72b0;fill-opacity:0.5;" x="123.38028" xlink:href="#C0_0_2540789364" y="257.54625"/>
    </g>
    <g clip-path="url(#pa335e103f6)">
     <use style="fill:#4c72b0;fill-opacity:0.5;" x="122.304329" xlink:href="#C0_0_2540789364" y="257.54625"/>
    </g>
    <g clip-path="url(#pa335e103f6)">
     <use style="fill:#4c72b0;fill-opacity:0.5;" x="132.540074" xlink:href="#C0_0_2540789364" y="257.54625"/>
    </g>
    <g clip-path="url(#pa335e103f6)">
     <use style="fill:#4c72b0;fill-opacity:0.5;" x="128.137999" xlink:href="#C0_0_2540789364" y="257.54625"/>
    </g>
    <g clip-path="url(#pa335e103f6)">
     <use style="fill:#4c72b0;fill-opacity:0.5;" x="112.196612" xlink:href="#C0_0_2540789364" y="257.54625"/>
    </g>
    <g clip-path="url(#pa335e103f6)">
     <use style="fill:#4c72b0;fill-opacity:0.5;" x="130.901275" xlink:href="#C0_0_2540789364" y="257.54625"/>
    </g>
    <g clip-path="url(#pa335e103f6)">
     <use style="fill:#4c72b0;fill-opacity:0.5;" x="126.358915" xlink:href="#C0_0_2540789364" y="257.54625"/>
    </g>
    <g clip-path="url(#pa335e103f6)">
     <use style="fill:#4c72b0;fill-opacity:0.5;" x="111.40728" xlink:href="#C0_0_2540789364" y="257.54625"/>
    </g>
    <g clip-path="url(#pa335e103f6)">
     <use style="fill:#4c72b0;fill-opacity:0.5;" x="120.213693" xlink:href="#C0_0_2540789364" y="257.54625"/>
    </g>
    <g clip-path="url(#pa335e103f6)">
     <use style="fill:#4c72b0;fill-opacity:0.5;" x="111.839209" xlink:href="#C0_0_2540789364" y="257.54625"/>
    </g>
    <g clip-path="url(#pa335e103f6)">
     <use style="fill:#4c72b0;fill-opacity:0.5;" x="127.995825" xlink:href="#C0_0_2540789364" y="257.54625"/>
    </g>
    <g clip-path="url(#pa335e103f6)">
     <use style="fill:#4c72b0;fill-opacity:0.5;" x="120.419408" xlink:href="#C0_0_2540789364" y="257.54625"/>
    </g>
    <g clip-path="url(#pa335e103f6)">
     <use style="fill:#4c72b0;fill-opacity:0.5;" x="120.655693" xlink:href="#C0_0_2540789364" y="257.54625"/>
    </g>
    <g clip-path="url(#pa335e103f6)">
     <use style="fill:#4c72b0;fill-opacity:0.5;" x="120.854281" xlink:href="#C0_0_2540789364" y="257.54625"/>
    </g>
    <g clip-path="url(#pa335e103f6)">
     <use style="fill:#4c72b0;fill-opacity:0.5;" x="125.03399" xlink:href="#C0_0_2540789364" y="257.54625"/>
    </g>
    <g clip-path="url(#pa335e103f6)">
     <use style="fill:#4c72b0;fill-opacity:0.5;" x="125.307549" xlink:href="#C0_0_2540789364" y="257.54625"/>
    </g>
    <g clip-path="url(#pa335e103f6)">
     <use style="fill:#4c72b0;fill-opacity:0.5;" x="124.478875" xlink:href="#C0_0_2540789364" y="257.54625"/>
    </g>
    <g clip-path="url(#pa335e103f6)">
     <use style="fill:#4c72b0;fill-opacity:0.5;" x="131.567421" xlink:href="#C0_0_2540789364" y="257.54625"/>
    </g>
    <g clip-path="url(#pa335e103f6)">
     <use style="fill:#4c72b0;fill-opacity:0.5;" x="122.307486" xlink:href="#C0_0_2540789364" y="257.54625"/>
    </g>
    <g clip-path="url(#pa335e103f6)">
     <use style="fill:#4c72b0;fill-opacity:0.5;" x="120.253771" xlink:href="#C0_0_2540789364" y="257.54625"/>
    </g>
    <g clip-path="url(#pa335e103f6)">
     <use style="fill:#4c72b0;fill-opacity:0.5;" x="118.638946" xlink:href="#C0_0_2540789364" y="257.54625"/>
    </g>
    <g clip-path="url(#pa335e103f6)">
     <use style="fill:#4c72b0;fill-opacity:0.5;" x="127.303031" xlink:href="#C0_0_2540789364" y="257.54625"/>
    </g>
    <g clip-path="url(#pa335e103f6)">
     <use style="fill:#4c72b0;fill-opacity:0.5;" x="113.359886" xlink:href="#C0_0_2540789364" y="257.54625"/>
    </g>
    <g clip-path="url(#pa335e103f6)">
     <use style="fill:#4c72b0;fill-opacity:0.5;" x="131.770338" xlink:href="#C0_0_2540789364" y="257.54625"/>
    </g>
    <g clip-path="url(#pa335e103f6)">
     <use style="fill:#4c72b0;fill-opacity:0.5;" x="125.872856" xlink:href="#C0_0_2540789364" y="257.54625"/>
    </g>
    <g clip-path="url(#pa335e103f6)">
     <use style="fill:#4c72b0;fill-opacity:0.5;" x="122.054263" xlink:href="#C0_0_2540789364" y="257.54625"/>
    </g>
    <g clip-path="url(#pa335e103f6)">
     <use style="fill:#4c72b0;fill-opacity:0.5;" x="113.96578" xlink:href="#C0_0_2540789364" y="257.54625"/>
    </g>
    <g clip-path="url(#pa335e103f6)">
     <use style="fill:#4c72b0;fill-opacity:0.5;" x="111.931871" xlink:href="#C0_0_2540789364" y="257.54625"/>
    </g>
    <g clip-path="url(#pa335e103f6)">
     <use style="fill:#4c72b0;fill-opacity:0.5;" x="119.093776" xlink:href="#C0_0_2540789364" y="257.54625"/>
    </g>
    <g clip-path="url(#pa335e103f6)">
     <use style="fill:#4c72b0;fill-opacity:0.5;" x="129.531889" xlink:href="#C0_0_2540789364" y="257.54625"/>
    </g>
    <g clip-path="url(#pa335e103f6)">
     <use style="fill:#4c72b0;fill-opacity:0.5;" x="132.801728" xlink:href="#C0_0_2540789364" y="257.54625"/>
    </g>
    <g clip-path="url(#pa335e103f6)">
     <use style="fill:#4c72b0;fill-opacity:0.5;" x="126.93363" xlink:href="#C0_0_2540789364" y="257.54625"/>
    </g>
    <g clip-path="url(#pa335e103f6)">
     <use style="fill:#4c72b0;fill-opacity:0.5;" x="129.20955" xlink:href="#C0_0_2540789364" y="257.54625"/>
    </g>
   </g>
   <g id="PathCollection_2">
    <defs>
     <path d="M 0 2.5 
C 0.663008 2.5 1.29895 2.236584 1.767767 1.767767 
C 2.236584 1.29895 2.5 0.663008 2.5 0 
C 2.5 -0.663008 2.236584 -1.29895 1.767767 -1.767767 
C 1.29895 -2.236584 0.663008 -2.5 0 -2.5 
C -0.663008 -2.5 -1.29895 -2.236584 -1.767767 -1.767767 
C -2.236584 -1.29895 -2.5 -0.663008 -2.5 0 
C -2.5 0.663008 -2.236584 1.29895 -1.767767 1.767767 
C -1.29895 2.236584 -0.663008 2.5 0 2.5 
z
" id="C1_0_87074d1638"/>
    </defs>
    <g clip-path="url(#pa335e103f6)">
     <use style="fill:#55a868;fill-opacity:0.5;" x="239.642918" xlink:href="#C1_0_87074d1638" y="282.00825"/>
    </g>
    <g clip-path="url(#pa335e103f6)">
     <use style="fill:#55a868;fill-opacity:0.5;" x="240.493457" xlink:href="#C1_0_87074d1638" y="282.00825"/>
    </g>
    <g clip-path="url(#pa335e103f6)">
     <use style="fill:#55a868;fill-opacity:0.5;" x="243.111204" xlink:href="#C1_0_87074d1638" y="282.00825"/>
    </g>
    <g clip-path="url(#pa335e103f6)">
     <use style="fill:#55a868;fill-opacity:0.5;" x="241.340979" xlink:href="#C1_0_87074d1638" y="282.00825"/>
    </g>
    <g clip-path="url(#pa335e103f6)">
     <use style="fill:#55a868;fill-opacity:0.5;" x="227.212893" xlink:href="#C1_0_87074d1638" y="282.00825"/>
    </g>
    <g clip-path="url(#pa335e103f6)">
     <use style="fill:#55a868;fill-opacity:0.5;" x="237.242212" xlink:href="#C1_0_87074d1638" y="282.00825"/>
    </g>
    <g clip-path="url(#pa335e103f6)">
     <use style="fill:#55a868;fill-opacity:0.5;" x="226.016694" xlink:href="#C1_0_87074d1638" y="282.00825"/>
    </g>
    <g clip-path="url(#pa335e103f6)">
     <use style="fill:#55a868;fill-opacity:0.5;" x="225.285597" xlink:href="#C1_0_87074d1638" y="282.00825"/>
    </g>
    <g clip-path="url(#pa335e103f6)">
     <use style="fill:#55a868;fill-opacity:0.5;" x="237.697215" xlink:href="#C1_0_87074d1638" y="282.00825"/>
    </g>
    <g clip-path="url(#pa335e103f6)">
     <use style="fill:#55a868;fill-opacity:0.5;" x="229.430544" xlink:href="#C1_0_87074d1638" y="282.00825"/>
    </g>
    <g clip-path="url(#pa335e103f6)">
     <use style="fill:#55a868;fill-opacity:0.5;" x="244.53227" xlink:href="#C1_0_87074d1638" y="282.00825"/>
    </g>
    <g clip-path="url(#pa335e103f6)">
     <use style="fill:#55a868;fill-opacity:0.5;" x="235.178938" xlink:href="#C1_0_87074d1638" y="282.00825"/>
    </g>
    <g clip-path="url(#pa335e103f6)">
     <use style="fill:#55a868;fill-opacity:0.5;" x="226.079677" xlink:href="#C1_0_87074d1638" y="282.00825"/>
    </g>
    <g clip-path="url(#pa335e103f6)">
     <use style="fill:#55a868;fill-opacity:0.5;" x="226.132794" xlink:href="#C1_0_87074d1638" y="282.00825"/>
    </g>
    <g clip-path="url(#pa335e103f6)">
     <use style="fill:#55a868;fill-opacity:0.5;" x="222.989252" xlink:href="#C1_0_87074d1638" y="282.00825"/>
    </g>
    <g clip-path="url(#pa335e103f6)">
     <use style="fill:#55a868;fill-opacity:0.5;" x="226.548093" xlink:href="#C1_0_87074d1638" y="282.00825"/>
    </g>
    <g clip-path="url(#pa335e103f6)">
     <use style="fill:#55a868;fill-opacity:0.5;" x="235.163379" xlink:href="#C1_0_87074d1638" y="282.00825"/>
    </g>
    <g clip-path="url(#pa335e103f6)">
     <use style="fill:#55a868;fill-opacity:0.5;" x="236.240861" xlink:href="#C1_0_87074d1638" y="282.00825"/>
    </g>
    <g clip-path="url(#pa335e103f6)">
     <use style="fill:#55a868;fill-opacity:0.5;" x="228.914474" xlink:href="#C1_0_87074d1638" y="282.00825"/>
    </g>
    <g clip-path="url(#pa335e103f6)">
     <use style="fill:#55a868;fill-opacity:0.5;" x="241.479282" xlink:href="#C1_0_87074d1638" y="282.00825"/>
    </g>
    <g clip-path="url(#pa335e103f6)">
     <use style="fill:#55a868;fill-opacity:0.5;" x="242.700935" xlink:href="#C1_0_87074d1638" y="282.00825"/>
    </g>
    <g clip-path="url(#pa335e103f6)">
     <use style="fill:#55a868;fill-opacity:0.5;" x="243.358479" xlink:href="#C1_0_87074d1638" y="282.00825"/>
    </g>
    <g clip-path="url(#pa335e103f6)">
     <use style="fill:#55a868;fill-opacity:0.5;" x="240.006101" xlink:href="#C1_0_87074d1638" y="282.00825"/>
    </g>
    <g clip-path="url(#pa335e103f6)">
     <use style="fill:#55a868;fill-opacity:0.5;" x="227.897785" xlink:href="#C1_0_87074d1638" y="282.00825"/>
    </g>
    <g clip-path="url(#pa335e103f6)">
     <use style="fill:#55a868;fill-opacity:0.5;" x="225.007242" xlink:href="#C1_0_87074d1638" y="282.00825"/>
    </g>
    <g clip-path="url(#pa335e103f6)">
     <use style="fill:#55a868;fill-opacity:0.5;" x="235.827684" xlink:href="#C1_0_87074d1638" y="282.00825"/>
    </g>
    <g clip-path="url(#pa335e103f6)">
     <use style="fill:#55a868;fill-opacity:0.5;" x="224.562979" xlink:href="#C1_0_87074d1638" y="282.00825"/>
    </g>
    <g clip-path="url(#pa335e103f6)">
     <use style="fill:#55a868;fill-opacity:0.5;" x="243.312867" xlink:href="#C1_0_87074d1638" y="282.00825"/>
    </g>
    <g clip-path="url(#pa335e103f6)">
     <use style="fill:#55a868;fill-opacity:0.5;" x="234.485085" xlink:href="#C1_0_87074d1638" y="282.00825"/>
    </g>
    <g clip-path="url(#pa335e103f6)">
     <use style="fill:#55a868;fill-opacity:0.5;" x="231.930946" xlink:href="#C1_0_87074d1638" y="282.00825"/>
    </g>
    <g clip-path="url(#pa335e103f6)">
     <use style="fill:#55a868;fill-opacity:0.5;" x="231.428489" xlink:href="#C1_0_87074d1638" y="282.00825"/>
    </g>
    <g clip-path="url(#pa335e103f6)">
     <use style="fill:#55a868;fill-opacity:0.5;" x="224.135195" xlink:href="#C1_0_87074d1638" y="282.00825"/>
    </g>
    <g clip-path="url(#pa335e103f6)">
     <use style="fill:#55a868;fill-opacity:0.5;" x="231.634263" xlink:href="#C1_0_87074d1638" y="282.00825"/>
    </g>
    <g clip-path="url(#pa335e103f6)">
     <use style="fill:#55a868;fill-opacity:0.5;" x="243.905382" xlink:href="#C1_0_87074d1638" y="282.00825"/>
    </g>
    <g clip-path="url(#pa335e103f6)">
     <use style="fill:#55a868;fill-opacity:0.5;" x="237.773533" xlink:href="#C1_0_87074d1638" y="282.00825"/>
    </g>
    <g clip-path="url(#pa335e103f6)">
     <use style="fill:#55a868;fill-opacity:0.5;" x="240.846107" xlink:href="#C1_0_87074d1638" y="282.00825"/>
    </g>
    <g clip-path="url(#pa335e103f6)">
     <use style="fill:#55a868;fill-opacity:0.5;" x="238.064654" xlink:href="#C1_0_87074d1638" y="282.00825"/>
    </g>
    <g clip-path="url(#pa335e103f6)">
     <use style="fill:#55a868;fill-opacity:0.5;" x="234.918575" xlink:href="#C1_0_87074d1638" y="282.00825"/>
    </g>
    <g clip-path="url(#pa335e103f6)">
     <use style="fill:#55a868;fill-opacity:0.5;" x="231.093113" xlink:href="#C1_0_87074d1638" y="282.00825"/>
    </g>
    <g clip-path="url(#pa335e103f6)">
     <use style="fill:#55a868;fill-opacity:0.5;" x="236.811948" xlink:href="#C1_0_87074d1638" y="282.00825"/>
    </g>
    <g clip-path="url(#pa335e103f6)">
     <use style="fill:#55a868;fill-opacity:0.5;" x="226.822139" xlink:href="#C1_0_87074d1638" y="282.00825"/>
    </g>
    <g clip-path="url(#pa335e103f6)">
     <use style="fill:#55a868;fill-opacity:0.5;" x="238.610251" xlink:href="#C1_0_87074d1638" y="282.00825"/>
    </g>
    <g clip-path="url(#pa335e103f6)">
     <use style="fill:#55a868;fill-opacity:0.5;" x="230.973601" xlink:href="#C1_0_87074d1638" y="282.00825"/>
    </g>
    <g clip-path="url(#pa335e103f6)">
     <use style="fill:#55a868;fill-opacity:0.5;" x="222.434364" xlink:href="#C1_0_87074d1638" y="282.00825"/>
    </g>
    <g clip-path="url(#pa335e103f6)">
     <use style="fill:#55a868;fill-opacity:0.5;" x="222.917038" xlink:href="#C1_0_87074d1638" y="282.00825"/>
    </g>
    <g clip-path="url(#pa335e103f6)">
     <use style="fill:#55a868;fill-opacity:0.5;" x="231.251695" xlink:href="#C1_0_87074d1638" y="282.00825"/>
    </g>
    <g clip-path="url(#pa335e103f6)">
     <use style="fill:#55a868;fill-opacity:0.5;" x="226.755049" xlink:href="#C1_0_87074d1638" y="282.00825"/>
    </g>
    <g clip-path="url(#pa335e103f6)">
     <use style="fill:#55a868;fill-opacity:0.5;" x="236.300236" xlink:href="#C1_0_87074d1638" y="282.00825"/>
    </g>
    <g clip-path="url(#pa335e103f6)">
     <use style="fill:#55a868;fill-opacity:0.5;" x="228.339437" xlink:href="#C1_0_87074d1638" y="282.00825"/>
    </g>
    <g clip-path="url(#pa335e103f6)">
     <use style="fill:#55a868;fill-opacity:0.5;" x="231.431216" xlink:href="#C1_0_87074d1638" y="282.00825"/>
    </g>
   </g>
   <g id="PathCollection_3">
    <defs>
     <path d="M 0 2.5 
C 0.663008 2.5 1.29895 2.236584 1.767767 1.767767 
C 2.236584 1.29895 2.5 0.663008 2.5 0 
C 2.5 -0.663008 2.236584 -1.29895 1.767767 -1.767767 
C 1.29895 -2.236584 0.663008 -2.5 0 -2.5 
C -0.663008 -2.5 -1.29895 -2.236584 -1.767767 -1.767767 
C -2.236584 -1.29895 -2.5 -0.663008 -2.5 0 
C -2.5 0.663008 -2.236584 1.29895 -1.767767 1.767767 
C -1.29895 2.236584 -0.663008 2.5 0 2.5 
z
" id="C2_0_85d46ee850"/>
    </defs>
    <g clip-path="url(#pa335e103f6)">
     <use style="fill:#c44e52;fill-opacity:0.5;" x="353.193844" xlink:href="#C2_0_85d46ee850" y="284.45445"/>
    </g>
    <g clip-path="url(#pa335e103f6)">
     <use style="fill:#c44e52;fill-opacity:0.5;" x="345.872594" xlink:href="#C2_0_85d46ee850" y="284.45445"/>
    </g>
    <g clip-path="url(#pa335e103f6)">
     <use style="fill:#c44e52;fill-opacity:0.5;" x="339.29369" xlink:href="#C2_0_85d46ee850" y="284.45445"/>
    </g>
    <g clip-path="url(#pa335e103f6)">
     <use style="fill:#c44e52;fill-opacity:0.5;" x="350.8054" xlink:href="#C2_0_85d46ee850" y="284.45445"/>
    </g>
    <g clip-path="url(#pa335e103f6)">
     <use style="fill:#c44e52;fill-opacity:0.5;" x="343.805413" xlink:href="#C2_0_85d46ee850" y="284.45445"/>
    </g>
    <g clip-path="url(#pa335e103f6)">
     <use style="fill:#c44e52;fill-opacity:0.5;" x="351.99862" xlink:href="#C2_0_85d46ee850" y="284.45445"/>
    </g>
    <g clip-path="url(#pa335e103f6)">
     <use style="fill:#c44e52;fill-opacity:0.5;" x="337.192934" xlink:href="#C2_0_85d46ee850" y="284.45445"/>
    </g>
    <g clip-path="url(#pa335e103f6)">
     <use style="fill:#c44e52;fill-opacity:0.5;" x="350.820284" xlink:href="#C2_0_85d46ee850" y="284.45445"/>
    </g>
    <g clip-path="url(#pa335e103f6)">
     <use style="fill:#c44e52;fill-opacity:0.5;" x="335.678346" xlink:href="#C2_0_85d46ee850" y="284.45445"/>
    </g>
    <g clip-path="url(#pa335e103f6)">
     <use style="fill:#c44e52;fill-opacity:0.5;" x="349.016103" xlink:href="#C2_0_85d46ee850" y="284.45445"/>
    </g>
    <g clip-path="url(#pa335e103f6)">
     <use style="fill:#c44e52;fill-opacity:0.5;" x="336.052704" xlink:href="#C2_0_85d46ee850" y="284.45445"/>
    </g>
    <g clip-path="url(#pa335e103f6)">
     <use style="fill:#c44e52;fill-opacity:0.5;" x="349.297578" xlink:href="#C2_0_85d46ee850" y="284.45445"/>
    </g>
    <g clip-path="url(#pa335e103f6)">
     <use style="fill:#c44e52;fill-opacity:0.5;" x="342.316839" xlink:href="#C2_0_85d46ee850" y="284.45445"/>
    </g>
    <g clip-path="url(#pa335e103f6)">
     <use style="fill:#c44e52;fill-opacity:0.5;" x="352.883319" xlink:href="#C2_0_85d46ee850" y="284.45445"/>
    </g>
    <g clip-path="url(#pa335e103f6)">
     <use style="fill:#c44e52;fill-opacity:0.5;" x="335.656303" xlink:href="#C2_0_85d46ee850" y="284.45445"/>
    </g>
    <g clip-path="url(#pa335e103f6)">
     <use style="fill:#c44e52;fill-opacity:0.5;" x="337.66131" xlink:href="#C2_0_85d46ee850" y="284.45445"/>
    </g>
    <g clip-path="url(#pa335e103f6)">
     <use style="fill:#c44e52;fill-opacity:0.5;" x="354.145559" xlink:href="#C2_0_85d46ee850" y="284.45445"/>
    </g>
    <g clip-path="url(#pa335e103f6)">
     <use style="fill:#c44e52;fill-opacity:0.5;" x="351.523313" xlink:href="#C2_0_85d46ee850" y="284.45445"/>
    </g>
    <g clip-path="url(#pa335e103f6)">
     <use style="fill:#c44e52;fill-opacity:0.5;" x="350.436525" xlink:href="#C2_0_85d46ee850" y="284.45445"/>
    </g>
    <g clip-path="url(#pa335e103f6)">
     <use style="fill:#c44e52;fill-opacity:0.5;" x="355.99009" xlink:href="#C2_0_85d46ee850" y="284.45445"/>
    </g>
    <g clip-path="url(#pa335e103f6)">
     <use style="fill:#c44e52;fill-opacity:0.5;" x="353.376444" xlink:href="#C2_0_85d46ee850" y="284.45445"/>
    </g>
    <g clip-path="url(#pa335e103f6)">
     <use style="fill:#c44e52;fill-opacity:0.5;" x="339.62707" xlink:href="#C2_0_85d46ee850" y="284.45445"/>
    </g>
    <g clip-path="url(#pa335e103f6)">
     <use style="fill:#c44e52;fill-opacity:0.5;" x="350.279684" xlink:href="#C2_0_85d46ee850" y="284.45445"/>
    </g>
    <g clip-path="url(#pa335e103f6)">
     <use style="fill:#c44e52;fill-opacity:0.5;" x="341.835313" xlink:href="#C2_0_85d46ee850" y="284.45445"/>
    </g>
    <g clip-path="url(#pa335e103f6)">
     <use style="fill:#c44e52;fill-opacity:0.5;" x="351.889679" xlink:href="#C2_0_85d46ee850" y="284.45445"/>
    </g>
    <g clip-path="url(#pa335e103f6)">
     <use style="fill:#c44e52;fill-opacity:0.5;" x="353.242103" xlink:href="#C2_0_85d46ee850" y="284.45445"/>
    </g>
    <g clip-path="url(#pa335e103f6)">
     <use style="fill:#c44e52;fill-opacity:0.5;" x="344.806818" xlink:href="#C2_0_85d46ee850" y="284.45445"/>
    </g>
    <g clip-path="url(#pa335e103f6)">
     <use style="fill:#c44e52;fill-opacity:0.5;" x="352.148806" xlink:href="#C2_0_85d46ee850" y="284.45445"/>
    </g>
    <g clip-path="url(#pa335e103f6)">
     <use style="fill:#c44e52;fill-opacity:0.5;" x="341.46112" xlink:href="#C2_0_85d46ee850" y="284.45445"/>
    </g>
    <g clip-path="url(#pa335e103f6)">
     <use style="fill:#c44e52;fill-opacity:0.5;" x="350.049539" xlink:href="#C2_0_85d46ee850" y="284.45445"/>
    </g>
    <g clip-path="url(#pa335e103f6)">
     <use style="fill:#c44e52;fill-opacity:0.5;" x="336.520214" xlink:href="#C2_0_85d46ee850" y="284.45445"/>
    </g>
    <g clip-path="url(#pa335e103f6)">
     <use style="fill:#c44e52;fill-opacity:0.5;" x="352.626364" xlink:href="#C2_0_85d46ee850" y="284.45445"/>
    </g>
    <g clip-path="url(#pa335e103f6)">
     <use style="fill:#c44e52;fill-opacity:0.5;" x="354.739006" xlink:href="#C2_0_85d46ee850" y="284.45445"/>
    </g>
    <g clip-path="url(#pa335e103f6)">
     <use style="fill:#c44e52;fill-opacity:0.5;" x="345.796128" xlink:href="#C2_0_85d46ee850" y="284.45445"/>
    </g>
    <g clip-path="url(#pa335e103f6)">
     <use style="fill:#c44e52;fill-opacity:0.5;" x="335.020555" xlink:href="#C2_0_85d46ee850" y="284.45445"/>
    </g>
    <g clip-path="url(#pa335e103f6)">
     <use style="fill:#c44e52;fill-opacity:0.5;" x="343.981286" xlink:href="#C2_0_85d46ee850" y="284.45445"/>
    </g>
    <g clip-path="url(#pa335e103f6)">
     <use style="fill:#c44e52;fill-opacity:0.5;" x="334.046755" xlink:href="#C2_0_85d46ee850" y="284.45445"/>
    </g>
    <g clip-path="url(#pa335e103f6)">
     <use style="fill:#c44e52;fill-opacity:0.5;" x="348.155219" xlink:href="#C2_0_85d46ee850" y="284.45445"/>
    </g>
    <g clip-path="url(#pa335e103f6)">
     <use style="fill:#c44e52;fill-opacity:0.5;" x="353.980967" xlink:href="#C2_0_85d46ee850" y="284.45445"/>
    </g>
    <g clip-path="url(#pa335e103f6)">
     <use style="fill:#c44e52;fill-opacity:0.5;" x="352.000493" xlink:href="#C2_0_85d46ee850" y="284.45445"/>
    </g>
    <g clip-path="url(#pa335e103f6)">
     <use style="fill:#c44e52;fill-opacity:0.5;" x="339.929343" xlink:href="#C2_0_85d46ee850" y="284.45445"/>
    </g>
    <g clip-path="url(#pa335e103f6)">
     <use style="fill:#c44e52;fill-opacity:0.5;" x="341.43642" xlink:href="#C2_0_85d46ee850" y="284.45445"/>
    </g>
    <g clip-path="url(#pa335e103f6)">
     <use style="fill:#c44e52;fill-opacity:0.5;" x="349.30409" xlink:href="#C2_0_85d46ee850" y="284.45445"/>
    </g>
    <g clip-path="url(#pa335e103f6)">
     <use style="fill:#c44e52;fill-opacity:0.5;" x="343.051387" xlink:href="#C2_0_85d46ee850" y="284.45445"/>
    </g>
    <g clip-path="url(#pa335e103f6)">
     <use style="fill:#c44e52;fill-opacity:0.5;" x="353.444523" xlink:href="#C2_0_85d46ee850" y="284.45445"/>
    </g>
    <g clip-path="url(#pa335e103f6)">
     <use style="fill:#c44e52;fill-opacity:0.5;" x="349.841276" xlink:href="#C2_0_85d46ee850" y="284.45445"/>
    </g>
    <g clip-path="url(#pa335e103f6)">
     <use style="fill:#c44e52;fill-opacity:0.5;" x="349.120315" xlink:href="#C2_0_85d46ee850" y="284.45445"/>
    </g>
    <g clip-path="url(#pa335e103f6)">
     <use style="fill:#c44e52;fill-opacity:0.5;" x="354.570405" xlink:href="#C2_0_85d46ee850" y="284.45445"/>
    </g>
    <g clip-path="url(#pa335e103f6)">
     <use style="fill:#c44e52;fill-opacity:0.5;" x="341.087518" xlink:href="#C2_0_85d46ee850" y="284.45445"/>
    </g>
    <g clip-path="url(#pa335e103f6)">
     <use style="fill:#c44e52;fill-opacity:0.5;" x="337.721711" xlink:href="#C2_0_85d46ee850" y="284.45445"/>
    </g>
   </g>
   <g id="PathCollection_4">
    <defs>
     <path d="M 0 2.5 
C 0.663008 2.5 1.29895 2.236584 1.767767 1.767767 
C 2.236584 1.29895 2.5 0.663008 2.5 0 
C 2.5 -0.663008 2.236584 -1.29895 1.767767 -1.767767 
C 1.29895 -2.236584 0.663008 -2.5 0 -2.5 
C -0.663008 -2.5 -1.29895 -2.236584 -1.767767 -1.767767 
C -2.236584 -1.29895 -2.5 -0.663008 -2.5 0 
C -2.5 0.663008 -2.236584 1.29895 -1.767767 1.767767 
C -1.29895 2.236584 -0.663008 2.5 0 2.5 
z
" id="C3_0_9c5b4dbf83"/>
    </defs>
    <g clip-path="url(#pa335e103f6)">
     <use style="fill:#8172b2;fill-opacity:0.5;" x="464.23236" xlink:href="#C3_0_9c5b4dbf83" y="284.69907"/>
    </g>
    <g clip-path="url(#pa335e103f6)">
     <use style="fill:#8172b2;fill-opacity:0.5;" x="450.526683" xlink:href="#C3_0_9c5b4dbf83" y="284.69907"/>
    </g>
    <g clip-path="url(#pa335e103f6)">
     <use style="fill:#8172b2;fill-opacity:0.5;" x="448.076511" xlink:href="#C3_0_9c5b4dbf83" y="284.69907"/>
    </g>
    <g clip-path="url(#pa335e103f6)">
     <use style="fill:#8172b2;fill-opacity:0.5;" x="446.356285" xlink:href="#C3_0_9c5b4dbf83" y="284.69907"/>
    </g>
    <g clip-path="url(#pa335e103f6)">
     <use style="fill:#8172b2;fill-opacity:0.5;" x="449.392082" xlink:href="#C3_0_9c5b4dbf83" y="284.69907"/>
    </g>
    <g clip-path="url(#pa335e103f6)">
     <use style="fill:#8172b2;fill-opacity:0.5;" x="460.679453" xlink:href="#C3_0_9c5b4dbf83" y="284.69907"/>
    </g>
    <g clip-path="url(#pa335e103f6)">
     <use style="fill:#8172b2;fill-opacity:0.5;" x="446.407399" xlink:href="#C3_0_9c5b4dbf83" y="284.69907"/>
    </g>
    <g clip-path="url(#pa335e103f6)">
     <use style="fill:#8172b2;fill-opacity:0.5;" x="467.24214" xlink:href="#C3_0_9c5b4dbf83" y="284.69907"/>
    </g>
    <g clip-path="url(#pa335e103f6)">
     <use style="fill:#8172b2;fill-opacity:0.5;" x="460.833677" xlink:href="#C3_0_9c5b4dbf83" y="284.69907"/>
    </g>
    <g clip-path="url(#pa335e103f6)">
     <use style="fill:#8172b2;fill-opacity:0.5;" x="457.671763" xlink:href="#C3_0_9c5b4dbf83" y="284.69907"/>
    </g>
    <g clip-path="url(#pa335e103f6)">
     <use style="fill:#8172b2;fill-opacity:0.5;" x="446.045503" xlink:href="#C3_0_9c5b4dbf83" y="284.69907"/>
    </g>
    <g clip-path="url(#pa335e103f6)">
     <use style="fill:#8172b2;fill-opacity:0.5;" x="460.348329" xlink:href="#C3_0_9c5b4dbf83" y="284.69907"/>
    </g>
    <g clip-path="url(#pa335e103f6)">
     <use style="fill:#8172b2;fill-opacity:0.5;" x="460.346574" xlink:href="#C3_0_9c5b4dbf83" y="284.69907"/>
    </g>
    <g clip-path="url(#pa335e103f6)">
     <use style="fill:#8172b2;fill-opacity:0.5;" x="464.926131" xlink:href="#C3_0_9c5b4dbf83" y="284.69907"/>
    </g>
    <g clip-path="url(#pa335e103f6)">
     <use style="fill:#8172b2;fill-opacity:0.5;" x="450.126686" xlink:href="#C3_0_9c5b4dbf83" y="284.69907"/>
    </g>
    <g clip-path="url(#pa335e103f6)">
     <use style="fill:#8172b2;fill-opacity:0.5;" x="452.899467" xlink:href="#C3_0_9c5b4dbf83" y="284.69907"/>
    </g>
    <g clip-path="url(#pa335e103f6)">
     <use style="fill:#8172b2;fill-opacity:0.5;" x="452.483396" xlink:href="#C3_0_9c5b4dbf83" y="284.69907"/>
    </g>
    <g clip-path="url(#pa335e103f6)">
     <use style="fill:#8172b2;fill-opacity:0.5;" x="459.241342" xlink:href="#C3_0_9c5b4dbf83" y="284.69907"/>
    </g>
    <g clip-path="url(#pa335e103f6)">
     <use style="fill:#8172b2;fill-opacity:0.5;" x="449.184517" xlink:href="#C3_0_9c5b4dbf83" y="284.69907"/>
    </g>
    <g clip-path="url(#pa335e103f6)">
     <use style="fill:#8172b2;fill-opacity:0.5;" x="455.847204" xlink:href="#C3_0_9c5b4dbf83" y="284.69907"/>
    </g>
    <g clip-path="url(#pa335e103f6)">
     <use style="fill:#8172b2;fill-opacity:0.5;" x="456.589367" xlink:href="#C3_0_9c5b4dbf83" y="284.69907"/>
    </g>
    <g clip-path="url(#pa335e103f6)">
     <use style="fill:#8172b2;fill-opacity:0.5;" x="458.004619" xlink:href="#C3_0_9c5b4dbf83" y="284.69907"/>
    </g>
    <g clip-path="url(#pa335e103f6)">
     <use style="fill:#8172b2;fill-opacity:0.5;" x="458.53201" xlink:href="#C3_0_9c5b4dbf83" y="284.69907"/>
    </g>
    <g clip-path="url(#pa335e103f6)">
     <use style="fill:#8172b2;fill-opacity:0.5;" x="462.170266" xlink:href="#C3_0_9c5b4dbf83" y="284.69907"/>
    </g>
    <g clip-path="url(#pa335e103f6)">
     <use style="fill:#8172b2;fill-opacity:0.5;" x="460.211992" xlink:href="#C3_0_9c5b4dbf83" y="284.69907"/>
    </g>
    <g clip-path="url(#pa335e103f6)">
     <use style="fill:#8172b2;fill-opacity:0.5;" x="466.641672" xlink:href="#C3_0_9c5b4dbf83" y="284.69907"/>
    </g>
    <g clip-path="url(#pa335e103f6)">
     <use style="fill:#8172b2;fill-opacity:0.5;" x="464.405313" xlink:href="#C3_0_9c5b4dbf83" y="284.69907"/>
    </g>
    <g clip-path="url(#pa335e103f6)">
     <use style="fill:#8172b2;fill-opacity:0.5;" x="451.833706" xlink:href="#C3_0_9c5b4dbf83" y="284.69907"/>
    </g>
    <g clip-path="url(#pa335e103f6)">
     <use style="fill:#8172b2;fill-opacity:0.5;" x="448.340314" xlink:href="#C3_0_9c5b4dbf83" y="284.69907"/>
    </g>
    <g clip-path="url(#pa335e103f6)">
     <use style="fill:#8172b2;fill-opacity:0.5;" x="462.492463" xlink:href="#C3_0_9c5b4dbf83" y="284.69907"/>
    </g>
    <g clip-path="url(#pa335e103f6)">
     <use style="fill:#8172b2;fill-opacity:0.5;" x="456.010492" xlink:href="#C3_0_9c5b4dbf83" y="284.69907"/>
    </g>
    <g clip-path="url(#pa335e103f6)">
     <use style="fill:#8172b2;fill-opacity:0.5;" x="463.516546" xlink:href="#C3_0_9c5b4dbf83" y="284.69907"/>
    </g>
    <g clip-path="url(#pa335e103f6)">
     <use style="fill:#8172b2;fill-opacity:0.5;" x="454.256095" xlink:href="#C3_0_9c5b4dbf83" y="284.69907"/>
    </g>
    <g clip-path="url(#pa335e103f6)">
     <use style="fill:#8172b2;fill-opacity:0.5;" x="463.194599" xlink:href="#C3_0_9c5b4dbf83" y="284.69907"/>
    </g>
    <g clip-path="url(#pa335e103f6)">
     <use style="fill:#8172b2;fill-opacity:0.5;" x="460.338865" xlink:href="#C3_0_9c5b4dbf83" y="284.69907"/>
    </g>
    <g clip-path="url(#pa335e103f6)">
     <use style="fill:#8172b2;fill-opacity:0.5;" x="464.285405" xlink:href="#C3_0_9c5b4dbf83" y="284.69907"/>
    </g>
    <g clip-path="url(#pa335e103f6)">
     <use style="fill:#8172b2;fill-opacity:0.5;" x="450.399347" xlink:href="#C3_0_9c5b4dbf83" y="284.69907"/>
    </g>
    <g clip-path="url(#pa335e103f6)">
     <use style="fill:#8172b2;fill-opacity:0.5;" x="466.880861" xlink:href="#C3_0_9c5b4dbf83" y="284.69907"/>
    </g>
    <g clip-path="url(#pa335e103f6)">
     <use style="fill:#8172b2;fill-opacity:0.5;" x="458.166517" xlink:href="#C3_0_9c5b4dbf83" y="284.69907"/>
    </g>
    <g clip-path="url(#pa335e103f6)">
     <use style="fill:#8172b2;fill-opacity:0.5;" x="465.721666" xlink:href="#C3_0_9c5b4dbf83" y="284.69907"/>
    </g>
    <g clip-path="url(#pa335e103f6)">
     <use style="fill:#8172b2;fill-opacity:0.5;" x="450.311034" xlink:href="#C3_0_9c5b4dbf83" y="284.69907"/>
    </g>
    <g clip-path="url(#pa335e103f6)">
     <use style="fill:#8172b2;fill-opacity:0.5;" x="452.222248" xlink:href="#C3_0_9c5b4dbf83" y="284.69907"/>
    </g>
    <g clip-path="url(#pa335e103f6)">
     <use style="fill:#8172b2;fill-opacity:0.5;" x="455.604228" xlink:href="#C3_0_9c5b4dbf83" y="284.69907"/>
    </g>
    <g clip-path="url(#pa335e103f6)">
     <use style="fill:#8172b2;fill-opacity:0.5;" x="459.972692" xlink:href="#C3_0_9c5b4dbf83" y="284.69907"/>
    </g>
    <g clip-path="url(#pa335e103f6)">
     <use style="fill:#8172b2;fill-opacity:0.5;" x="456.289938" xlink:href="#C3_0_9c5b4dbf83" y="284.69907"/>
    </g>
    <g clip-path="url(#pa335e103f6)">
     <use style="fill:#8172b2;fill-opacity:0.5;" x="458.879599" xlink:href="#C3_0_9c5b4dbf83" y="284.69907"/>
    </g>
    <g clip-path="url(#pa335e103f6)">
     <use style="fill:#8172b2;fill-opacity:0.5;" x="447.030695" xlink:href="#C3_0_9c5b4dbf83" y="284.69907"/>
    </g>
    <g clip-path="url(#pa335e103f6)">
     <use style="fill:#8172b2;fill-opacity:0.5;" x="459.728392" xlink:href="#C3_0_9c5b4dbf83" y="284.69907"/>
    </g>
    <g clip-path="url(#pa335e103f6)">
     <use style="fill:#8172b2;fill-opacity:0.5;" x="453.30926" xlink:href="#C3_0_9c5b4dbf83" y="284.69907"/>
    </g>
    <g clip-path="url(#pa335e103f6)">
     <use style="fill:#8172b2;fill-opacity:0.5;" x="449.290727" xlink:href="#C3_0_9c5b4dbf83" y="284.69907"/>
    </g>
   </g>
   <g id="text_10">
    <!-- $\{\overline{control_i}\} \neq \{\overline{exp_i}\}$ -->
    <defs>
     <path d="M 51.125 -9.28125 
L 51.125 -16.3125 
L 48.09375 -16.3125 
Q 35.9375 -16.3125 31.8125 -12.6875 
Q 27.6875 -9.078125 27.6875 1.703125 
L 27.6875 13.375 
Q 27.6875 20.75 25.046875 23.578125 
Q 22.40625 26.421875 15.484375 26.421875 
L 12.5 26.421875 
L 12.5 33.40625 
L 15.484375 33.40625 
Q 22.46875 33.40625 25.078125 36.203125 
Q 27.6875 39.015625 27.6875 46.296875 
L 27.6875 58.015625 
Q 27.6875 68.796875 31.8125 72.390625 
Q 35.9375 75.984375 48.09375 75.984375 
L 51.125 75.984375 
L 51.125 69 
L 47.796875 69 
Q 40.921875 69 38.8125 66.84375 
Q 36.71875 64.703125 36.71875 57.8125 
L 36.71875 45.703125 
Q 36.71875 38.03125 34.5 34.5625 
Q 32.28125 31.109375 26.90625 29.890625 
Q 32.328125 28.5625 34.515625 25.09375 
Q 36.71875 21.625 36.71875 14.015625 
L 36.71875 1.90625 
Q 36.71875 -4.984375 38.8125 -7.125 
Q 40.921875 -9.28125 47.796875 -9.28125 
z
" id="DejaVuSans-7b"/>
     <path d="M 53.609375 52.59375 
L 51.8125 43.703125 
Q 48.578125 46.046875 44.9375 47.21875 
Q 41.3125 48.390625 37.40625 48.390625 
Q 33.109375 48.390625 29.21875 46.875 
Q 25.34375 45.359375 22.703125 42.578125 
Q 18.5 38.328125 16.203125 32.609375 
Q 13.921875 26.90625 13.921875 20.796875 
Q 13.921875 13.421875 17.609375 9.8125 
Q 21.296875 6.203125 28.8125 6.203125 
Q 32.515625 6.203125 36.6875 7.328125 
Q 40.875 8.453125 45.40625 10.6875 
L 43.703125 1.8125 
Q 39.796875 0.203125 35.671875 -0.609375 
Q 31.546875 -1.421875 27.203125 -1.421875 
Q 16.3125 -1.421875 10.453125 4.015625 
Q 4.59375 9.46875 4.59375 19.578125 
Q 4.59375 28.078125 7.640625 35.234375 
Q 10.6875 42.390625 16.703125 48.09375 
Q 20.796875 52 26.3125 54 
Q 31.84375 56 38.375 56 
Q 42.1875 56 45.9375 55.140625 
Q 49.703125 54.296875 53.609375 52.59375 
z
" id="DejaVuSans-Oblique-63"/>
     <path d="M 25.390625 -1.421875 
Q 15.765625 -1.421875 10.171875 4.515625 
Q 4.59375 10.453125 4.59375 20.703125 
Q 4.59375 26.65625 6.515625 32.828125 
Q 8.453125 39.015625 11.53125 43.21875 
Q 16.359375 49.75 22.3125 52.875 
Q 28.265625 56 35.796875 56 
Q 45.125 56 50.859375 50.1875 
Q 56.59375 44.390625 56.59375 35.015625 
Q 56.59375 28.515625 54.6875 22.0625 
Q 52.78125 15.625 49.703125 11.375 
Q 44.921875 4.828125 38.96875 1.703125 
Q 33.015625 -1.421875 25.390625 -1.421875 
z
M 13.921875 21 
Q 13.921875 13.578125 17.015625 9.890625 
Q 20.125 6.203125 26.421875 6.203125 
Q 35.453125 6.203125 41.375 14.078125 
Q 47.3125 21.96875 47.3125 34.078125 
Q 47.3125 41.15625 44.140625 44.765625 
Q 40.96875 48.390625 34.8125 48.390625 
Q 29.734375 48.390625 25.78125 46.015625 
Q 21.828125 43.65625 18.703125 38.8125 
Q 16.40625 35.203125 15.15625 30.5625 
Q 13.921875 25.921875 13.921875 21 
z
" id="DejaVuSans-Oblique-6f"/>
     <path d="M 42.28125 54.6875 
L 40.921875 47.703125 
L 23 47.703125 
L 17.1875 18.015625 
Q 16.890625 16.359375 16.75 15.234375 
Q 16.609375 14.109375 16.609375 13.484375 
Q 16.609375 10.359375 18.484375 8.9375 
Q 20.359375 7.515625 24.515625 7.515625 
L 33.59375 7.515625 
L 32.078125 0 
L 23.484375 0 
Q 15.484375 0 11.546875 3.125 
Q 7.625 6.25 7.625 12.59375 
Q 7.625 13.71875 7.765625 15.0625 
Q 7.90625 16.40625 8.203125 18.015625 
L 14.015625 47.703125 
L 6.390625 47.703125 
L 7.8125 54.6875 
L 15.28125 54.6875 
L 18.3125 70.21875 
L 27.296875 70.21875 
L 24.3125 54.6875 
z
" id="DejaVuSans-Oblique-74"/>
     <path d="M 44.578125 46.390625 
Q 43.21875 47.125 41.453125 47.515625 
Q 39.703125 47.90625 37.703125 47.90625 
Q 30.515625 47.90625 25.140625 42.453125 
Q 19.78125 37.015625 18.015625 27.875 
L 12.5 0 
L 3.515625 0 
L 14.203125 54.6875 
L 23.1875 54.6875 
L 21.484375 46.1875 
Q 25.046875 50.921875 30 53.453125 
Q 34.96875 56 40.578125 56 
Q 42.046875 56 43.453125 55.828125 
Q 44.875 55.671875 46.296875 55.28125 
z
" id="DejaVuSans-Oblique-72"/>
     <path d="M 18.3125 75.984375 
L 27.296875 75.984375 
L 12.5 0 
L 3.515625 0 
z
" id="DejaVuSans-Oblique-6c"/>
     <path d="M 18.3125 75.984375 
L 27.296875 75.984375 
L 25.09375 64.59375 
L 16.109375 64.59375 
z
M 14.203125 54.6875 
L 23.1875 54.6875 
L 12.5 0 
L 3.515625 0 
z
" id="DejaVuSans-Oblique-69"/>
     <path d="M 12.5 -9.28125 
L 15.921875 -9.28125 
Q 22.75 -9.28125 24.828125 -7.171875 
Q 26.90625 -5.078125 26.90625 1.90625 
L 26.90625 14.015625 
Q 26.90625 21.625 29.09375 25.09375 
Q 31.296875 28.5625 36.71875 29.890625 
Q 31.296875 31.109375 29.09375 34.5625 
Q 26.90625 38.03125 26.90625 45.703125 
L 26.90625 57.8125 
Q 26.90625 64.75 24.828125 66.875 
Q 22.75 69 15.921875 69 
L 12.5 69 
L 12.5 75.984375 
L 15.578125 75.984375 
Q 27.734375 75.984375 31.8125 72.390625 
Q 35.890625 68.796875 35.890625 58.015625 
L 35.890625 46.296875 
Q 35.890625 39.015625 38.515625 36.203125 
Q 41.15625 33.40625 48.09375 33.40625 
L 51.125 33.40625 
L 51.125 26.421875 
L 48.09375 26.421875 
Q 41.15625 26.421875 38.515625 23.578125 
Q 35.890625 20.75 35.890625 13.375 
L 35.890625 1.703125 
Q 35.890625 -9.078125 31.8125 -12.6875 
Q 27.734375 -16.3125 15.578125 -16.3125 
L 12.5 -16.3125 
z
" id="DejaVuSans-7d"/>
     <path d="M 10.59375 45.40625 
L 48.296875 45.40625 
L 60.796875 60.796875 
L 66.890625 55.8125 
L 58.40625 45.40625 
L 73.1875 45.40625 
L 73.1875 37.203125 
L 51.703125 37.203125 
L 42.1875 25.484375 
L 73.1875 25.484375 
L 73.1875 17.1875 
L 35.40625 17.1875 
L 22.796875 1.90625 
L 16.703125 6.890625 
L 25.203125 17.1875 
L 10.59375 17.1875 
L 10.59375 25.484375 
L 31.984375 25.484375 
L 41.5 37.203125 
L 10.59375 37.203125 
z
" id="DejaVuSans-2260"/>
     <path d="M 48.09375 32.234375 
Q 48.25 33.015625 48.3125 33.84375 
Q 48.390625 34.671875 48.390625 35.5 
Q 48.390625 41.453125 44.890625 44.921875 
Q 41.40625 48.390625 35.40625 48.390625 
Q 28.71875 48.390625 23.578125 44.15625 
Q 18.453125 39.9375 15.828125 32.171875 
z
M 55.90625 25.203125 
L 14.109375 25.203125 
Q 13.8125 23.34375 13.71875 22.265625 
Q 13.625 21.1875 13.625 20.40625 
Q 13.625 13.625 17.796875 9.90625 
Q 21.96875 6.203125 29.59375 6.203125 
Q 35.453125 6.203125 40.671875 7.515625 
Q 45.90625 8.84375 50.390625 11.375 
L 48.6875 2.484375 
Q 43.84375 0.53125 38.6875 -0.4375 
Q 33.546875 -1.421875 28.21875 -1.421875 
Q 16.84375 -1.421875 10.71875 4.015625 
Q 4.59375 9.46875 4.59375 19.484375 
Q 4.59375 28.03125 7.640625 35.375 
Q 10.6875 42.71875 16.609375 48.484375 
Q 20.40625 52.09375 25.65625 54.046875 
Q 30.90625 56 36.8125 56 
Q 46.09375 56 51.578125 50.4375 
Q 57.078125 44.875 57.078125 35.5 
Q 57.078125 33.25 56.78125 30.6875 
Q 56.5 28.125 55.90625 25.203125 
z
" id="DejaVuSans-Oblique-65"/>
     <path d="M 60.015625 54.6875 
L 34.90625 27.875 
L 50.296875 0 
L 39.984375 0 
L 28.421875 21.6875 
L 8.296875 0 
L -2.59375 0 
L 24.3125 28.8125 
L 10.015625 54.6875 
L 20.3125 54.6875 
L 30.8125 34.90625 
L 49.125 54.6875 
z
" id="DejaVuSans-Oblique-78"/>
    </defs>
    <g style="fill:#262626;" transform="translate(345.0775 40.10625)scale(0.16 -0.16)">
     <use transform="translate(0 0.265625)" xlink:href="#DejaVuSans-7b"/>
     <use transform="translate(63.623047 0.765625)" xlink:href="#DejaVuSans-Oblique-63"/>
     <use transform="translate(118.603516 0.765625)" xlink:href="#DejaVuSans-Oblique-6f"/>
     <use transform="translate(179.785156 0.765625)" xlink:href="#DejaVuSans-Oblique-6e"/>
     <use transform="translate(243.164062 0.765625)" xlink:href="#DejaVuSans-Oblique-74"/>
     <use transform="translate(282.373047 0.765625)" xlink:href="#DejaVuSans-Oblique-72"/>
     <use transform="translate(323.486328 0.765625)" xlink:href="#DejaVuSans-Oblique-6f"/>
     <use transform="translate(384.667969 0.765625)" xlink:href="#DejaVuSans-Oblique-6c"/>
     <use transform="translate(412.451172 -15.640625)scale(0.7)" xlink:href="#DejaVuSans-Oblique-69"/>
     <use transform="translate(434.633789 0.265625)" xlink:href="#DejaVuSans-7d"/>
     <use transform="translate(517.739258 0.265625)" xlink:href="#DejaVuSans-2260"/>
     <use transform="translate(621.010742 0.265625)" xlink:href="#DejaVuSans-7b"/>
     <use transform="translate(684.633789 0.765625)" xlink:href="#DejaVuSans-Oblique-65"/>
     <use transform="translate(746.157227 0.765625)" xlink:href="#DejaVuSans-Oblique-78"/>
     <use transform="translate(805.336914 0.765625)" xlink:href="#DejaVuSans-Oblique-70"/>
     <use transform="translate(868.813477 -15.640625)scale(0.7)" xlink:href="#DejaVuSans-Oblique-69"/>
     <use transform="translate(890.996094 0.265625)" xlink:href="#DejaVuSans-7d"/>
     <path d="M 63.623047 88.5 
L 63.623047 94.75 
L 434.633789 94.75 
L 434.633789 88.5 
L 63.623047 88.5 
z
"/>
     <path d="M 684.633789 68.515625 
L 684.633789 74.765625 
L 890.996094 74.765625 
L 890.996094 68.515625 
L 684.633789 68.515625 
z
"/>
    </g>
   </g>
  </g>
 </g>
 <defs>
  <clipPath id="pa335e103f6">
   <rect height="271.8" width="446.4" x="66.0775" y="12.92625"/>
  </clipPath>
 </defs>
</svg>
