<?xml version="1.0" encoding="utf-8" standalone="no"?>
<!DOCTYPE svg PUBLIC "-//W3C//DTD SVG 1.1//EN"
  "http://www.w3.org/Graphics/SVG/1.1/DTD/svg11.dtd">
<!-- Created with matplotlib (http://matplotlib.org/) -->
<svg height="335pt" version="1.1" viewBox="0 0 510 335" width="510pt" xmlns="http://www.w3.org/2000/svg" xmlns:xlink="http://www.w3.org/1999/xlink">
 <defs>
  <style type="text/css">
*{stroke-linecap:butt;stroke-linejoin:round;}
  </style>
 </defs>
 <g id="figure_1">
  <g id="patch_1">
   <path d="M 0 335.19875 
L 510.78 335.19875 
L 510.78 0 
L 0 0 
z
" style="fill:#ffffff;"/>
  </g>
  <g id="axes_1">
   <g id="patch_2">
    <path d="M 57.18 284.72625 
L 503.58 284.72625 
L 503.58 12.92625 
L 57.18 12.92625 
z
" style="fill:#eaeaf2;"/>
   </g>
   <g id="matplotlib.axis_1">
    <g id="xtick_1">
     <g id="line2d_1"/>
     <g id="text_1">
      <!-- 2 -->
      <defs>
       <path d="M 50.34375 8.453125 
L 50.34375 0 
L 3.03125 0 
Q 2.9375 3.171875 4.046875 6.109375 
Q 5.859375 10.9375 9.828125 15.625 
Q 13.8125 20.3125 21.34375 26.46875 
Q 33.015625 36.03125 37.109375 41.625 
Q 41.21875 47.21875 41.21875 52.203125 
Q 41.21875 57.421875 37.46875 61 
Q 33.734375 64.59375 27.734375 64.59375 
Q 21.390625 64.59375 17.578125 60.78125 
Q 13.765625 56.984375 13.71875 50.25 
L 4.6875 51.171875 
Q 5.609375 61.28125 11.65625 66.578125 
Q 17.71875 71.875 27.9375 71.875 
Q 38.234375 71.875 44.234375 66.15625 
Q 50.25 60.453125 50.25 52 
Q 50.25 47.703125 48.484375 43.546875 
Q 46.734375 39.40625 42.65625 34.8125 
Q 38.578125 30.21875 29.109375 22.21875 
Q 21.1875 15.578125 18.9375 13.203125 
Q 16.703125 10.84375 15.234375 8.453125 
z
" id="ArialMT-32"/>
      </defs>
      <g style="fill:#262626;" transform="translate(108.53125 303.17875)scale(0.16 -0.16)">
       <use xlink:href="#ArialMT-32"/>
      </g>
     </g>
    </g>
    <g id="xtick_2">
     <g id="line2d_2"/>
     <g id="text_2">
      <!-- 3 -->
      <defs>
       <path d="M 4.203125 18.890625 
L 12.984375 20.0625 
Q 14.5 12.59375 18.140625 9.296875 
Q 21.78125 6 27 6 
Q 33.203125 6 37.46875 10.296875 
Q 41.75 14.59375 41.75 20.953125 
Q 41.75 27 37.796875 30.921875 
Q 33.84375 34.859375 27.734375 34.859375 
Q 25.25 34.859375 21.53125 33.890625 
L 22.515625 41.609375 
Q 23.390625 41.5 23.921875 41.5 
Q 29.546875 41.5 34.03125 44.421875 
Q 38.53125 47.359375 38.53125 53.46875 
Q 38.53125 58.296875 35.25 61.46875 
Q 31.984375 64.65625 26.8125 64.65625 
Q 21.6875 64.65625 18.265625 61.421875 
Q 14.84375 58.203125 13.875 51.765625 
L 5.078125 53.328125 
Q 6.6875 62.15625 12.390625 67.015625 
Q 18.109375 71.875 26.609375 71.875 
Q 32.46875 71.875 37.390625 69.359375 
Q 42.328125 66.84375 44.9375 62.5 
Q 47.5625 58.15625 47.5625 53.265625 
Q 47.5625 48.640625 45.0625 44.828125 
Q 42.578125 41.015625 37.703125 38.765625 
Q 44.046875 37.3125 47.5625 32.6875 
Q 51.078125 28.078125 51.078125 21.140625 
Q 51.078125 11.765625 44.234375 5.25 
Q 37.40625 -1.265625 26.953125 -1.265625 
Q 17.53125 -1.265625 11.296875 4.34375 
Q 5.078125 9.96875 4.203125 18.890625 
z
" id="ArialMT-33"/>
      </defs>
      <g style="fill:#262626;" transform="translate(220.13125 303.17875)scale(0.16 -0.16)">
       <use xlink:href="#ArialMT-33"/>
      </g>
     </g>
    </g>
    <g id="xtick_3">
     <g id="line2d_3"/>
     <g id="text_3">
      <!-- 4 -->
      <defs>
       <path d="M 32.328125 0 
L 32.328125 17.140625 
L 1.265625 17.140625 
L 1.265625 25.203125 
L 33.9375 71.578125 
L 41.109375 71.578125 
L 41.109375 25.203125 
L 50.78125 25.203125 
L 50.78125 17.140625 
L 41.109375 17.140625 
L 41.109375 0 
z
M 32.328125 25.203125 
L 32.328125 57.46875 
L 9.90625 25.203125 
z
" id="ArialMT-34"/>
      </defs>
      <g style="fill:#262626;" transform="translate(331.73125 303.17875)scale(0.16 -0.16)">
       <use xlink:href="#ArialMT-34"/>
      </g>
     </g>
    </g>
    <g id="xtick_4">
     <g id="line2d_4"/>
     <g id="text_4">
      <!-- 5 -->
      <defs>
       <path d="M 4.15625 18.75 
L 13.375 19.53125 
Q 14.40625 12.796875 18.140625 9.390625 
Q 21.875 6 27.15625 6 
Q 33.5 6 37.890625 10.78125 
Q 42.28125 15.578125 42.28125 23.484375 
Q 42.28125 31 38.0625 35.34375 
Q 33.84375 39.703125 27 39.703125 
Q 22.75 39.703125 19.328125 37.765625 
Q 15.921875 35.84375 13.96875 32.765625 
L 5.71875 33.84375 
L 12.640625 70.609375 
L 48.25 70.609375 
L 48.25 62.203125 
L 19.671875 62.203125 
L 15.828125 42.96875 
Q 22.265625 47.46875 29.34375 47.46875 
Q 38.71875 47.46875 45.15625 40.96875 
Q 51.609375 34.46875 51.609375 24.265625 
Q 51.609375 14.546875 45.953125 7.46875 
Q 39.0625 -1.21875 27.15625 -1.21875 
Q 17.390625 -1.21875 11.203125 4.25 
Q 5.03125 9.71875 4.15625 18.75 
z
" id="ArialMT-35"/>
      </defs>
      <g style="fill:#262626;" transform="translate(443.33125 303.17875)scale(0.16 -0.16)">
       <use xlink:href="#ArialMT-35"/>
      </g>
     </g>
    </g>
    <g id="text_5">
     <!-- Bootstraps, $10^n$ -->
     <defs>
      <path d="M 7.328125 0 
L 7.328125 71.578125 
L 34.1875 71.578125 
Q 42.390625 71.578125 47.34375 69.40625 
Q 52.296875 67.234375 55.09375 62.71875 
Q 57.90625 58.203125 57.90625 53.265625 
Q 57.90625 48.6875 55.421875 44.625 
Q 52.9375 40.578125 47.90625 38.09375 
Q 54.390625 36.1875 57.875 31.59375 
Q 61.375 27 61.375 20.75 
Q 61.375 15.71875 59.25 11.390625 
Q 57.125 7.078125 54 4.734375 
Q 50.875 2.390625 46.15625 1.1875 
Q 41.453125 0 34.625 0 
z
M 16.796875 41.5 
L 32.28125 41.5 
Q 38.578125 41.5 41.3125 42.328125 
Q 44.921875 43.40625 46.75 45.890625 
Q 48.578125 48.390625 48.578125 52.15625 
Q 48.578125 55.71875 46.875 58.421875 
Q 45.171875 61.140625 41.984375 62.140625 
Q 38.8125 63.140625 31.109375 63.140625 
L 16.796875 63.140625 
z
M 16.796875 8.453125 
L 34.625 8.453125 
Q 39.203125 8.453125 41.0625 8.796875 
Q 44.34375 9.375 46.53125 10.734375 
Q 48.734375 12.109375 50.140625 14.71875 
Q 51.5625 17.328125 51.5625 20.75 
Q 51.5625 24.75 49.515625 27.703125 
Q 47.46875 30.671875 43.828125 31.859375 
Q 40.1875 33.0625 33.34375 33.0625 
L 16.796875 33.0625 
z
" id="ArialMT-42"/>
      <path d="M 3.328125 25.921875 
Q 3.328125 40.328125 11.328125 47.265625 
Q 18.015625 53.03125 27.640625 53.03125 
Q 38.328125 53.03125 45.109375 46.015625 
Q 51.90625 39.015625 51.90625 26.65625 
Q 51.90625 16.65625 48.90625 10.90625 
Q 45.90625 5.171875 40.15625 2 
Q 34.421875 -1.171875 27.640625 -1.171875 
Q 16.75 -1.171875 10.03125 5.8125 
Q 3.328125 12.796875 3.328125 25.921875 
z
M 12.359375 25.921875 
Q 12.359375 15.96875 16.703125 11.015625 
Q 21.046875 6.0625 27.640625 6.0625 
Q 34.1875 6.0625 38.53125 11.03125 
Q 42.875 16.015625 42.875 26.21875 
Q 42.875 35.84375 38.5 40.796875 
Q 34.125 45.75 27.640625 45.75 
Q 21.046875 45.75 16.703125 40.8125 
Q 12.359375 35.890625 12.359375 25.921875 
z
" id="ArialMT-6f"/>
      <path d="M 25.78125 7.859375 
L 27.046875 0.09375 
Q 23.34375 -0.6875 20.40625 -0.6875 
Q 15.625 -0.6875 12.984375 0.828125 
Q 10.359375 2.34375 9.28125 4.8125 
Q 8.203125 7.28125 8.203125 15.1875 
L 8.203125 45.015625 
L 1.765625 45.015625 
L 1.765625 51.859375 
L 8.203125 51.859375 
L 8.203125 64.703125 
L 16.9375 69.96875 
L 16.9375 51.859375 
L 25.78125 51.859375 
L 25.78125 45.015625 
L 16.9375 45.015625 
L 16.9375 14.703125 
Q 16.9375 10.9375 17.40625 9.859375 
Q 17.875 8.796875 18.921875 8.15625 
Q 19.96875 7.515625 21.921875 7.515625 
Q 23.390625 7.515625 25.78125 7.859375 
z
" id="ArialMT-74"/>
      <path d="M 3.078125 15.484375 
L 11.765625 16.84375 
Q 12.5 11.625 15.84375 8.84375 
Q 19.1875 6.0625 25.203125 6.0625 
Q 31.25 6.0625 34.171875 8.515625 
Q 37.109375 10.984375 37.109375 14.3125 
Q 37.109375 17.28125 34.515625 19 
Q 32.71875 20.171875 25.53125 21.96875 
Q 15.875 24.421875 12.140625 26.203125 
Q 8.40625 27.984375 6.46875 31.125 
Q 4.546875 34.28125 4.546875 38.09375 
Q 4.546875 41.546875 6.125 44.5 
Q 7.71875 47.46875 10.453125 49.421875 
Q 12.5 50.921875 16.03125 51.96875 
Q 19.578125 53.03125 23.640625 53.03125 
Q 29.734375 53.03125 34.34375 51.265625 
Q 38.96875 49.515625 41.15625 46.5 
Q 43.359375 43.5 44.1875 38.484375 
L 35.59375 37.3125 
Q 35.015625 41.3125 32.203125 43.546875 
Q 29.390625 45.796875 24.265625 45.796875 
Q 18.21875 45.796875 15.625 43.796875 
Q 13.03125 41.796875 13.03125 39.109375 
Q 13.03125 37.40625 14.109375 36.03125 
Q 15.1875 34.625 17.484375 33.6875 
Q 18.796875 33.203125 25.25 31.453125 
Q 34.578125 28.953125 38.25 27.359375 
Q 41.9375 25.78125 44.03125 22.75 
Q 46.140625 19.734375 46.140625 15.234375 
Q 46.140625 10.84375 43.578125 6.953125 
Q 41.015625 3.078125 36.171875 0.953125 
Q 31.34375 -1.171875 25.25 -1.171875 
Q 15.140625 -1.171875 9.84375 3.03125 
Q 4.546875 7.234375 3.078125 15.484375 
z
" id="ArialMT-73"/>
      <path d="M 6.5 0 
L 6.5 51.859375 
L 14.40625 51.859375 
L 14.40625 44 
Q 17.4375 49.515625 20 51.265625 
Q 22.5625 53.03125 25.640625 53.03125 
Q 30.078125 53.03125 34.671875 50.203125 
L 31.640625 42.046875 
Q 28.421875 43.953125 25.203125 43.953125 
Q 22.3125 43.953125 20.015625 42.21875 
Q 17.71875 40.484375 16.75 37.40625 
Q 15.28125 32.71875 15.28125 27.15625 
L 15.28125 0 
z
" id="ArialMT-72"/>
      <path d="M 40.4375 6.390625 
Q 35.546875 2.25 31.03125 0.53125 
Q 26.515625 -1.171875 21.34375 -1.171875 
Q 12.796875 -1.171875 8.203125 3 
Q 3.609375 7.171875 3.609375 13.671875 
Q 3.609375 17.484375 5.34375 20.625 
Q 7.078125 23.78125 9.890625 25.6875 
Q 12.703125 27.59375 16.21875 28.5625 
Q 18.796875 29.25 24.03125 29.890625 
Q 34.671875 31.15625 39.703125 32.90625 
Q 39.75 34.71875 39.75 35.203125 
Q 39.75 40.578125 37.25 42.78125 
Q 33.890625 45.75 27.25 45.75 
Q 21.046875 45.75 18.09375 43.578125 
Q 15.140625 41.40625 13.71875 35.890625 
L 5.125 37.0625 
Q 6.296875 42.578125 8.984375 45.96875 
Q 11.671875 49.359375 16.75 51.1875 
Q 21.828125 53.03125 28.515625 53.03125 
Q 35.15625 53.03125 39.296875 51.46875 
Q 43.453125 49.90625 45.40625 47.53125 
Q 47.359375 45.171875 48.140625 41.546875 
Q 48.578125 39.3125 48.578125 33.453125 
L 48.578125 21.734375 
Q 48.578125 9.46875 49.140625 6.21875 
Q 49.703125 2.984375 51.375 0 
L 42.1875 0 
Q 40.828125 2.734375 40.4375 6.390625 
z
M 39.703125 26.03125 
Q 34.90625 24.078125 25.34375 22.703125 
Q 19.921875 21.921875 17.671875 20.9375 
Q 15.4375 19.96875 14.203125 18.09375 
Q 12.984375 16.21875 12.984375 13.921875 
Q 12.984375 10.40625 15.640625 8.0625 
Q 18.3125 5.71875 23.4375 5.71875 
Q 28.515625 5.71875 32.46875 7.9375 
Q 36.421875 10.15625 38.28125 14.015625 
Q 39.703125 17 39.703125 22.796875 
z
" id="ArialMT-61"/>
      <path d="M 6.59375 -19.875 
L 6.59375 51.859375 
L 14.59375 51.859375 
L 14.59375 45.125 
Q 17.4375 49.078125 21 51.046875 
Q 24.5625 53.03125 29.640625 53.03125 
Q 36.28125 53.03125 41.359375 49.609375 
Q 46.4375 46.1875 49.015625 39.953125 
Q 51.609375 33.734375 51.609375 26.3125 
Q 51.609375 18.359375 48.75 11.984375 
Q 45.90625 5.609375 40.453125 2.21875 
Q 35.015625 -1.171875 29 -1.171875 
Q 24.609375 -1.171875 21.109375 0.6875 
Q 17.625 2.546875 15.375 5.375 
L 15.375 -19.875 
z
M 14.546875 25.640625 
Q 14.546875 15.625 18.59375 10.84375 
Q 22.65625 6.0625 28.421875 6.0625 
Q 34.28125 6.0625 38.453125 11.015625 
Q 42.625 15.96875 42.625 26.375 
Q 42.625 36.28125 38.546875 41.203125 
Q 34.46875 46.140625 28.8125 46.140625 
Q 23.1875 46.140625 18.859375 40.890625 
Q 14.546875 35.640625 14.546875 25.640625 
z
" id="ArialMT-70"/>
      <path d="M 8.890625 0 
L 8.890625 10.015625 
L 18.890625 10.015625 
L 18.890625 0 
Q 18.890625 -5.515625 16.9375 -8.90625 
Q 14.984375 -12.3125 10.75 -14.15625 
L 8.296875 -10.40625 
Q 11.078125 -9.1875 12.390625 -6.8125 
Q 13.71875 -4.4375 13.875 0 
z
" id="ArialMT-2c"/>
      <path id="ArialMT-20"/>
      <path d="M 12.40625 8.296875 
L 28.515625 8.296875 
L 28.515625 63.921875 
L 10.984375 60.40625 
L 10.984375 69.390625 
L 28.421875 72.90625 
L 38.28125 72.90625 
L 38.28125 8.296875 
L 54.390625 8.296875 
L 54.390625 0 
L 12.40625 0 
z
" id="DejaVuSans-31"/>
      <path d="M 31.78125 66.40625 
Q 24.171875 66.40625 20.328125 58.90625 
Q 16.5 51.421875 16.5 36.375 
Q 16.5 21.390625 20.328125 13.890625 
Q 24.171875 6.390625 31.78125 6.390625 
Q 39.453125 6.390625 43.28125 13.890625 
Q 47.125 21.390625 47.125 36.375 
Q 47.125 51.421875 43.28125 58.90625 
Q 39.453125 66.40625 31.78125 66.40625 
z
M 31.78125 74.21875 
Q 44.046875 74.21875 50.515625 64.515625 
Q 56.984375 54.828125 56.984375 36.375 
Q 56.984375 17.96875 50.515625 8.265625 
Q 44.046875 -1.421875 31.78125 -1.421875 
Q 19.53125 -1.421875 13.0625 8.265625 
Q 6.59375 17.96875 6.59375 36.375 
Q 6.59375 54.828125 13.0625 64.515625 
Q 19.53125 74.21875 31.78125 74.21875 
z
" id="DejaVuSans-30"/>
      <path d="M 55.71875 33.015625 
L 49.3125 0 
L 40.28125 0 
L 46.6875 32.671875 
Q 47.125 34.96875 47.359375 36.71875 
Q 47.609375 38.484375 47.609375 39.5 
Q 47.609375 43.609375 45.015625 45.890625 
Q 42.4375 48.1875 37.796875 48.1875 
Q 30.5625 48.1875 25.34375 43.375 
Q 20.125 38.578125 18.5 30.328125 
L 12.5 0 
L 3.515625 0 
L 14.109375 54.6875 
L 23.09375 54.6875 
L 21.296875 46.09375 
Q 25.046875 50.828125 30.3125 53.40625 
Q 35.59375 56 41.40625 56 
Q 48.640625 56 52.609375 52.09375 
Q 56.59375 48.1875 56.59375 41.109375 
Q 56.59375 39.359375 56.375 37.359375 
Q 56.15625 35.359375 55.71875 33.015625 
z
" id="DejaVuSans-Oblique-6e"/>
     </defs>
     <g style="fill:#262626;" transform="translate(216.57 324.39875)scale(0.18 -0.18)">
      <use transform="translate(0 0.51875)" xlink:href="#ArialMT-42"/>
      <use transform="translate(66.699219 0.51875)" xlink:href="#ArialMT-6f"/>
      <use transform="translate(122.314453 0.51875)" xlink:href="#ArialMT-6f"/>
      <use transform="translate(177.929688 0.51875)" xlink:href="#ArialMT-74"/>
      <use transform="translate(205.712891 0.51875)" xlink:href="#ArialMT-73"/>
      <use transform="translate(255.712891 0.51875)" xlink:href="#ArialMT-74"/>
      <use transform="translate(283.496094 0.51875)" xlink:href="#ArialMT-72"/>
      <use transform="translate(316.796875 0.51875)" xlink:href="#ArialMT-61"/>
      <use transform="translate(372.412109 0.51875)" xlink:href="#ArialMT-70"/>
      <use transform="translate(428.027344 0.51875)" xlink:href="#ArialMT-73"/>
      <use transform="translate(478.027344 0.51875)" xlink:href="#ArialMT-2c"/>
      <use transform="translate(505.810547 0.51875)" xlink:href="#ArialMT-20"/>
      <use transform="translate(533.59375 0.51875)" xlink:href="#DejaVuSans-31"/>
      <use transform="translate(597.216797 0.51875)" xlink:href="#DejaVuSans-30"/>
      <use transform="translate(661.796875 38.8)scale(0.7)" xlink:href="#DejaVuSans-Oblique-6e"/>
     </g>
    </g>
   </g>
   <g id="matplotlib.axis_2">
    <g id="ytick_1">
     <g id="line2d_5"/>
     <g id="text_6">
      <!-- 0.0 -->
      <defs>
       <path d="M 4.15625 35.296875 
Q 4.15625 48 6.765625 55.734375 
Q 9.375 63.484375 14.515625 67.671875 
Q 19.671875 71.875 27.484375 71.875 
Q 33.25 71.875 37.59375 69.546875 
Q 41.9375 67.234375 44.765625 62.859375 
Q 47.609375 58.5 49.21875 52.21875 
Q 50.828125 45.953125 50.828125 35.296875 
Q 50.828125 22.703125 48.234375 14.96875 
Q 45.65625 7.234375 40.5 3 
Q 35.359375 -1.21875 27.484375 -1.21875 
Q 17.140625 -1.21875 11.234375 6.203125 
Q 4.15625 15.140625 4.15625 35.296875 
z
M 13.1875 35.296875 
Q 13.1875 17.671875 17.3125 11.828125 
Q 21.4375 6 27.484375 6 
Q 33.546875 6 37.671875 11.859375 
Q 41.796875 17.71875 41.796875 35.296875 
Q 41.796875 52.984375 37.671875 58.78125 
Q 33.546875 64.59375 27.390625 64.59375 
Q 21.34375 64.59375 17.71875 59.46875 
Q 13.1875 52.9375 13.1875 35.296875 
z
" id="ArialMT-30"/>
       <path d="M 9.078125 0 
L 9.078125 10.015625 
L 19.09375 10.015625 
L 19.09375 0 
z
" id="ArialMT-2e"/>
      </defs>
      <g style="fill:#262626;" transform="translate(27.94 290.4525)scale(0.16 -0.16)">
       <use xlink:href="#ArialMT-30"/>
       <use x="55.615234" xlink:href="#ArialMT-2e"/>
       <use x="83.398438" xlink:href="#ArialMT-30"/>
      </g>
     </g>
    </g>
    <g id="ytick_2">
     <g id="line2d_6"/>
     <g id="text_7">
      <!-- 0.5 -->
      <g style="fill:#262626;" transform="translate(27.94 154.5525)scale(0.16 -0.16)">
       <use xlink:href="#ArialMT-30"/>
       <use x="55.615234" xlink:href="#ArialMT-2e"/>
       <use x="83.398438" xlink:href="#ArialMT-35"/>
      </g>
     </g>
    </g>
    <g id="ytick_3">
     <g id="line2d_7"/>
     <g id="text_8">
      <!-- 1.0 -->
      <defs>
       <path d="M 37.25 0 
L 28.46875 0 
L 28.46875 56 
Q 25.296875 52.984375 20.140625 49.953125 
Q 14.984375 46.921875 10.890625 45.40625 
L 10.890625 53.90625 
Q 18.265625 57.375 23.78125 62.296875 
Q 29.296875 67.234375 31.59375 71.875 
L 37.25 71.875 
z
" id="ArialMT-31"/>
      </defs>
      <g style="fill:#262626;" transform="translate(27.94 18.6525)scale(0.16 -0.16)">
       <use xlink:href="#ArialMT-31"/>
       <use x="55.615234" xlink:href="#ArialMT-2e"/>
       <use x="83.398438" xlink:href="#ArialMT-30"/>
      </g>
     </g>
    </g>
    <g id="text_9">
     <!-- $p$-value -->
     <defs>
      <path d="M 49.609375 33.6875 
Q 49.609375 40.875 46.484375 44.671875 
Q 43.359375 48.484375 37.5 48.484375 
Q 33.5 48.484375 29.859375 46.4375 
Q 26.21875 44.390625 23.390625 40.484375 
Q 20.609375 36.625 18.9375 31.15625 
Q 17.28125 25.6875 17.28125 20.3125 
Q 17.28125 13.484375 20.40625 9.796875 
Q 23.53125 6.109375 29.296875 6.109375 
Q 33.546875 6.109375 37.1875 8.109375 
Q 40.828125 10.109375 43.40625 13.921875 
Q 46.1875 17.921875 47.890625 23.34375 
Q 49.609375 28.765625 49.609375 33.6875 
z
M 21.78125 46.390625 
Q 25.390625 51.125 30.296875 53.5625 
Q 35.203125 56 41.21875 56 
Q 49.609375 56 54.25 50.5 
Q 58.890625 45.015625 58.890625 35.109375 
Q 58.890625 27 56 19.65625 
Q 53.125 12.3125 47.703125 6.5 
Q 44.09375 2.640625 39.546875 0.609375 
Q 35.015625 -1.421875 29.984375 -1.421875 
Q 24.171875 -1.421875 20.21875 1 
Q 16.265625 3.421875 14.3125 8.203125 
L 8.6875 -20.796875 
L -0.296875 -20.796875 
L 14.40625 54.6875 
L 23.390625 54.6875 
z
" id="DejaVuSans-Oblique-70"/>
      <path d="M 3.171875 21.484375 
L 3.171875 30.328125 
L 30.171875 30.328125 
L 30.171875 21.484375 
z
" id="ArialMT-2d"/>
      <path d="M 21 0 
L 1.265625 51.859375 
L 10.546875 51.859375 
L 21.6875 20.796875 
Q 23.484375 15.765625 25 10.359375 
Q 26.171875 14.453125 28.265625 20.21875 
L 39.796875 51.859375 
L 48.828125 51.859375 
L 29.203125 0 
z
" id="ArialMT-76"/>
      <path d="M 6.390625 0 
L 6.390625 71.578125 
L 15.1875 71.578125 
L 15.1875 0 
z
" id="ArialMT-6c"/>
      <path d="M 40.578125 0 
L 40.578125 7.625 
Q 34.515625 -1.171875 24.125 -1.171875 
Q 19.53125 -1.171875 15.546875 0.578125 
Q 11.578125 2.34375 9.640625 5 
Q 7.71875 7.671875 6.9375 11.53125 
Q 6.390625 14.109375 6.390625 19.734375 
L 6.390625 51.859375 
L 15.1875 51.859375 
L 15.1875 23.09375 
Q 15.1875 16.21875 15.71875 13.8125 
Q 16.546875 10.359375 19.234375 8.375 
Q 21.921875 6.390625 25.875 6.390625 
Q 29.828125 6.390625 33.296875 8.421875 
Q 36.765625 10.453125 38.203125 13.9375 
Q 39.65625 17.4375 39.65625 24.078125 
L 39.65625 51.859375 
L 48.4375 51.859375 
L 48.4375 0 
z
" id="ArialMT-75"/>
      <path d="M 42.09375 16.703125 
L 51.171875 15.578125 
Q 49.03125 7.625 43.21875 3.21875 
Q 37.40625 -1.171875 28.375 -1.171875 
Q 17 -1.171875 10.328125 5.828125 
Q 3.65625 12.84375 3.65625 25.484375 
Q 3.65625 38.578125 10.390625 45.796875 
Q 17.140625 53.03125 27.875 53.03125 
Q 38.28125 53.03125 44.875 45.953125 
Q 51.46875 38.875 51.46875 26.03125 
Q 51.46875 25.25 51.421875 23.6875 
L 12.75 23.6875 
Q 13.234375 15.140625 17.578125 10.59375 
Q 21.921875 6.0625 28.421875 6.0625 
Q 33.25 6.0625 36.671875 8.59375 
Q 40.09375 11.140625 42.09375 16.703125 
z
M 13.234375 30.90625 
L 42.1875 30.90625 
Q 41.609375 37.453125 38.875 40.71875 
Q 34.671875 45.796875 27.984375 45.796875 
Q 21.921875 45.796875 17.796875 41.75 
Q 13.671875 37.703125 13.234375 30.90625 
z
" id="ArialMT-65"/>
     </defs>
     <g style="fill:#262626;" transform="translate(20.16 179.06625)rotate(-90)scale(0.18 -0.18)">
      <use transform="translate(0 0.421875)" xlink:href="#DejaVuSans-Oblique-70"/>
      <use transform="translate(63.476562 0.421875)" xlink:href="#ArialMT-2d"/>
      <use transform="translate(96.777344 0.421875)" xlink:href="#ArialMT-76"/>
      <use transform="translate(146.777344 0.421875)" xlink:href="#ArialMT-61"/>
      <use transform="translate(202.392578 0.421875)" xlink:href="#ArialMT-6c"/>
      <use transform="translate(224.609375 0.421875)" xlink:href="#ArialMT-75"/>
      <use transform="translate(280.224609 0.421875)" xlink:href="#ArialMT-65"/>
     </g>
    </g>
   </g>
   <g id="line2d_8">
    <path clip-path="url(#p89b826919e)" d="M 57.18 148.82625 
L 503.58 148.82625 
" style="fill:none;opacity:0.5;stroke:#ff0000;stroke-dasharray:3.7,1.6;stroke-dashoffset:0;"/>
   </g>
   <g id="patch_3">
    <path d="M 57.18 284.72625 
L 57.18 12.92625 
" style="fill:none;"/>
   </g>
   <g id="patch_4">
    <path d="M 503.58 284.72625 
L 503.58 12.92625 
" style="fill:none;"/>
   </g>
   <g id="patch_5">
    <path d="M 57.18 284.72625 
L 503.58 284.72625 
" style="fill:none;"/>
   </g>
   <g id="patch_6">
    <path d="M 57.18 12.92625 
L 503.58 12.92625 
" style="fill:none;"/>
   </g>
   <g id="PathCollection_1">
    <defs>
     <path d="M 0 2.5 
C 0.663008 2.5 1.29895 2.236584 1.767767 1.767767 
C 2.236584 1.29895 2.5 0.663008 2.5 0 
C 2.5 -0.663008 2.236584 -1.29895 1.767767 -1.767767 
C 1.29895 -2.236584 0.663008 -2.5 0 -2.5 
C -0.663008 -2.5 -1.29895 -2.236584 -1.767767 -1.767767 
C -2.236584 -1.29895 -2.5 -0.663008 -2.5 0 
C -2.5 0.663008 -2.236584 1.29895 -1.767767 1.767767 
C -1.29895 2.236584 -0.663008 2.5 0 2.5 
z
" id="C0_0_f98a2e99c8"/>
    </defs>
    <g clip-path="url(#p89b826919e)">
     <use style="fill:#4c72b0;fill-opacity:0.5;" x="103.41021" xlink:href="#C0_0_f98a2e99c8" y="159.69825"/>
    </g>
    <g clip-path="url(#p89b826919e)">
     <use style="fill:#4c72b0;fill-opacity:0.5;" x="107.419152" xlink:href="#C0_0_f98a2e99c8" y="137.95425"/>
    </g>
    <g clip-path="url(#p89b826919e)">
     <use style="fill:#4c72b0;fill-opacity:0.5;" x="108.029612" xlink:href="#C0_0_f98a2e99c8" y="148.82625"/>
    </g>
    <g clip-path="url(#p89b826919e)">
     <use style="fill:#4c72b0;fill-opacity:0.5;" x="114.054813" xlink:href="#C0_0_f98a2e99c8" y="143.39025"/>
    </g>
    <g clip-path="url(#p89b826919e)">
     <use style="fill:#4c72b0;fill-opacity:0.5;" x="113.728305" xlink:href="#C0_0_f98a2e99c8" y="154.26225"/>
    </g>
    <g clip-path="url(#p89b826919e)">
     <use style="fill:#4c72b0;fill-opacity:0.5;" x="108.006248" xlink:href="#C0_0_f98a2e99c8" y="110.77425"/>
    </g>
    <g clip-path="url(#p89b826919e)">
     <use style="fill:#4c72b0;fill-opacity:0.5;" x="116.191099" xlink:href="#C0_0_f98a2e99c8" y="159.69825"/>
    </g>
    <g clip-path="url(#p89b826919e)">
     <use style="fill:#4c72b0;fill-opacity:0.5;" x="108.301892" xlink:href="#C0_0_f98a2e99c8" y="151.54425"/>
    </g>
    <g clip-path="url(#p89b826919e)">
     <use style="fill:#4c72b0;fill-opacity:0.5;" x="109.612572" xlink:href="#C0_0_f98a2e99c8" y="151.54425"/>
    </g>
    <g clip-path="url(#p89b826919e)">
     <use style="fill:#4c72b0;fill-opacity:0.5;" x="112.422596" xlink:href="#C0_0_f98a2e99c8" y="118.92825"/>
    </g>
    <g clip-path="url(#p89b826919e)">
     <use style="fill:#4c72b0;fill-opacity:0.5;" x="105.175481" xlink:href="#C0_0_f98a2e99c8" y="137.95425"/>
    </g>
    <g clip-path="url(#p89b826919e)">
     <use style="fill:#4c72b0;fill-opacity:0.5;" x="113.209496" xlink:href="#C0_0_f98a2e99c8" y="118.92825"/>
    </g>
    <g clip-path="url(#p89b826919e)">
     <use style="fill:#4c72b0;fill-opacity:0.5;" x="123.185416" xlink:href="#C0_0_f98a2e99c8" y="151.54425"/>
    </g>
    <g clip-path="url(#p89b826919e)">
     <use style="fill:#4c72b0;fill-opacity:0.5;" x="106.850225" xlink:href="#C0_0_f98a2e99c8" y="151.54425"/>
    </g>
    <g clip-path="url(#p89b826919e)">
     <use style="fill:#4c72b0;fill-opacity:0.5;" x="109.518235" xlink:href="#C0_0_f98a2e99c8" y="165.13425"/>
    </g>
    <g clip-path="url(#p89b826919e)">
     <use style="fill:#4c72b0;fill-opacity:0.5;" x="121.347783" xlink:href="#C0_0_f98a2e99c8" y="181.44225"/>
    </g>
    <g clip-path="url(#p89b826919e)">
     <use style="fill:#4c72b0;fill-opacity:0.5;" x="102.68116" xlink:href="#C0_0_f98a2e99c8" y="159.69825"/>
    </g>
    <g clip-path="url(#p89b826919e)">
     <use style="fill:#4c72b0;fill-opacity:0.5;" x="111.949249" xlink:href="#C0_0_f98a2e99c8" y="148.82625"/>
    </g>
    <g clip-path="url(#p89b826919e)">
     <use style="fill:#4c72b0;fill-opacity:0.5;" x="112.904151" xlink:href="#C0_0_f98a2e99c8" y="170.57025"/>
    </g>
    <g clip-path="url(#p89b826919e)">
     <use style="fill:#4c72b0;fill-opacity:0.5;" x="120.892624" xlink:href="#C0_0_f98a2e99c8" y="167.85225"/>
    </g>
    <g clip-path="url(#p89b826919e)">
     <use style="fill:#4c72b0;fill-opacity:0.5;" x="112.597747" xlink:href="#C0_0_f98a2e99c8" y="146.10825"/>
    </g>
    <g clip-path="url(#p89b826919e)">
     <use style="fill:#4c72b0;fill-opacity:0.5;" x="104.77256" xlink:href="#C0_0_f98a2e99c8" y="132.51825"/>
    </g>
    <g clip-path="url(#p89b826919e)">
     <use style="fill:#4c72b0;fill-opacity:0.5;" x="108.520708" xlink:href="#C0_0_f98a2e99c8" y="170.57025"/>
    </g>
    <g clip-path="url(#p89b826919e)">
     <use style="fill:#4c72b0;fill-opacity:0.5;" x="114.625079" xlink:href="#C0_0_f98a2e99c8" y="154.26225"/>
    </g>
    <g clip-path="url(#p89b826919e)">
     <use style="fill:#4c72b0;fill-opacity:0.5;" x="106.720679" xlink:href="#C0_0_f98a2e99c8" y="176.00625"/>
    </g>
    <g clip-path="url(#p89b826919e)">
     <use style="fill:#4c72b0;fill-opacity:0.5;" x="117.098313" xlink:href="#C0_0_f98a2e99c8" y="156.98025"/>
    </g>
    <g clip-path="url(#p89b826919e)">
     <use style="fill:#4c72b0;fill-opacity:0.5;" x="115.876143" xlink:href="#C0_0_f98a2e99c8" y="127.08225"/>
    </g>
    <g clip-path="url(#p89b826919e)">
     <use style="fill:#4c72b0;fill-opacity:0.5;" x="107.751735" xlink:href="#C0_0_f98a2e99c8" y="148.82625"/>
    </g>
    <g clip-path="url(#p89b826919e)">
     <use style="fill:#4c72b0;fill-opacity:0.5;" x="106.2492" xlink:href="#C0_0_f98a2e99c8" y="162.41625"/>
    </g>
    <g clip-path="url(#p89b826919e)">
     <use style="fill:#4c72b0;fill-opacity:0.5;" x="111.782207" xlink:href="#C0_0_f98a2e99c8" y="146.10825"/>
    </g>
    <g clip-path="url(#p89b826919e)">
     <use style="fill:#4c72b0;fill-opacity:0.5;" x="113.947912" xlink:href="#C0_0_f98a2e99c8" y="140.67225"/>
    </g>
    <g clip-path="url(#p89b826919e)">
     <use style="fill:#4c72b0;fill-opacity:0.5;" x="114.874161" xlink:href="#C0_0_f98a2e99c8" y="140.67225"/>
    </g>
    <g clip-path="url(#p89b826919e)">
     <use style="fill:#4c72b0;fill-opacity:0.5;" x="120.384618" xlink:href="#C0_0_f98a2e99c8" y="176.00625"/>
    </g>
    <g clip-path="url(#p89b826919e)">
     <use style="fill:#4c72b0;fill-opacity:0.5;" x="116.875567" xlink:href="#C0_0_f98a2e99c8" y="167.85225"/>
    </g>
    <g clip-path="url(#p89b826919e)">
     <use style="fill:#4c72b0;fill-opacity:0.5;" x="105.376292" xlink:href="#C0_0_f98a2e99c8" y="143.39025"/>
    </g>
    <g clip-path="url(#p89b826919e)">
     <use style="fill:#4c72b0;fill-opacity:0.5;" x="122.498867" xlink:href="#C0_0_f98a2e99c8" y="154.26225"/>
    </g>
    <g clip-path="url(#p89b826919e)">
     <use style="fill:#4c72b0;fill-opacity:0.5;" x="106.660004" xlink:href="#C0_0_f98a2e99c8" y="129.80025"/>
    </g>
    <g clip-path="url(#p89b826919e)">
     <use style="fill:#4c72b0;fill-opacity:0.5;" x="109.542221" xlink:href="#C0_0_f98a2e99c8" y="146.10825"/>
    </g>
    <g clip-path="url(#p89b826919e)">
     <use style="fill:#4c72b0;fill-opacity:0.5;" x="115.235216" xlink:href="#C0_0_f98a2e99c8" y="129.80025"/>
    </g>
    <g clip-path="url(#p89b826919e)">
     <use style="fill:#4c72b0;fill-opacity:0.5;" x="117.806938" xlink:href="#C0_0_f98a2e99c8" y="151.54425"/>
    </g>
    <g clip-path="url(#p89b826919e)">
     <use style="fill:#4c72b0;fill-opacity:0.5;" x="107.374883" xlink:href="#C0_0_f98a2e99c8" y="148.82625"/>
    </g>
    <g clip-path="url(#p89b826919e)">
     <use style="fill:#4c72b0;fill-opacity:0.5;" x="112.108876" xlink:href="#C0_0_f98a2e99c8" y="129.80025"/>
    </g>
    <g clip-path="url(#p89b826919e)">
     <use style="fill:#4c72b0;fill-opacity:0.5;" x="118.441886" xlink:href="#C0_0_f98a2e99c8" y="146.10825"/>
    </g>
    <g clip-path="url(#p89b826919e)">
     <use style="fill:#4c72b0;fill-opacity:0.5;" x="116.704243" xlink:href="#C0_0_f98a2e99c8" y="156.98025"/>
    </g>
    <g clip-path="url(#p89b826919e)">
     <use style="fill:#4c72b0;fill-opacity:0.5;" x="116.435101" xlink:href="#C0_0_f98a2e99c8" y="189.59625"/>
    </g>
    <g clip-path="url(#p89b826919e)">
     <use style="fill:#4c72b0;fill-opacity:0.5;" x="121.475891" xlink:href="#C0_0_f98a2e99c8" y="140.67225"/>
    </g>
    <g clip-path="url(#p89b826919e)">
     <use style="fill:#4c72b0;fill-opacity:0.5;" x="114.810877" xlink:href="#C0_0_f98a2e99c8" y="140.67225"/>
    </g>
    <g clip-path="url(#p89b826919e)">
     <use style="fill:#4c72b0;fill-opacity:0.5;" x="120.086866" xlink:href="#C0_0_f98a2e99c8" y="137.95425"/>
    </g>
    <g clip-path="url(#p89b826919e)">
     <use style="fill:#4c72b0;fill-opacity:0.5;" x="106.347101" xlink:href="#C0_0_f98a2e99c8" y="165.13425"/>
    </g>
    <g clip-path="url(#p89b826919e)">
     <use style="fill:#4c72b0;fill-opacity:0.5;" x="117.230535" xlink:href="#C0_0_f98a2e99c8" y="140.67225"/>
    </g>
   </g>
   <g id="PathCollection_2">
    <defs>
     <path d="M 0 2.5 
C 0.663008 2.5 1.29895 2.236584 1.767767 1.767767 
C 2.236584 1.29895 2.5 0.663008 2.5 0 
C 2.5 -0.663008 2.236584 -1.29895 1.767767 -1.767767 
C 1.29895 -2.236584 0.663008 -2.5 0 -2.5 
C -0.663008 -2.5 -1.29895 -2.236584 -1.767767 -1.767767 
C -2.236584 -1.29895 -2.5 -0.663008 -2.5 0 
C -2.5 0.663008 -2.236584 1.29895 -1.767767 1.767767 
C -1.29895 2.236584 -0.663008 2.5 0 2.5 
z
" id="C1_0_d3c934bdb5"/>
    </defs>
    <g clip-path="url(#p89b826919e)">
     <use style="fill:#55a868;fill-opacity:0.5;" x="230.310347" xlink:href="#C1_0_d3c934bdb5" y="148.82625"/>
    </g>
    <g clip-path="url(#p89b826919e)">
     <use style="fill:#55a868;fill-opacity:0.5;" x="217.521867" xlink:href="#C1_0_d3c934bdb5" y="140.94405"/>
    </g>
    <g clip-path="url(#p89b826919e)">
     <use style="fill:#55a868;fill-opacity:0.5;" x="235.230246" xlink:href="#C1_0_d3c934bdb5" y="147.73905"/>
    </g>
    <g clip-path="url(#p89b826919e)">
     <use style="fill:#55a868;fill-opacity:0.5;" x="221.276288" xlink:href="#C1_0_d3c934bdb5" y="149.36985"/>
    </g>
    <g clip-path="url(#p89b826919e)">
     <use style="fill:#55a868;fill-opacity:0.5;" x="220.777513" xlink:href="#C1_0_d3c934bdb5" y="149.64165"/>
    </g>
    <g clip-path="url(#p89b826919e)">
     <use style="fill:#55a868;fill-opacity:0.5;" x="215.600237" xlink:href="#C1_0_d3c934bdb5" y="145.83645"/>
    </g>
    <g clip-path="url(#p89b826919e)">
     <use style="fill:#55a868;fill-opacity:0.5;" x="231.594413" xlink:href="#C1_0_d3c934bdb5" y="154.26225"/>
    </g>
    <g clip-path="url(#p89b826919e)">
     <use style="fill:#55a868;fill-opacity:0.5;" x="215.237841" xlink:href="#C1_0_d3c934bdb5" y="154.53405"/>
    </g>
    <g clip-path="url(#p89b826919e)">
     <use style="fill:#55a868;fill-opacity:0.5;" x="219.778274" xlink:href="#C1_0_d3c934bdb5" y="152.35965"/>
    </g>
    <g clip-path="url(#p89b826919e)">
     <use style="fill:#55a868;fill-opacity:0.5;" x="222.082234" xlink:href="#C1_0_d3c934bdb5" y="143.66205"/>
    </g>
    <g clip-path="url(#p89b826919e)">
     <use style="fill:#55a868;fill-opacity:0.5;" x="216.494682" xlink:href="#C1_0_d3c934bdb5" y="150.72885"/>
    </g>
    <g clip-path="url(#p89b826919e)">
     <use style="fill:#55a868;fill-opacity:0.5;" x="218.638918" xlink:href="#C1_0_d3c934bdb5" y="143.39025"/>
    </g>
    <g clip-path="url(#p89b826919e)">
     <use style="fill:#55a868;fill-opacity:0.5;" x="215.873131" xlink:href="#C1_0_d3c934bdb5" y="152.63145"/>
    </g>
    <g clip-path="url(#p89b826919e)">
     <use style="fill:#55a868;fill-opacity:0.5;" x="226.823856" xlink:href="#C1_0_d3c934bdb5" y="164.86245"/>
    </g>
    <g clip-path="url(#p89b826919e)">
     <use style="fill:#55a868;fill-opacity:0.5;" x="227.193331" xlink:href="#C1_0_d3c934bdb5" y="152.90325"/>
    </g>
    <g clip-path="url(#p89b826919e)">
     <use style="fill:#55a868;fill-opacity:0.5;" x="232.89593" xlink:href="#C1_0_d3c934bdb5" y="150.72885"/>
    </g>
    <g clip-path="url(#p89b826919e)">
     <use style="fill:#55a868;fill-opacity:0.5;" x="216.121097" xlink:href="#C1_0_d3c934bdb5" y="148.01085"/>
    </g>
    <g clip-path="url(#p89b826919e)">
     <use style="fill:#55a868;fill-opacity:0.5;" x="235.512694" xlink:href="#C1_0_d3c934bdb5" y="148.28265"/>
    </g>
    <g clip-path="url(#p89b826919e)">
     <use style="fill:#55a868;fill-opacity:0.5;" x="223.183805" xlink:href="#C1_0_d3c934bdb5" y="148.28265"/>
    </g>
    <g clip-path="url(#p89b826919e)">
     <use style="fill:#55a868;fill-opacity:0.5;" x="226.637463" xlink:href="#C1_0_d3c934bdb5" y="150.18525"/>
    </g>
    <g clip-path="url(#p89b826919e)">
     <use style="fill:#55a868;fill-opacity:0.5;" x="223.623259" xlink:href="#C1_0_d3c934bdb5" y="152.35965"/>
    </g>
    <g clip-path="url(#p89b826919e)">
     <use style="fill:#55a868;fill-opacity:0.5;" x="217.765719" xlink:href="#C1_0_d3c934bdb5" y="156.98025"/>
    </g>
    <g clip-path="url(#p89b826919e)">
     <use style="fill:#55a868;fill-opacity:0.5;" x="213.95948" xlink:href="#C1_0_d3c934bdb5" y="151.27245"/>
    </g>
    <g clip-path="url(#p89b826919e)">
     <use style="fill:#55a868;fill-opacity:0.5;" x="232.782183" xlink:href="#C1_0_d3c934bdb5" y="152.63145"/>
    </g>
    <g clip-path="url(#p89b826919e)">
     <use style="fill:#55a868;fill-opacity:0.5;" x="231.409937" xlink:href="#C1_0_d3c934bdb5" y="158.33925"/>
    </g>
    <g clip-path="url(#p89b826919e)">
     <use style="fill:#55a868;fill-opacity:0.5;" x="222.598619" xlink:href="#C1_0_d3c934bdb5" y="154.26225"/>
    </g>
    <g clip-path="url(#p89b826919e)">
     <use style="fill:#55a868;fill-opacity:0.5;" x="215.796081" xlink:href="#C1_0_d3c934bdb5" y="157.52385"/>
    </g>
    <g clip-path="url(#p89b826919e)">
     <use style="fill:#55a868;fill-opacity:0.5;" x="234.716714" xlink:href="#C1_0_d3c934bdb5" y="152.35965"/>
    </g>
    <g clip-path="url(#p89b826919e)">
     <use style="fill:#55a868;fill-opacity:0.5;" x="228.389121" xlink:href="#C1_0_d3c934bdb5" y="149.64165"/>
    </g>
    <g clip-path="url(#p89b826919e)">
     <use style="fill:#55a868;fill-opacity:0.5;" x="218.038386" xlink:href="#C1_0_d3c934bdb5" y="144.47745"/>
    </g>
    <g clip-path="url(#p89b826919e)">
     <use style="fill:#55a868;fill-opacity:0.5;" x="233.79005" xlink:href="#C1_0_d3c934bdb5" y="150.45705"/>
    </g>
    <g clip-path="url(#p89b826919e)">
     <use style="fill:#55a868;fill-opacity:0.5;" x="235.295044" xlink:href="#C1_0_d3c934bdb5" y="152.90325"/>
    </g>
    <g clip-path="url(#p89b826919e)">
     <use style="fill:#55a868;fill-opacity:0.5;" x="225.230491" xlink:href="#C1_0_d3c934bdb5" y="154.53405"/>
    </g>
    <g clip-path="url(#p89b826919e)">
     <use style="fill:#55a868;fill-opacity:0.5;" x="222.513311" xlink:href="#C1_0_d3c934bdb5" y="151.00065"/>
    </g>
    <g clip-path="url(#p89b826919e)">
     <use style="fill:#55a868;fill-opacity:0.5;" x="218.788838" xlink:href="#C1_0_d3c934bdb5" y="158.06745"/>
    </g>
    <g clip-path="url(#p89b826919e)">
     <use style="fill:#55a868;fill-opacity:0.5;" x="215.743011" xlink:href="#C1_0_d3c934bdb5" y="152.90325"/>
    </g>
    <g clip-path="url(#p89b826919e)">
     <use style="fill:#55a868;fill-opacity:0.5;" x="214.758224" xlink:href="#C1_0_d3c934bdb5" y="142.84665"/>
    </g>
    <g clip-path="url(#p89b826919e)">
     <use style="fill:#55a868;fill-opacity:0.5;" x="232.620543" xlink:href="#C1_0_d3c934bdb5" y="140.67225"/>
    </g>
    <g clip-path="url(#p89b826919e)">
     <use style="fill:#55a868;fill-opacity:0.5;" x="222.297217" xlink:href="#C1_0_d3c934bdb5" y="148.55445"/>
    </g>
    <g clip-path="url(#p89b826919e)">
     <use style="fill:#55a868;fill-opacity:0.5;" x="226.987763" xlink:href="#C1_0_d3c934bdb5" y="152.63145"/>
    </g>
    <g clip-path="url(#p89b826919e)">
     <use style="fill:#55a868;fill-opacity:0.5;" x="228.094741" xlink:href="#C1_0_d3c934bdb5" y="150.18525"/>
    </g>
    <g clip-path="url(#p89b826919e)">
     <use style="fill:#55a868;fill-opacity:0.5;" x="216.193114" xlink:href="#C1_0_d3c934bdb5" y="152.08785"/>
    </g>
    <g clip-path="url(#p89b826919e)">
     <use style="fill:#55a868;fill-opacity:0.5;" x="233.071448" xlink:href="#C1_0_d3c934bdb5" y="148.01085"/>
    </g>
    <g clip-path="url(#p89b826919e)">
     <use style="fill:#55a868;fill-opacity:0.5;" x="219.420058" xlink:href="#C1_0_d3c934bdb5" y="153.99045"/>
    </g>
    <g clip-path="url(#p89b826919e)">
     <use style="fill:#55a868;fill-opacity:0.5;" x="234.319528" xlink:href="#C1_0_d3c934bdb5" y="146.38005"/>
    </g>
    <g clip-path="url(#p89b826919e)">
     <use style="fill:#55a868;fill-opacity:0.5;" x="232.409621" xlink:href="#C1_0_d3c934bdb5" y="149.09805"/>
    </g>
    <g clip-path="url(#p89b826919e)">
     <use style="fill:#55a868;fill-opacity:0.5;" x="221.382648" xlink:href="#C1_0_d3c934bdb5" y="149.91345"/>
    </g>
    <g clip-path="url(#p89b826919e)">
     <use style="fill:#55a868;fill-opacity:0.5;" x="219.803265" xlink:href="#C1_0_d3c934bdb5" y="145.02105"/>
    </g>
    <g clip-path="url(#p89b826919e)">
     <use style="fill:#55a868;fill-opacity:0.5;" x="228.52603" xlink:href="#C1_0_d3c934bdb5" y="149.36985"/>
    </g>
    <g clip-path="url(#p89b826919e)">
     <use style="fill:#55a868;fill-opacity:0.5;" x="230.586664" xlink:href="#C1_0_d3c934bdb5" y="149.36985"/>
    </g>
   </g>
   <g id="PathCollection_3">
    <defs>
     <path d="M 0 2.5 
C 0.663008 2.5 1.29895 2.236584 1.767767 1.767767 
C 2.236584 1.29895 2.5 0.663008 2.5 0 
C 2.5 -0.663008 2.236584 -1.29895 1.767767 -1.767767 
C 1.29895 -2.236584 0.663008 -2.5 0 -2.5 
C -0.663008 -2.5 -1.29895 -2.236584 -1.767767 -1.767767 
C -2.236584 -1.29895 -2.5 -0.663008 -2.5 0 
C -2.5 0.663008 -2.236584 1.29895 -1.767767 1.767767 
C -1.29895 2.236584 -0.663008 2.5 0 2.5 
z
" id="C2_0_4d3853979c"/>
    </defs>
    <g clip-path="url(#p89b826919e)">
     <use style="fill:#c44e52;fill-opacity:0.5;" x="333.943399" xlink:href="#C2_0_4d3853979c" y="147.68469"/>
    </g>
    <g clip-path="url(#p89b826919e)">
     <use style="fill:#c44e52;fill-opacity:0.5;" x="328.852995" xlink:href="#C2_0_4d3853979c" y="147.24981"/>
    </g>
    <g clip-path="url(#p89b826919e)">
     <use style="fill:#c44e52;fill-opacity:0.5;" x="337.937632" xlink:href="#C2_0_4d3853979c" y="147.27699"/>
    </g>
    <g clip-path="url(#p89b826919e)">
     <use style="fill:#c44e52;fill-opacity:0.5;" x="331.781758" xlink:href="#C2_0_4d3853979c" y="148.85343"/>
    </g>
    <g clip-path="url(#p89b826919e)">
     <use style="fill:#c44e52;fill-opacity:0.5;" x="334.939249" xlink:href="#C2_0_4d3853979c" y="148.03803"/>
    </g>
    <g clip-path="url(#p89b826919e)">
     <use style="fill:#c44e52;fill-opacity:0.5;" x="326.501925" xlink:href="#C2_0_4d3853979c" y="150.13089"/>
    </g>
    <g clip-path="url(#p89b826919e)">
     <use style="fill:#c44e52;fill-opacity:0.5;" x="347.07483" xlink:href="#C2_0_4d3853979c" y="149.39703"/>
    </g>
    <g clip-path="url(#p89b826919e)">
     <use style="fill:#c44e52;fill-opacity:0.5;" x="336.493193" xlink:href="#C2_0_4d3853979c" y="147.52161"/>
    </g>
    <g clip-path="url(#p89b826919e)">
     <use style="fill:#c44e52;fill-opacity:0.5;" x="344.232988" xlink:href="#C2_0_4d3853979c" y="150.26679"/>
    </g>
    <g clip-path="url(#p89b826919e)">
     <use style="fill:#c44e52;fill-opacity:0.5;" x="342.093239" xlink:href="#C2_0_4d3853979c" y="148.41855"/>
    </g>
    <g clip-path="url(#p89b826919e)">
     <use style="fill:#c44e52;fill-opacity:0.5;" x="345.643855" xlink:href="#C2_0_4d3853979c" y="149.09805"/>
    </g>
    <g clip-path="url(#p89b826919e)">
     <use style="fill:#c44e52;fill-opacity:0.5;" x="336.454082" xlink:href="#C2_0_4d3853979c" y="152.74017"/>
    </g>
    <g clip-path="url(#p89b826919e)">
     <use style="fill:#c44e52;fill-opacity:0.5;" x="328.952266" xlink:href="#C2_0_4d3853979c" y="150.91911"/>
    </g>
    <g clip-path="url(#p89b826919e)">
     <use style="fill:#c44e52;fill-opacity:0.5;" x="342.497287" xlink:href="#C2_0_4d3853979c" y="148.03803"/>
    </g>
    <g clip-path="url(#p89b826919e)">
     <use style="fill:#c44e52;fill-opacity:0.5;" x="335.750703" xlink:href="#C2_0_4d3853979c" y="148.09239"/>
    </g>
    <g clip-path="url(#p89b826919e)">
     <use style="fill:#c44e52;fill-opacity:0.5;" x="337.400274" xlink:href="#C2_0_4d3853979c" y="149.96781"/>
    </g>
    <g clip-path="url(#p89b826919e)">
     <use style="fill:#c44e52;fill-opacity:0.5;" x="346.926995" xlink:href="#C2_0_4d3853979c" y="146.48877"/>
    </g>
    <g clip-path="url(#p89b826919e)">
     <use style="fill:#c44e52;fill-opacity:0.5;" x="341.412257" xlink:href="#C2_0_4d3853979c" y="150.29397"/>
    </g>
    <g clip-path="url(#p89b826919e)">
     <use style="fill:#c44e52;fill-opacity:0.5;" x="342.616865" xlink:href="#C2_0_4d3853979c" y="151.78887"/>
    </g>
    <g clip-path="url(#p89b826919e)">
     <use style="fill:#c44e52;fill-opacity:0.5;" x="337.681306" xlink:href="#C2_0_4d3853979c" y="147.65751"/>
    </g>
    <g clip-path="url(#p89b826919e)">
     <use style="fill:#c44e52;fill-opacity:0.5;" x="327.241166" xlink:href="#C2_0_4d3853979c" y="146.59749"/>
    </g>
    <g clip-path="url(#p89b826919e)">
     <use style="fill:#c44e52;fill-opacity:0.5;" x="337.500091" xlink:href="#C2_0_4d3853979c" y="149.23395"/>
    </g>
    <g clip-path="url(#p89b826919e)">
     <use style="fill:#c44e52;fill-opacity:0.5;" x="332.94997" xlink:href="#C2_0_4d3853979c" y="147.63033"/>
    </g>
    <g clip-path="url(#p89b826919e)">
     <use style="fill:#c44e52;fill-opacity:0.5;" x="340.750238" xlink:href="#C2_0_4d3853979c" y="148.96215"/>
    </g>
    <g clip-path="url(#p89b826919e)">
     <use style="fill:#c44e52;fill-opacity:0.5;" x="341.606513" xlink:href="#C2_0_4d3853979c" y="147.35853"/>
    </g>
    <g clip-path="url(#p89b826919e)">
     <use style="fill:#c44e52;fill-opacity:0.5;" x="326.619536" xlink:href="#C2_0_4d3853979c" y="147.46725"/>
    </g>
    <g clip-path="url(#p89b826919e)">
     <use style="fill:#c44e52;fill-opacity:0.5;" x="340.529498" xlink:href="#C2_0_4d3853979c" y="150.56577"/>
    </g>
    <g clip-path="url(#p89b826919e)">
     <use style="fill:#c44e52;fill-opacity:0.5;" x="338.076728" xlink:href="#C2_0_4d3853979c" y="146.84211"/>
    </g>
    <g clip-path="url(#p89b826919e)">
     <use style="fill:#c44e52;fill-opacity:0.5;" x="334.412751" xlink:href="#C2_0_4d3853979c" y="148.88061"/>
    </g>
    <g clip-path="url(#p89b826919e)">
     <use style="fill:#c44e52;fill-opacity:0.5;" x="333.853479" xlink:href="#C2_0_4d3853979c" y="147.71187"/>
    </g>
    <g clip-path="url(#p89b826919e)">
     <use style="fill:#c44e52;fill-opacity:0.5;" x="333.429688" xlink:href="#C2_0_4d3853979c" y="151.10937"/>
    </g>
    <g clip-path="url(#p89b826919e)">
     <use style="fill:#c44e52;fill-opacity:0.5;" x="332.824074" xlink:href="#C2_0_4d3853979c" y="148.60881"/>
    </g>
    <g clip-path="url(#p89b826919e)">
     <use style="fill:#c44e52;fill-opacity:0.5;" x="345.919542" xlink:href="#C2_0_4d3853979c" y="148.47291"/>
    </g>
    <g clip-path="url(#p89b826919e)">
     <use style="fill:#c44e52;fill-opacity:0.5;" x="328.72777" xlink:href="#C2_0_4d3853979c" y="146.65185"/>
    </g>
    <g clip-path="url(#p89b826919e)">
     <use style="fill:#c44e52;fill-opacity:0.5;" x="345.779562" xlink:href="#C2_0_4d3853979c" y="147.63033"/>
    </g>
    <g clip-path="url(#p89b826919e)">
     <use style="fill:#c44e52;fill-opacity:0.5;" x="345.525172" xlink:href="#C2_0_4d3853979c" y="150.72885"/>
    </g>
    <g clip-path="url(#p89b826919e)">
     <use style="fill:#c44e52;fill-opacity:0.5;" x="339.765015" xlink:href="#C2_0_4d3853979c" y="147.14109"/>
    </g>
    <g clip-path="url(#p89b826919e)">
     <use style="fill:#c44e52;fill-opacity:0.5;" x="342.801726" xlink:href="#C2_0_4d3853979c" y="148.52727"/>
    </g>
    <g clip-path="url(#p89b826919e)">
     <use style="fill:#c44e52;fill-opacity:0.5;" x="329.25147" xlink:href="#C2_0_4d3853979c" y="150.51141"/>
    </g>
    <g clip-path="url(#p89b826919e)">
     <use style="fill:#c44e52;fill-opacity:0.5;" x="346.970718" xlink:href="#C2_0_4d3853979c" y="148.14675"/>
    </g>
    <g clip-path="url(#p89b826919e)">
     <use style="fill:#c44e52;fill-opacity:0.5;" x="326.981015" xlink:href="#C2_0_4d3853979c" y="147.00519"/>
    </g>
    <g clip-path="url(#p89b826919e)">
     <use style="fill:#c44e52;fill-opacity:0.5;" x="331.460903" xlink:href="#C2_0_4d3853979c" y="144.26001"/>
    </g>
    <g clip-path="url(#p89b826919e)">
     <use style="fill:#c44e52;fill-opacity:0.5;" x="333.81833" xlink:href="#C2_0_4d3853979c" y="146.89647"/>
    </g>
    <g clip-path="url(#p89b826919e)">
     <use style="fill:#c44e52;fill-opacity:0.5;" x="330.090725" xlink:href="#C2_0_4d3853979c" y="146.27133"/>
    </g>
    <g clip-path="url(#p89b826919e)">
     <use style="fill:#c44e52;fill-opacity:0.5;" x="342.285765" xlink:href="#C2_0_4d3853979c" y="147.63033"/>
    </g>
    <g clip-path="url(#p89b826919e)">
     <use style="fill:#c44e52;fill-opacity:0.5;" x="343.186626" xlink:href="#C2_0_4d3853979c" y="147.68469"/>
    </g>
    <g clip-path="url(#p89b826919e)">
     <use style="fill:#c44e52;fill-opacity:0.5;" x="328.235215" xlink:href="#C2_0_4d3853979c" y="148.63599"/>
    </g>
    <g clip-path="url(#p89b826919e)">
     <use style="fill:#c44e52;fill-opacity:0.5;" x="331.390693" xlink:href="#C2_0_4d3853979c" y="148.71753"/>
    </g>
    <g clip-path="url(#p89b826919e)">
     <use style="fill:#c44e52;fill-opacity:0.5;" x="334.751054" xlink:href="#C2_0_4d3853979c" y="148.36419"/>
    </g>
    <g clip-path="url(#p89b826919e)">
     <use style="fill:#c44e52;fill-opacity:0.5;" x="334.970727" xlink:href="#C2_0_4d3853979c" y="152.38683"/>
    </g>
   </g>
   <g id="PathCollection_4">
    <defs>
     <path d="M 0 2.5 
C 0.663008 2.5 1.29895 2.236584 1.767767 1.767767 
C 2.236584 1.29895 2.5 0.663008 2.5 0 
C 2.5 -0.663008 2.236584 -1.29895 1.767767 -1.767767 
C 1.29895 -2.236584 0.663008 -2.5 0 -2.5 
C -0.663008 -2.5 -1.29895 -2.236584 -1.767767 -1.767767 
C -2.236584 -1.29895 -2.5 -0.663008 -2.5 0 
C -2.5 0.663008 -2.236584 1.29895 -1.767767 1.767767 
C -1.29895 2.236584 -0.663008 2.5 0 2.5 
z
" id="C3_0_7bd658e724"/>
    </defs>
    <g clip-path="url(#p89b826919e)">
     <use style="fill:#8172b2;fill-opacity:0.5;" x="446.608859" xlink:href="#C3_0_7bd658e724" y="148.315266"/>
    </g>
    <g clip-path="url(#p89b826919e)">
     <use style="fill:#8172b2;fill-opacity:0.5;" x="437.467871" xlink:href="#C3_0_7bd658e724" y="148.7583"/>
    </g>
    <g clip-path="url(#p89b826919e)">
     <use style="fill:#8172b2;fill-opacity:0.5;" x="446.584992" xlink:href="#C3_0_7bd658e724" y="149.000202"/>
    </g>
    <g clip-path="url(#p89b826919e)">
     <use style="fill:#8172b2;fill-opacity:0.5;" x="457.145731" xlink:href="#C3_0_7bd658e724" y="148.81266"/>
    </g>
    <g clip-path="url(#p89b826919e)">
     <use style="fill:#8172b2;fill-opacity:0.5;" x="437.148196" xlink:href="#C3_0_7bd658e724" y="148.3506"/>
    </g>
    <g clip-path="url(#p89b826919e)">
     <use style="fill:#8172b2;fill-opacity:0.5;" x="443.704614" xlink:href="#C3_0_7bd658e724" y="149.312772"/>
    </g>
    <g clip-path="url(#p89b826919e)">
     <use style="fill:#8172b2;fill-opacity:0.5;" x="446.193643" xlink:href="#C3_0_7bd658e724" y="148.902354"/>
    </g>
    <g clip-path="url(#p89b826919e)">
     <use style="fill:#8172b2;fill-opacity:0.5;" x="441.625686" xlink:href="#C3_0_7bd658e724" y="148.682196"/>
    </g>
    <g clip-path="url(#p89b826919e)">
     <use style="fill:#8172b2;fill-opacity:0.5;" x="458.608672" xlink:href="#C3_0_7bd658e724" y="148.054338"/>
    </g>
    <g clip-path="url(#p89b826919e)">
     <use style="fill:#8172b2;fill-opacity:0.5;" x="445.09651" xlink:href="#C3_0_7bd658e724" y="149.005638"/>
    </g>
    <g clip-path="url(#p89b826919e)">
     <use style="fill:#8172b2;fill-opacity:0.5;" x="441.173876" xlink:href="#C3_0_7bd658e724" y="148.163058"/>
    </g>
    <g clip-path="url(#p89b826919e)">
     <use style="fill:#8172b2;fill-opacity:0.5;" x="437.221792" xlink:href="#C3_0_7bd658e724" y="148.11957"/>
    </g>
    <g clip-path="url(#p89b826919e)">
     <use style="fill:#8172b2;fill-opacity:0.5;" x="453.985536" xlink:href="#C3_0_7bd658e724" y="148.11957"/>
    </g>
    <g clip-path="url(#p89b826919e)">
     <use style="fill:#8172b2;fill-opacity:0.5;" x="437.583853" xlink:href="#C3_0_7bd658e724" y="148.413114"/>
    </g>
    <g clip-path="url(#p89b826919e)">
     <use style="fill:#8172b2;fill-opacity:0.5;" x="453.104006" xlink:href="#C3_0_7bd658e724" y="148.856148"/>
    </g>
    <g clip-path="url(#p89b826919e)">
     <use style="fill:#8172b2;fill-opacity:0.5;" x="448.301505" xlink:href="#C3_0_7bd658e724" y="148.11957"/>
    </g>
    <g clip-path="url(#p89b826919e)">
     <use style="fill:#8172b2;fill-opacity:0.5;" x="456.61993" xlink:href="#C3_0_7bd658e724" y="148.896918"/>
    </g>
    <g clip-path="url(#p89b826919e)">
     <use style="fill:#8172b2;fill-opacity:0.5;" x="451.336525" xlink:href="#C3_0_7bd658e724" y="148.847994"/>
    </g>
    <g clip-path="url(#p89b826919e)">
     <use style="fill:#8172b2;fill-opacity:0.5;" x="437.861466" xlink:href="#C3_0_7bd658e724" y="148.168494"/>
    </g>
    <g clip-path="url(#p89b826919e)">
     <use style="fill:#8172b2;fill-opacity:0.5;" x="454.329941" xlink:href="#C3_0_7bd658e724" y="148.83984"/>
    </g>
    <g clip-path="url(#p89b826919e)">
     <use style="fill:#8172b2;fill-opacity:0.5;" x="454.386666" xlink:href="#C3_0_7bd658e724" y="149.217642"/>
    </g>
    <g clip-path="url(#p89b826919e)">
     <use style="fill:#8172b2;fill-opacity:0.5;" x="452.972643" xlink:href="#C3_0_7bd658e724" y="148.842558"/>
    </g>
    <g clip-path="url(#p89b826919e)">
     <use style="fill:#8172b2;fill-opacity:0.5;" x="458.478331" xlink:href="#C3_0_7bd658e724" y="149.106204"/>
    </g>
    <g clip-path="url(#p89b826919e)">
     <use style="fill:#8172b2;fill-opacity:0.5;" x="451.764871" xlink:href="#C3_0_7bd658e724" y="148.837122"/>
    </g>
    <g clip-path="url(#p89b826919e)">
     <use style="fill:#8172b2;fill-opacity:0.5;" x="450.353792" xlink:href="#C3_0_7bd658e724" y="148.728402"/>
    </g>
    <g clip-path="url(#p89b826919e)">
     <use style="fill:#8172b2;fill-opacity:0.5;" x="458.282595" xlink:href="#C3_0_7bd658e724" y="149.263848"/>
    </g>
    <g clip-path="url(#p89b826919e)">
     <use style="fill:#8172b2;fill-opacity:0.5;" x="439.206882" xlink:href="#C3_0_7bd658e724" y="149.223078"/>
    </g>
    <g clip-path="url(#p89b826919e)">
     <use style="fill:#8172b2;fill-opacity:0.5;" x="448.284963" xlink:href="#C3_0_7bd658e724" y="148.353318"/>
    </g>
    <g clip-path="url(#p89b826919e)">
     <use style="fill:#8172b2;fill-opacity:0.5;" x="442.149846" xlink:href="#C3_0_7bd658e724" y="149.035536"/>
    </g>
    <g clip-path="url(#p89b826919e)">
     <use style="fill:#8172b2;fill-opacity:0.5;" x="449.067869" xlink:href="#C3_0_7bd658e724" y="148.918662"/>
    </g>
    <g clip-path="url(#p89b826919e)">
     <use style="fill:#8172b2;fill-opacity:0.5;" x="457.981623" xlink:href="#C3_0_7bd658e724" y="148.10598"/>
    </g>
    <g clip-path="url(#p89b826919e)">
     <use style="fill:#8172b2;fill-opacity:0.5;" x="455.458924" xlink:href="#C3_0_7bd658e724" y="148.646862"/>
    </g>
    <g clip-path="url(#p89b826919e)">
     <use style="fill:#8172b2;fill-opacity:0.5;" x="448.22808" xlink:href="#C3_0_7bd658e724" y="148.47291"/>
    </g>
    <g clip-path="url(#p89b826919e)">
     <use style="fill:#8172b2;fill-opacity:0.5;" x="452.487064" xlink:href="#C3_0_7bd658e724" y="148.831686"/>
    </g>
    <g clip-path="url(#p89b826919e)">
     <use style="fill:#8172b2;fill-opacity:0.5;" x="453.786387" xlink:href="#C3_0_7bd658e724" y="147.877668"/>
    </g>
    <g clip-path="url(#p89b826919e)">
     <use style="fill:#8172b2;fill-opacity:0.5;" x="454.971252" xlink:href="#C3_0_7bd658e724" y="148.478346"/>
    </g>
    <g clip-path="url(#p89b826919e)">
     <use style="fill:#8172b2;fill-opacity:0.5;" x="440.388522" xlink:href="#C3_0_7bd658e724" y="148.09239"/>
    </g>
    <g clip-path="url(#p89b826919e)">
     <use style="fill:#8172b2;fill-opacity:0.5;" x="447.018403" xlink:href="#C3_0_7bd658e724" y="148.250034"/>
    </g>
    <g clip-path="url(#p89b826919e)">
     <use style="fill:#8172b2;fill-opacity:0.5;" x="441.993032" xlink:href="#C3_0_7bd658e724" y="148.467474"/>
    </g>
    <g clip-path="url(#p89b826919e)">
     <use style="fill:#8172b2;fill-opacity:0.5;" x="455.481016" xlink:href="#C3_0_7bd658e724" y="149.059998"/>
    </g>
    <g clip-path="url(#p89b826919e)">
     <use style="fill:#8172b2;fill-opacity:0.5;" x="452.573606" xlink:href="#C3_0_7bd658e724" y="148.714812"/>
    </g>
    <g clip-path="url(#p89b826919e)">
     <use style="fill:#8172b2;fill-opacity:0.5;" x="446.522635" xlink:href="#C3_0_7bd658e724" y="148.179366"/>
    </g>
    <g clip-path="url(#p89b826919e)">
     <use style="fill:#8172b2;fill-opacity:0.5;" x="443.040357" xlink:href="#C3_0_7bd658e724" y="148.842558"/>
    </g>
    <g clip-path="url(#p89b826919e)">
     <use style="fill:#8172b2;fill-opacity:0.5;" x="443.728965" xlink:href="#C3_0_7bd658e724" y="148.807224"/>
    </g>
    <g clip-path="url(#p89b826919e)">
     <use style="fill:#8172b2;fill-opacity:0.5;" x="448.211656" xlink:href="#C3_0_7bd658e724" y="148.176648"/>
    </g>
    <g clip-path="url(#p89b826919e)">
     <use style="fill:#8172b2;fill-opacity:0.5;" x="453.150972" xlink:href="#C3_0_7bd658e724" y="148.834404"/>
    </g>
    <g clip-path="url(#p89b826919e)">
     <use style="fill:#8172b2;fill-opacity:0.5;" x="448.671248" xlink:href="#C3_0_7bd658e724" y="149.209488"/>
    </g>
    <g clip-path="url(#p89b826919e)">
     <use style="fill:#8172b2;fill-opacity:0.5;" x="451.248044" xlink:href="#C3_0_7bd658e724" y="148.722966"/>
    </g>
    <g clip-path="url(#p89b826919e)">
     <use style="fill:#8172b2;fill-opacity:0.5;" x="453.993015" xlink:href="#C3_0_7bd658e724" y="148.861584"/>
    </g>
    <g clip-path="url(#p89b826919e)">
     <use style="fill:#8172b2;fill-opacity:0.5;" x="445.962396" xlink:href="#C3_0_7bd658e724" y="148.535424"/>
    </g>
   </g>
   <g id="text_10">
    <!-- $\{control_i\}=\{exp_i\}$ -->
    <defs>
     <path d="M 51.125 -9.28125 
L 51.125 -16.3125 
L 48.09375 -16.3125 
Q 35.9375 -16.3125 31.8125 -12.6875 
Q 27.6875 -9.078125 27.6875 1.703125 
L 27.6875 13.375 
Q 27.6875 20.75 25.046875 23.578125 
Q 22.40625 26.421875 15.484375 26.421875 
L 12.5 26.421875 
L 12.5 33.40625 
L 15.484375 33.40625 
Q 22.46875 33.40625 25.078125 36.203125 
Q 27.6875 39.015625 27.6875 46.296875 
L 27.6875 58.015625 
Q 27.6875 68.796875 31.8125 72.390625 
Q 35.9375 75.984375 48.09375 75.984375 
L 51.125 75.984375 
L 51.125 69 
L 47.796875 69 
Q 40.921875 69 38.8125 66.84375 
Q 36.71875 64.703125 36.71875 57.8125 
L 36.71875 45.703125 
Q 36.71875 38.03125 34.5 34.5625 
Q 32.28125 31.109375 26.90625 29.890625 
Q 32.328125 28.5625 34.515625 25.09375 
Q 36.71875 21.625 36.71875 14.015625 
L 36.71875 1.90625 
Q 36.71875 -4.984375 38.8125 -7.125 
Q 40.921875 -9.28125 47.796875 -9.28125 
z
" id="DejaVuSans-7b"/>
     <path d="M 53.609375 52.59375 
L 51.8125 43.703125 
Q 48.578125 46.046875 44.9375 47.21875 
Q 41.3125 48.390625 37.40625 48.390625 
Q 33.109375 48.390625 29.21875 46.875 
Q 25.34375 45.359375 22.703125 42.578125 
Q 18.5 38.328125 16.203125 32.609375 
Q 13.921875 26.90625 13.921875 20.796875 
Q 13.921875 13.421875 17.609375 9.8125 
Q 21.296875 6.203125 28.8125 6.203125 
Q 32.515625 6.203125 36.6875 7.328125 
Q 40.875 8.453125 45.40625 10.6875 
L 43.703125 1.8125 
Q 39.796875 0.203125 35.671875 -0.609375 
Q 31.546875 -1.421875 27.203125 -1.421875 
Q 16.3125 -1.421875 10.453125 4.015625 
Q 4.59375 9.46875 4.59375 19.578125 
Q 4.59375 28.078125 7.640625 35.234375 
Q 10.6875 42.390625 16.703125 48.09375 
Q 20.796875 52 26.3125 54 
Q 31.84375 56 38.375 56 
Q 42.1875 56 45.9375 55.140625 
Q 49.703125 54.296875 53.609375 52.59375 
z
" id="DejaVuSans-Oblique-63"/>
     <path d="M 25.390625 -1.421875 
Q 15.765625 -1.421875 10.171875 4.515625 
Q 4.59375 10.453125 4.59375 20.703125 
Q 4.59375 26.65625 6.515625 32.828125 
Q 8.453125 39.015625 11.53125 43.21875 
Q 16.359375 49.75 22.3125 52.875 
Q 28.265625 56 35.796875 56 
Q 45.125 56 50.859375 50.1875 
Q 56.59375 44.390625 56.59375 35.015625 
Q 56.59375 28.515625 54.6875 22.0625 
Q 52.78125 15.625 49.703125 11.375 
Q 44.921875 4.828125 38.96875 1.703125 
Q 33.015625 -1.421875 25.390625 -1.421875 
z
M 13.921875 21 
Q 13.921875 13.578125 17.015625 9.890625 
Q 20.125 6.203125 26.421875 6.203125 
Q 35.453125 6.203125 41.375 14.078125 
Q 47.3125 21.96875 47.3125 34.078125 
Q 47.3125 41.15625 44.140625 44.765625 
Q 40.96875 48.390625 34.8125 48.390625 
Q 29.734375 48.390625 25.78125 46.015625 
Q 21.828125 43.65625 18.703125 38.8125 
Q 16.40625 35.203125 15.15625 30.5625 
Q 13.921875 25.921875 13.921875 21 
z
" id="DejaVuSans-Oblique-6f"/>
     <path d="M 42.28125 54.6875 
L 40.921875 47.703125 
L 23 47.703125 
L 17.1875 18.015625 
Q 16.890625 16.359375 16.75 15.234375 
Q 16.609375 14.109375 16.609375 13.484375 
Q 16.609375 10.359375 18.484375 8.9375 
Q 20.359375 7.515625 24.515625 7.515625 
L 33.59375 7.515625 
L 32.078125 0 
L 23.484375 0 
Q 15.484375 0 11.546875 3.125 
Q 7.625 6.25 7.625 12.59375 
Q 7.625 13.71875 7.765625 15.0625 
Q 7.90625 16.40625 8.203125 18.015625 
L 14.015625 47.703125 
L 6.390625 47.703125 
L 7.8125 54.6875 
L 15.28125 54.6875 
L 18.3125 70.21875 
L 27.296875 70.21875 
L 24.3125 54.6875 
z
" id="DejaVuSans-Oblique-74"/>
     <path d="M 44.578125 46.390625 
Q 43.21875 47.125 41.453125 47.515625 
Q 39.703125 47.90625 37.703125 47.90625 
Q 30.515625 47.90625 25.140625 42.453125 
Q 19.78125 37.015625 18.015625 27.875 
L 12.5 0 
L 3.515625 0 
L 14.203125 54.6875 
L 23.1875 54.6875 
L 21.484375 46.1875 
Q 25.046875 50.921875 30 53.453125 
Q 34.96875 56 40.578125 56 
Q 42.046875 56 43.453125 55.828125 
Q 44.875 55.671875 46.296875 55.28125 
z
" id="DejaVuSans-Oblique-72"/>
     <path d="M 18.3125 75.984375 
L 27.296875 75.984375 
L 12.5 0 
L 3.515625 0 
z
" id="DejaVuSans-Oblique-6c"/>
     <path d="M 18.3125 75.984375 
L 27.296875 75.984375 
L 25.09375 64.59375 
L 16.109375 64.59375 
z
M 14.203125 54.6875 
L 23.1875 54.6875 
L 12.5 0 
L 3.515625 0 
z
" id="DejaVuSans-Oblique-69"/>
     <path d="M 12.5 -9.28125 
L 15.921875 -9.28125 
Q 22.75 -9.28125 24.828125 -7.171875 
Q 26.90625 -5.078125 26.90625 1.90625 
L 26.90625 14.015625 
Q 26.90625 21.625 29.09375 25.09375 
Q 31.296875 28.5625 36.71875 29.890625 
Q 31.296875 31.109375 29.09375 34.5625 
Q 26.90625 38.03125 26.90625 45.703125 
L 26.90625 57.8125 
Q 26.90625 64.75 24.828125 66.875 
Q 22.75 69 15.921875 69 
L 12.5 69 
L 12.5 75.984375 
L 15.578125 75.984375 
Q 27.734375 75.984375 31.8125 72.390625 
Q 35.890625 68.796875 35.890625 58.015625 
L 35.890625 46.296875 
Q 35.890625 39.015625 38.515625 36.203125 
Q 41.15625 33.40625 48.09375 33.40625 
L 51.125 33.40625 
L 51.125 26.421875 
L 48.09375 26.421875 
Q 41.15625 26.421875 38.515625 23.578125 
Q 35.890625 20.75 35.890625 13.375 
L 35.890625 1.703125 
Q 35.890625 -9.078125 31.8125 -12.6875 
Q 27.734375 -16.3125 15.578125 -16.3125 
L 12.5 -16.3125 
z
" id="DejaVuSans-7d"/>
     <path d="M 10.59375 45.40625 
L 73.1875 45.40625 
L 73.1875 37.203125 
L 10.59375 37.203125 
z
M 10.59375 25.484375 
L 73.1875 25.484375 
L 73.1875 17.1875 
L 10.59375 17.1875 
z
" id="DejaVuSans-3d"/>
     <path d="M 48.09375 32.234375 
Q 48.25 33.015625 48.3125 33.84375 
Q 48.390625 34.671875 48.390625 35.5 
Q 48.390625 41.453125 44.890625 44.921875 
Q 41.40625 48.390625 35.40625 48.390625 
Q 28.71875 48.390625 23.578125 44.15625 
Q 18.453125 39.9375 15.828125 32.171875 
z
M 55.90625 25.203125 
L 14.109375 25.203125 
Q 13.8125 23.34375 13.71875 22.265625 
Q 13.625 21.1875 13.625 20.40625 
Q 13.625 13.625 17.796875 9.90625 
Q 21.96875 6.203125 29.59375 6.203125 
Q 35.453125 6.203125 40.671875 7.515625 
Q 45.90625 8.84375 50.390625 11.375 
L 48.6875 2.484375 
Q 43.84375 0.53125 38.6875 -0.4375 
Q 33.546875 -1.421875 28.21875 -1.421875 
Q 16.84375 -1.421875 10.71875 4.015625 
Q 4.59375 9.46875 4.59375 19.484375 
Q 4.59375 28.03125 7.640625 35.375 
Q 10.6875 42.71875 16.609375 48.484375 
Q 20.40625 52.09375 25.65625 54.046875 
Q 30.90625 56 36.8125 56 
Q 46.09375 56 51.578125 50.4375 
Q 57.078125 44.875 57.078125 35.5 
Q 57.078125 33.25 56.78125 30.6875 
Q 56.5 28.125 55.90625 25.203125 
z
" id="DejaVuSans-Oblique-65"/>
     <path d="M 60.015625 54.6875 
L 34.90625 27.875 
L 50.296875 0 
L 39.984375 0 
L 28.421875 21.6875 
L 8.296875 0 
L -2.59375 0 
L 24.3125 28.8125 
L 10.015625 54.6875 
L 20.3125 54.6875 
L 30.8125 34.90625 
L 49.125 54.6875 
z
" id="DejaVuSans-Oblique-78"/>
    </defs>
    <g style="fill:#262626;" transform="translate(336.18 262.98225)scale(0.16 -0.16)">
     <use transform="translate(0 0.015625)" xlink:href="#DejaVuSans-7b"/>
     <use transform="translate(63.623047 0.015625)" xlink:href="#DejaVuSans-Oblique-63"/>
     <use transform="translate(118.603516 0.015625)" xlink:href="#DejaVuSans-Oblique-6f"/>
     <use transform="translate(179.785156 0.015625)" xlink:href="#DejaVuSans-Oblique-6e"/>
     <use transform="translate(243.164062 0.015625)" xlink:href="#DejaVuSans-Oblique-74"/>
     <use transform="translate(282.373047 0.015625)" xlink:href="#DejaVuSans-Oblique-72"/>
     <use transform="translate(323.486328 0.015625)" xlink:href="#DejaVuSans-Oblique-6f"/>
     <use transform="translate(384.667969 0.015625)" xlink:href="#DejaVuSans-Oblique-6c"/>
     <use transform="translate(412.451172 -16.390625)scale(0.7)" xlink:href="#DejaVuSans-Oblique-69"/>
     <use transform="translate(434.633789 0.015625)" xlink:href="#DejaVuSans-7d"/>
     <use transform="translate(517.739258 0.015625)" xlink:href="#DejaVuSans-3d"/>
     <use transform="translate(621.010742 0.015625)" xlink:href="#DejaVuSans-7b"/>
     <use transform="translate(684.633789 0.015625)" xlink:href="#DejaVuSans-Oblique-65"/>
     <use transform="translate(746.157227 0.015625)" xlink:href="#DejaVuSans-Oblique-78"/>
     <use transform="translate(805.336914 0.015625)" xlink:href="#DejaVuSans-Oblique-70"/>
     <use transform="translate(868.813477 -16.390625)scale(0.7)" xlink:href="#DejaVuSans-Oblique-69"/>
     <use transform="translate(890.996094 0.015625)" xlink:href="#DejaVuSans-7d"/>
    </g>
   </g>
  </g>
 </g>
 <defs>
  <clipPath id="p89b826919e">
   <rect height="271.8" width="446.4" x="57.18" y="12.92625"/>
  </clipPath>
 </defs>
</svg>
